<svg width="315" height="288" viewBox="0 0 315 288" fill="none" xmlns="http://www.w3.org/2000/svg">
<path fill-rule="evenodd" clip-rule="evenodd" d="M15.4777 13.401C15.4777 10.153 15.6456 8.69698 19.4519 8.69698C22.3061 8.69698 25.1052 9.87298 25.1052 13.121C25.1052 17.7138 19.284 20.0098 15.4777 20.8498V13.401ZM18.8923 40.4522C16.597 40.5082 15.4777 38.7714 15.4777 34.8514V24.9386C22.0263 23.3146 36.9704 19.9538 36.9704 11.273C36.9704 8.47298 35.1796 6.45618 32.6052 5.67218C30.5337 5.00018 26.7841 5.00018 24.4887 5.00018H1.03723V6.40098C3.33257 6.34418 4.00335 8.08098 4.00335 12.001V34.8514C4.00335 38.7714 3.33257 40.5082 1.03723 40.4522V41.8522H18.8923V40.4522Z" fill="white"/>
<path fill-rule="evenodd" clip-rule="evenodd" d="M54.3733 40.4521C52.5257 40.4521 51.0706 38.9961 51.0706 35.9713V29.1945C51.0706 27.0105 50.8476 25.1065 51.9661 23.0897C52.9183 21.3537 54.4853 20.1777 56.5559 20.1777C58.2349 20.1777 59.4661 20.6257 60.6422 21.8025L62.6009 14.1289C61.7055 13.9049 60.7533 13.7369 59.8027 13.7369C56.2761 13.7369 52.4146 16.8177 51.0706 20.0097C50.9027 17.8817 50.6789 15.6417 49.3925 13.7929L37.5264 14.5769V15.9777C39.5971 16.0889 40.6045 17.5457 40.6045 20.4577V35.9153C40.6045 38.8841 39.3733 40.4521 37.5264 40.4521V41.8521H54.3733V40.4521Z" fill="white"/>
<path fill-rule="evenodd" clip-rule="evenodd" d="M80.6754 40.4522C78.6047 40.3402 77.5413 38.8842 77.5413 35.9154V13.793L64.1083 14.577V15.9778C66.179 16.089 67.1312 17.5458 67.1312 20.4578V35.9154C67.1312 38.8842 66.179 40.3402 64.1083 40.4522V41.8522H80.6754V40.4522Z" fill="white"/>
<mask id="mask0" mask-type="alpha" maskUnits="userSpaceOnUse" x="66" y="0" width="12" height="11">
<path fill-rule="evenodd" clip-rule="evenodd" d="M66.5156 0.799988H77.8772V10.881H66.5156V0.799988H66.5156Z" fill="white"/>
</mask>
<g mask="url(#mask0)">
<path fill-rule="evenodd" clip-rule="evenodd" d="M72.112 10.881C74.9662 10.881 77.8772 9.03224 77.8772 6.00824C77.8772 2.81624 75.5266 0.799438 72.4478 0.799438C69.4817 0.799438 66.5156 2.59224 66.5156 5.84024C66.5156 9.03224 69.1459 10.881 72.112 10.881Z" fill="white"/>
</g>
<path fill-rule="evenodd" clip-rule="evenodd" d="M100.207 42.5802C101.27 42.5802 102.389 42.4682 103.453 42.3562C104.349 42.2442 105.244 42.0762 106.14 42.0762C107.091 42.0762 107.708 42.1322 108.49 42.6922L112.465 32.8354L111.401 32.3306C109.778 35.5794 106.476 37.9314 102.782 37.9314C97.1287 37.9314 93.9379 32.1074 93.9379 27.0106C93.9379 21.5778 97.3525 17.7138 101.662 17.7138C105.412 17.7138 108.379 21.2418 109.218 24.6586L110.394 24.3786L107.875 13.233C107.484 13.905 106.643 14.185 105.86 14.185C105.356 14.185 104.797 14.073 104.293 14.017C102.334 13.793 101.215 13.513 98.4718 13.513C89.9644 13.513 82.7442 18.0498 82.7442 27.2346C82.7442 37.3714 90.9158 42.5802 100.207 42.5802Z" fill="white"/>
<path fill-rule="evenodd" clip-rule="evenodd" d="M128.749 28.2427C130.26 27.2347 131.828 26.8987 133.562 26.6187C133.618 30.0347 133.002 36.9795 128.357 36.9795C126.454 36.9795 125.334 35.2435 125.334 33.5075C125.334 31.4347 127.069 29.3067 128.749 28.2427ZM123.263 42.5803C126.677 42.5803 131.491 41.0683 133.506 38.0995C133.841 39.4995 134.401 40.8435 135.464 41.8523H147.107V40.4523C143.692 40.1155 144.028 36.8675 144.028 34.2915V24.0979C144.028 21.0739 144.085 17.6019 141.342 15.5291C139.215 13.8491 135.577 13.5131 132.946 13.5131C129.252 13.5131 126.174 14.2411 122.648 15.0251C121.92 15.1931 121.137 15.3611 120.408 15.3611C119.57 15.3611 119.122 14.9691 118.562 14.4091L117.442 24.4339L118.562 24.5459C120.297 20.4579 123.935 17.7699 128.468 17.7699C129.98 17.7699 131.603 18.0499 132.723 19.2259C133.674 20.2899 133.562 21.6339 133.506 22.9779V23.4259C126.845 24.4339 114.868 26.8427 114.868 35.5235C114.868 40.1155 119.066 42.5803 123.263 42.5803Z" fill="white"/>
<path fill-rule="evenodd" clip-rule="evenodd" d="M178.836 38.7158C173.912 38.7158 170.385 35.8598 169.154 31.043L167.978 31.267L168.761 42.3558C169.49 41.5718 170.217 41.2918 171.28 41.2918C172.232 41.2918 173.744 41.6838 174.694 41.8518C176.934 42.2998 178.781 42.5806 181.131 42.5806C184.602 42.5806 188.463 41.7398 191.43 39.8358C194.396 37.9318 196.411 34.571 196.411 31.043C196.411 28.747 195.404 26.6182 193.501 25.3302C191.99 24.2102 189.863 23.5942 188.015 23.1462L183.314 21.8582C182.026 21.5222 179.228 21.0182 179.228 19.2822C179.228 17.4334 182.475 17.0414 183.762 17.0414C187.345 17.0414 190.367 18.7214 191.99 21.9702L193.053 21.8582L192.661 13.6814C191.99 14.0734 191.485 14.2974 190.703 14.2974C189.527 14.2974 188.351 14.1294 187.232 13.9054C186.281 13.7374 183.985 13.5134 182.362 13.5134C179.117 13.5134 175.87 13.9614 173.016 15.5294C170.217 17.0414 168.202 19.7854 168.202 22.9782C168.202 27.795 172.624 29.531 176.542 30.483L180.627 31.435C182.194 31.827 185.665 32.331 185.665 34.4598C185.665 37.8198 181.467 38.7158 178.836 38.7158Z" fill="white"/>
<path fill-rule="evenodd" clip-rule="evenodd" d="M201.613 32.7232C201.613 35.1872 201.613 37.988 203.348 39.948C204.971 41.908 207.938 42.58 210.401 42.58C213.423 42.58 216.502 41.964 219.3 40.732L222.154 32.7232L220.98 32.2752C219.916 34.5712 218.236 37.204 215.438 37.204C212.192 37.204 212.08 33.5632 212.08 31.2672V18.1616H215.606C216.389 18.1616 217.453 18.0496 218.125 18.5536L219.803 14.1288C219.188 14.4656 218.181 14.7456 216.334 14.7456H212.08V3.09601C209.002 5.05681 205.588 6.56881 201.893 7.18481C202.117 8.13681 202.341 9.14481 202.341 10.1528C202.341 13.1768 200.774 16.0896 197.639 16.7616V18.1616H201.613V32.7232Z" fill="white"/>
<path fill-rule="evenodd" clip-rule="evenodd" d="M238.383 28.2427C239.895 27.2347 241.462 26.8987 243.197 26.6187C243.253 30.0347 242.636 36.9795 237.991 36.9795C236.089 36.9795 234.968 35.2435 234.968 33.5075C234.968 31.4347 236.703 29.3067 238.383 28.2427ZM232.899 42.5803C236.312 42.5803 241.126 41.0683 243.14 38.0995C243.477 39.4995 244.035 40.8435 245.1 41.8523H256.741V40.4523C253.327 40.1155 253.663 36.8675 253.663 34.2915V24.0979C253.663 21.0739 253.719 17.6019 250.977 15.5291C248.85 13.8491 245.212 13.5131 242.581 13.5131C238.887 13.5131 235.808 14.2411 232.282 15.0251C231.555 15.1931 230.771 15.3611 230.044 15.3611C229.204 15.3611 228.756 14.9691 228.197 14.4091L227.077 24.4339L228.197 24.5459C229.932 20.4579 233.569 17.7699 238.103 17.7699C239.614 17.7699 241.237 18.0499 242.357 19.2259C243.309 20.2899 243.197 21.6339 243.14 22.9779V23.4259C236.48 24.4339 224.502 26.8427 224.502 35.5235C224.502 40.1155 228.7 42.5803 232.899 42.5803Z" fill="white"/>
<path fill-rule="evenodd" clip-rule="evenodd" d="M273.921 40.4521C272.073 40.4521 270.618 38.9961 270.618 35.9713V29.1945C270.618 27.0105 270.395 25.1065 271.514 23.0897C272.466 21.3537 274.033 20.1777 276.103 20.1777C277.782 20.1777 279.014 20.6257 280.189 21.8025L282.148 14.1289C281.253 13.9049 280.301 13.7369 279.35 13.7369C275.823 13.7369 271.962 16.8177 270.618 20.0097C270.45 17.8817 270.227 15.6417 268.94 13.7929L257.074 14.5769V15.9777C259.145 16.0889 260.152 17.5457 260.152 20.4577V35.9153C260.152 38.8841 258.921 40.4521 257.074 40.4521V41.8521H273.921V40.4521Z" fill="white"/>
<mask id="mask1" mask-type="alpha" maskUnits="userSpaceOnUse" x="282" y="13" width="33" height="30">
<path fill-rule="evenodd" clip-rule="evenodd" d="M314.384 13.5131V42.5803H282.145V13.5131H314.384V13.5131Z" fill="white"/>
</mask>
<g mask="url(#mask1)">
<path fill-rule="evenodd" clip-rule="evenodd" d="M295.634 36.9795C293.731 36.9795 292.612 35.2435 292.612 33.5075C292.612 31.4347 294.347 29.3067 296.026 28.2427C297.538 27.2347 299.105 26.8987 300.84 26.6187C300.896 30.0347 300.28 36.9795 295.634 36.9795ZM311.307 34.2915V24.0979C311.307 21.0739 311.362 17.6019 308.619 15.5299C306.493 13.8491 302.854 13.5131 300.224 13.5131C296.53 13.5131 293.452 14.2411 289.925 15.0251C289.197 15.1931 288.415 15.3619 287.687 15.3619C286.847 15.3619 286.399 14.9691 285.84 14.4091L284.72 24.4339L285.84 24.5459C287.574 20.4579 291.213 17.7699 295.747 17.7699C297.257 17.7699 298.881 18.0499 300 19.2259C300.952 20.2899 300.84 21.6339 300.783 22.9787V23.4267C294.123 24.4339 282.145 26.8427 282.145 35.5235C282.145 40.1155 286.343 42.5803 290.541 42.5803C293.955 42.5803 298.769 41.0683 300.783 38.0995C301.119 39.4995 301.679 40.8443 302.743 41.8523H314.384V40.4523C310.971 40.1155 311.307 36.8675 311.307 34.2915Z" fill="white"/>
</g>
<mask id="mask2" mask-type="alpha" maskUnits="userSpaceOnUse" x="1" y="224" width="58" height="64">
<path fill-rule="evenodd" clip-rule="evenodd" d="M58.8057 287.841H1.82428L1.82428 224.623H58.8057V287.841Z" fill="white"/>
</mask>
<g mask="url(#mask2)">
<path fill-rule="evenodd" clip-rule="evenodd" d="M31.7549 262.431C23.2906 262.431 20.4117 254.835 20.4117 247.5C20.4117 237.983 25.6468 229.251 36.1177 230.037V255.62C36.1177 259.201 36.5542 262.431 31.7549 262.431ZM54.3557 262.693C51.9125 260.248 52.4361 257.803 52.4361 254.573V236.411C52.4361 232.395 51.9996 227.243 57.2355 226.807V224.623H36.4671C29.2245 224.623 19.7121 224.623 13.4297 228.64C6.71078 232.918 2.95796 240.603 2.95796 248.461C2.95796 254.66 5.05343 260.511 10.1142 264.527C15.1758 268.544 20.8466 268.893 27.0427 268.631L36.2928 268.195C39.434 268.019 41.8773 269.416 41.8773 272.91C41.8773 275.966 38.9983 278.323 36.4671 279.371C33.413 280.768 30.0096 281.205 26.7812 281.205C23.0292 281.205 18.7527 280.507 15.6123 278.323C13.5169 276.926 11.9467 274.655 11.9467 272.123C11.9467 271.25 12.2089 270.378 12.5575 269.591L10.9865 268.456L1.82428 280.593C8.97974 286.444 18.5792 287.841 27.5663 287.841C33.8495 287.841 40.7428 286.967 46.6766 284.784C52.2611 282.602 58.8057 278.323 58.8057 271.513C58.8057 267.147 57.1484 265.4 54.3557 262.693Z" fill="white"/>
</g>
<path fill-rule="evenodd" clip-rule="evenodd" d="M89.2582 262.082C81.4911 262.169 79.7466 250.207 79.7466 244.444C79.7466 239.118 81.0554 230.125 88.1237 230.125C95.3663 230.125 97.0245 240.952 97.0245 247.5C97.0245 251.43 95.89 261.995 89.2582 262.082ZM89.0831 223.489C74.9473 223.489 62.2937 231.783 62.2937 247.151C62.2937 253.874 64.912 260.598 70.4965 264.265C75.4709 267.583 82.4513 268.805 88.298 268.805C101.911 268.805 114.477 261.297 114.477 246.277C114.477 231.085 103.045 223.489 89.0831 223.489Z" fill="white"/>
<path fill-rule="evenodd" clip-rule="evenodd" d="M153.392 257.28C153.392 259.987 152.433 262.257 148.593 262.257C140.74 262.257 137.598 253.525 137.598 246.889C137.598 242.96 138.646 238.943 140.827 235.625C143.009 232.307 146.761 229.6 150.775 229.6C151.647 229.6 152.519 229.6 153.392 229.775V257.28ZM169.71 258.415V208.731L147.633 209.954V212.137C152.258 212.312 153.392 215.018 153.392 218.948V223.837C151.385 223.575 149.466 223.489 147.459 223.489C132.275 223.489 120.146 231.085 120.146 247.588C120.146 254.136 122.59 260.597 128.174 264.353C133.061 267.67 138.471 267.67 146.324 267.67H174.51V265.488C171.281 265.226 169.798 262.956 169.71 258.415Z" fill="white"/>
<path fill-rule="evenodd" clip-rule="evenodd" d="M181.75 211.526C181.75 216.503 185.852 219.384 190.477 219.384C194.927 219.384 199.464 216.503 199.464 211.788C199.464 206.81 195.799 203.668 191 203.668C186.375 203.668 181.75 206.461 181.75 211.526Z" fill="white"/>
<path fill-rule="evenodd" clip-rule="evenodd" d="M198.941 258.415V223.925L177.998 225.147V227.33C181.227 227.505 182.71 229.775 182.71 234.316V258.415C182.71 263.042 181.227 265.313 177.998 265.488V267.67H203.827V265.488C200.598 265.313 198.941 263.042 198.941 258.415Z" fill="white"/>
<path fill-rule="evenodd" clip-rule="evenodd" d="M255.921 258.415V238.332C255.921 228.728 253.565 223.837 244.228 223.489C237.159 223.489 231.052 227.243 226.863 232.22C226.252 229.426 225.99 226.457 224.419 223.925L205.833 225.147V227.33C209.062 227.505 210.545 229.775 210.545 234.316V258.415C210.545 263.042 209.062 265.313 205.833 265.488V267.67H232.099V265.488C228.869 265.313 226.863 263.042 226.863 258.415V247.326C226.863 244.357 227.124 240.428 228.434 237.721C229.567 235.189 232.36 232.918 235.502 232.918C240.039 232.918 239.515 238.681 239.603 241.65V258.415C239.603 263.042 237.857 265.313 234.629 265.488V267.67H260.72V265.488C257.492 265.313 255.921 263.042 255.921 258.415Z" fill="white"/>
<path fill-rule="evenodd" clip-rule="evenodd" d="M285.151 260.074C282.184 260.074 280.439 257.367 280.439 254.66C280.439 251.43 283.143 248.111 285.762 246.453C288.118 244.881 290.561 244.357 293.266 243.921C293.354 249.246 292.394 260.074 285.151 260.074ZM309.584 255.883V239.99C309.584 235.276 309.671 229.862 305.396 226.631C302.079 224.012 296.408 223.489 292.306 223.489C286.547 223.489 281.748 224.623 276.25 225.846C275.116 226.108 273.894 226.37 272.76 226.37C271.451 226.37 270.753 225.758 269.88 224.886L268.135 240.515L269.88 240.69C272.585 234.316 278.257 230.124 285.325 230.124C287.681 230.124 290.212 230.561 291.958 232.394C293.441 234.054 293.266 236.15 293.179 238.245V238.943C282.795 240.515 264.12 244.27 264.12 257.803C264.12 264.963 270.666 268.806 277.21 268.806C282.533 268.806 290.037 266.448 293.179 261.821C293.702 264.003 294.575 266.098 296.233 267.67H314.383V265.488C309.061 264.963 309.584 259.899 309.584 255.883Z" fill="white"/>
<mask id="mask3" mask-type="alpha" maskUnits="userSpaceOnUse" x="0" y="64" width="69" height="130">
<path fill-rule="evenodd" clip-rule="evenodd" d="M0 193.995V64.6649L68.1173 64.6649V193.995H0H0Z" fill="white"/>
</mask>
<g mask="url(#mask3)">
<path fill-rule="evenodd" clip-rule="evenodd" d="M17.4663 102.338V166.031C17.4663 177.295 17.4663 188.169 3.10498 189.14V193.995H68.1173V189.14C53.7568 188.363 53.7568 177.488 53.7568 166.226V64.6649L-0.000244141 78.4529L0.97034 83.3073C2.71723 82.9185 4.6576 82.7241 6.59797 82.7241C17.854 82.7241 17.4663 93.9873 17.4663 102.338Z" fill="white"/>
</g>
<path fill-rule="evenodd" clip-rule="evenodd" d="M183.779 114.766C173.881 108.163 160.49 105.639 148.652 105.639C139.143 105.639 129.634 107.192 120.125 109.329C122.454 104.085 122.648 98.2595 123.036 92.8227H168.059C171.164 92.8227 179.315 92.8227 178.539 97.4827L182.032 97.8715L191.153 62.9171C186.301 66.4131 180.091 66.0243 174.269 66.0243H122.454C120.125 66.0243 117.602 66.0243 115.272 65.8307C112.75 65.4419 110.421 64.6651 108.481 62.9171C109.645 68.5491 110.228 74.3747 110.228 80.2003C110.228 102.338 105.376 124.864 97.2247 145.447C108.675 139.815 121.289 135.738 134.292 135.738C147.682 135.738 166.895 141.563 166.895 157.875C166.895 165.255 162.237 172.44 156.221 176.517C150.593 180.402 142.637 181.955 135.844 181.955C121.871 181.955 107.899 174.576 107.899 159.041C107.899 157.293 108.093 155.351 108.481 153.603L105.181 151.661L88.4919 181.761C103.047 191.664 120.513 196.519 138.173 196.519C152.34 196.519 168.835 192.83 180.673 184.674C193.482 175.741 201.826 162.73 201.826 147.001C201.826 133.797 194.84 121.951 183.779 114.766Z" fill="white"/>
<path fill-rule="evenodd" clip-rule="evenodd" d="M296.334 114.766C286.438 108.163 273.047 105.639 261.209 105.639C251.7 105.639 242.19 107.192 232.681 109.329C235.01 104.085 235.204 98.2595 235.591 92.8227H280.616C283.721 92.8227 291.871 92.8227 291.095 97.4827L294.588 97.8715L303.71 62.9171C298.858 66.4131 292.648 66.0243 286.825 66.0243H235.01C232.681 66.0243 230.159 66.0243 227.829 65.8307C225.306 65.4419 222.978 64.6651 221.037 62.9171C222.201 68.5491 222.784 74.3747 222.784 80.2003C222.784 102.338 217.932 124.864 209.781 145.447C221.232 139.815 233.845 135.738 246.848 135.738C260.239 135.738 279.451 141.563 279.451 157.875C279.451 165.255 274.794 172.44 268.777 176.517C263.149 180.402 255.193 181.955 248.4 181.955C234.427 181.955 220.455 174.576 220.455 159.041C220.455 157.293 220.649 155.351 221.037 153.603L217.738 151.661L201.048 181.761C215.603 191.664 233.069 196.519 250.729 196.519C264.896 196.519 281.392 192.83 293.229 184.674C306.038 175.741 314.383 162.73 314.383 147.001C314.383 133.797 307.396 121.951 296.334 114.766Z" fill="white"/>
<path fill-rule="evenodd" clip-rule="evenodd" d="M101.582 10.7849L106.347 3.57294H105.466L99.4597 7.86014L93.4531 3.57294H92.5713L97.3371 10.7849H101.582Z" fill="white"/>
</svg>
