<svg width="93" height="152" viewBox="0 0 93 152" fill="none" xmlns="http://www.w3.org/2000/svg">
<g opacity="0.380152">
<path fill-rule="evenodd" clip-rule="evenodd" d="M2.75012 3.42719C5.39843 6.16658 11.7097 7.32929 12.4328 10.8204C12.7319 12.2656 12.4849 14.4804 11.0149 18.0567C13.3969 9.50527 18.4138 11.0685 19.1815 11.3719C27.1473 14.5237 16.2788 19.0505 17.6253 20.6407C18.7278 23.9554 22.4086 21.5837 22.4726 20.5151C29.437 24.5951 14.9323 28.6168 12.5563 22.0918C16.7266 31.7193 40.1895 30.0769 41.5345 21.0188C38.5112 27.3121 29.0443 25.9401 29.9652 20.956C34.4316 22.9347 35.729 21.9812 35.2767 20.4584C34.4153 17.565 21.9846 16.2469 28.6425 10.9938C33.4794 9.15705 37.3552 9.96557 41.5345 15.534C35.491 9.11969 37.7033 6.59102 45.6111 1.0943C58.3869 8.14528 53.1721 11.8262 50.4584 15.9749C52.8939 16.9164 53.0293 7.73729 63.7059 11.1731C69.0754 17.3857 60.0696 16.9388 56.8485 21.2086C58.6726 23.522 61.123 21.225 62.0276 20.2626C68.2675 24.2454 53.6587 29.3311 49.9079 20.8932C54.6674 29.4701 70.401 32.5338 79.5451 22.5327C75.4254 28.0653 64.7771 25.5321 69.7389 20.7677C72.9229 23.1753 73.7159 22.2218 73.8111 21.6016C74.4538 17.3409 63.6582 16.8297 71.7966 11.5691C77.5634 10.6979 80.6 12.1131 81.3082 18.245C79.5883 6.86003 82.5743 7.79258 88.8023 4.24617L81.4198 32.622L80.1879 34.5274C71.9364 30.7852 30.2286 31.7372 12.2052 34.3601L2.75012 3.42719Z" fill="#040202"/>
<path fill-rule="evenodd" clip-rule="evenodd" d="M52.2969 31.7407C64.8303 31.7407 75.9457 32.452 80.0804 34.1707L81.1575 32.5058L88.3615 4.81601C87.5536 5.25689 86.8023 5.62752 86.1239 5.96079C82.0755 7.95892 80.311 8.8302 81.4447 17.2113C81.5012 17.5311 81.5488 17.8644 81.5875 18.2126L81.0296 18.2873C80.9775 17.9496 80.9299 17.6208 80.8882 17.3039C80.5089 15.122 79.756 13.6215 78.603 12.7353C77.1955 11.6548 75.0635 11.3708 71.8989 11.8401C69.99 13.082 69.0512 14.1117 69.0289 14.989C69.0066 15.938 70.1001 16.7241 71.2576 17.555C72.7172 18.6026 74.3701 19.7893 74.0889 21.6439C74.0279 22.0444 73.7869 22.3598 73.4269 22.5077C72.6577 22.8231 71.4258 22.3613 69.7654 21.1403C68.9158 22.0131 68.5796 22.8395 68.7923 23.5419C69.0423 24.3714 70.0584 25.0185 71.5091 25.2755C73.3554 25.6013 75.8371 25.2441 77.7653 23.8752C78.3128 23.397 78.8395 22.8858 79.3379 22.3404L79.7724 22.702C79.2963 23.3387 78.7383 23.8722 78.1283 24.3086C73.9595 27.9327 68.4754 29.6036 62.7533 28.928C58.3791 28.411 54.4275 26.5354 51.7643 23.8214C50.9088 23.116 50.1753 22.1924 49.6516 21.0088L50.1545 20.7547C50.6752 21.6947 51.3373 22.572 52.1184 23.376C53.9573 24.8944 56.4092 25.3278 58.4773 25.138C60.9024 24.9139 62.9512 23.8393 63.2398 22.6378C63.4407 21.8083 62.7548 21.1059 62.0674 20.6292C61.1673 21.5483 59.8833 22.5481 58.5829 22.4898C57.8375 22.4569 57.1799 22.0848 56.6279 21.3854L56.4911 21.2135L56.6235 21.0372C57.8093 19.4665 59.739 18.5175 61.4425 17.6791C63.2502 16.7898 64.8109 16.0217 65.0594 14.7947C65.235 13.9219 64.7395 12.8175 63.5448 11.4187C56.616 9.21877 54.3144 12.4618 52.7909 14.6094C52.0217 15.6914 51.3596 16.6269 50.3568 16.2399L50.031 16.1128L50.2214 15.8199C50.5577 15.3058 50.9356 14.7947 51.3001 14.3C52.6451 12.4767 53.9157 10.7536 53.4723 8.71363C52.9843 6.47489 50.4163 4.09119 45.6271 1.42802C41.0089 4.64564 38.6194 6.71551 38.3799 9.01851C38.2549 10.244 38.7459 11.589 39.9481 13.224C40.5551 13.8472 41.1577 14.5601 41.7602 15.3641L41.3302 15.7288C40.6072 14.9606 40.0001 14.2462 39.5062 13.5737C36.3089 10.2933 33.0595 9.63125 28.7835 11.2438C27.4966 12.266 26.891 13.1896 26.9803 13.9922C27.141 15.4149 29.4679 16.5178 31.5211 17.4907C33.4181 18.3889 35.2079 19.2378 35.5471 20.3781C35.745 21.0431 35.6349 21.6051 35.2362 21.9578C34.464 22.6437 32.7247 22.439 30.1969 21.3659C30.0779 22.8589 31.0093 24.0665 32.747 24.6404C35.6036 25.5804 39.5791 24.4371 41.2811 20.8967L41.8138 21.0611C41.1368 25.6178 35.4192 27.9671 30.2936 28.6456C23.7562 29.5124 16.1044 27.988 13.0305 23.527C12.727 23.1384 12.4756 22.6945 12.2911 22.1879L12.8163 21.9787C12.9948 22.3927 13.2106 22.7842 13.4605 23.1549C14.7698 24.8406 17.2098 25.3577 19.3091 25.2352C21.7357 25.0947 23.7681 24.1412 24.0359 23.0174C24.2308 22.2059 23.4408 21.4691 22.6344 20.946C22.2594 21.6843 21.0989 22.4569 20.0292 22.5989C19.3002 22.6945 17.9954 22.584 17.3735 20.7801C16.8126 20.0344 17.8243 19.1078 19.0993 17.9406C20.419 16.7301 22.0631 15.2236 21.8191 13.8995C21.6643 13.0566 20.7419 12.2944 19.0785 11.6354C18.772 11.5158 17.1622 10.9584 15.4081 11.8341C14.1271 12.4753 13.0603 13.7112 12.2227 15.5225C11.9801 16.3355 11.6647 17.2158 11.2749 18.1648L10.7408 17.9794C11.0131 17.0065 11.3285 16.1278 11.6841 15.3477C12.2301 13.5005 12.3893 12.003 12.1572 10.8776C11.7495 8.91389 9.31398 7.6645 6.95877 6.45547C5.67329 5.7964 4.35063 5.1179 3.31511 4.30789L12.4057 34.0452C22.1374 32.6508 38.124 31.7407 52.2969 31.7407ZM80.2916 34.8851L80.0714 34.7849C71.948 31.101 30.1211 32.0396 12.2465 34.64L12.0069 34.6743L11.9355 34.4427L2.48193 3.50983L2.95357 3.22887C3.97867 4.28996 5.6242 5.13434 7.21616 5.95033C9.6889 7.22064 12.2479 8.5328 12.7092 10.7626C12.8728 11.5532 12.8669 12.4812 12.6883 13.5588C13.3995 12.538 14.2238 11.7923 15.1566 11.326C17.1235 10.3441 18.9401 10.9733 19.2853 11.1078C21.1689 11.8535 22.1791 12.7323 22.3755 13.7964C22.6745 15.4299 20.9026 17.0544 19.4787 18.359C18.5771 19.1855 17.555 20.121 17.8406 20.4573L17.8927 20.5515C18.3569 21.9428 19.2749 22.1281 19.9548 22.0355C21.1153 21.883 22.1657 20.9101 22.1925 20.4977L22.2193 20.0374L22.615 20.2705C24.5432 21.3988 24.75 22.4599 24.5849 23.1489C24.2129 24.7121 21.6643 25.6671 19.3418 25.8016C18.101 25.8733 16.7441 25.7328 15.536 25.2815C19.1246 27.9342 25.0253 28.7711 30.2192 28.0837C34.2602 27.5486 38.6805 25.9645 40.4822 23.0637C38.3442 25.3547 35.0665 26.0004 32.5715 25.1784C30.4365 24.4745 29.3295 22.8365 29.6881 20.9056L29.7536 20.5529L30.0794 20.6964C33.5237 22.2223 34.5726 21.7904 34.8627 21.5318C35.1499 21.2793 35.0993 20.8533 35.0055 20.541C34.7392 19.6428 32.9821 18.8089 31.2801 18.0034C28.9873 16.9169 26.6158 15.793 26.4194 14.0564C26.3033 13.0252 26.9728 11.9492 28.4681 10.7715L28.5425 10.7282C32.381 9.27108 35.5114 9.5909 38.4439 11.8685C37.9246 10.8179 37.7253 9.86588 37.819 8.95873C38.0823 6.41362 40.5953 4.23466 45.4485 0.860111L45.5928 0.761475L45.7461 0.84666C50.8552 3.66526 53.4872 6.12668 54.0228 8.59258C54.5227 10.8836 53.1152 12.7921 51.7539 14.6378C51.489 14.9965 51.2168 15.3656 50.9624 15.7347C51.3596 15.6211 51.7479 15.1011 52.3297 14.2791C53.8576 12.1285 56.4137 8.52981 63.7918 10.9031L63.8662 10.927L63.9197 10.9867C65.2751 12.556 65.8301 13.8382 65.6129 14.9068C65.3093 16.4087 63.6326 17.2337 61.691 18.1887C60.1124 18.9658 58.3315 19.8416 57.2141 21.2031C57.6278 21.6634 58.086 21.901 58.6067 21.9234C59.797 21.9742 61.0006 20.943 61.8219 20.0672L61.9826 19.8984L62.1805 20.0239C63.8067 21.0626 63.9539 22.0908 63.7903 22.7708C63.4332 24.2443 61.2714 25.4504 58.5294 25.7015C57.1933 25.8255 55.7055 25.7015 54.304 25.2217C56.6681 26.8672 59.6259 27.9865 62.8202 28.3646C67.3878 28.9056 71.8036 27.9043 75.4815 25.5759C74.0636 25.9854 72.6115 26.0452 71.4124 25.8345C69.7475 25.54 68.5662 24.745 68.2522 23.7078C68.0484 23.0338 68.1079 21.9413 69.5452 20.5634L69.7177 20.396L69.9097 20.541C72.073 22.1775 72.9418 22.0938 73.2141 21.9817C73.4492 21.886 73.5146 21.6753 73.531 21.5587C73.7601 20.0493 72.3214 19.0151 70.9288 18.0168C69.6463 17.0947 68.4352 16.2249 68.465 14.974C68.4918 13.8726 69.5005 12.7159 71.6445 11.3305L71.695 11.2976L71.7546 11.2886C75.1617 10.7745 77.3785 11.0809 78.9452 12.284C79.6177 12.8025 80.1652 13.4975 80.5922 14.3852C80.2247 8.24138 82.2079 7.26249 85.8754 5.45267C86.7056 5.04318 87.6459 4.57839 88.6621 4.00003L89.2438 3.66974L81.656 32.7763L80.2916 34.8851Z" fill="#040202"/>
<path fill-rule="evenodd" clip-rule="evenodd" d="M0.800293 42.8698C5.82018 47.0828 4.64332 57.1167 4.76085 108.173C5.80084 130.487 43.7446 132.203 45.8111 150.666C50.1541 131.977 79.9103 133.504 86.6115 109.376C87.2155 53.2057 85.0998 48.2739 91.5852 43.2838C78.9388 43.0462 42.953 43.1284 19.2566 43.0387C11.2358 43.0088 4.621 42.9595 0.800293 42.8698Z" fill="#040202"/>
<mask id="mask0" mask-type="alpha" maskUnits="userSpaceOnUse" x="-1" y="0" width="94" height="151">
<path fill-rule="evenodd" clip-rule="evenodd" d="M92.3977 150.73V0.761475H2.67111e-05V150.73H92.3961V42.5675H-0.00012207V150.731H92.3961L92.3977 150.73Z" fill="white"/>
</mask>
<g mask="url(#mask0)">
<path fill-rule="evenodd" clip-rule="evenodd" d="M1.53977 43.1698C5.16706 46.891 5.14623 54.7983 5.06291 83.751C5.04357 90.7542 5.02125 98.6929 5.04208 108.172C5.58513 119.792 16.3286 125.771 26.721 131.554C35.6955 136.548 44.1984 141.278 45.8826 149.322C48.3791 141.233 55.8331 137.056 63.7021 132.648C73.0977 127.384 82.8131 121.941 86.3288 109.337C86.4776 95.5844 86.4612 85.0273 86.4493 76.5446C86.4136 51.9528 86.4077 47.2871 90.7997 43.5538C82.218 43.4119 64.3151 43.3924 46.9865 43.3745C37.411 43.364 27.511 43.3536 19.2567 43.3222C10.8877 43.2908 5.07481 43.24 1.53977 43.1698ZM46.0849 150.731L45.53 150.698C44.5733 142.136 35.7684 137.237 26.4473 132.05C15.921 126.193 5.03613 120.136 4.47969 108.186C4.45737 98.6914 4.47969 90.7542 4.49903 83.7495C4.58532 53.5968 4.60466 46.4337 0.618809 43.0876L-0.00012207 42.5675L0.806273 42.5869C4.24015 42.6661 10.2762 42.7214 19.2581 42.7558C27.5125 42.7857 37.4125 42.7961 46.9865 42.8066C64.8626 42.826 83.3457 42.8454 91.5882 43.0009L92.3961 43.0143L91.7563 43.509C86.9715 47.1899 86.9775 51.101 87.0147 76.5446C87.0266 85.0363 87.0429 95.6053 86.8942 109.38L86.8838 109.453C83.3115 122.31 73.0411 128.066 63.9774 133.144C55.8137 137.715 48.1069 142.034 46.0849 150.731Z" fill="#040202"/>
</g>
<path fill-rule="evenodd" clip-rule="evenodd" d="M14.3155 37.3158C12.2415 38.8477 13.4288 40.1823 14.2471 40.656C36.2087 36.7943 56.9965 37.1111 78.3213 40.801C79.0042 40.4274 80.3909 38.903 78.0684 37.5236C55.6946 33.898 35.1464 34.0967 14.3155 37.3158Z" fill="#040202"/>
<path fill-rule="evenodd" clip-rule="evenodd" d="M45.5378 37.6245C56.2843 37.6245 67.1394 38.5839 78.2653 40.5029C78.6045 40.2862 79.0672 39.8019 79.0762 39.2445C79.0851 38.7349 78.7131 38.2462 77.9707 37.7948C56.3602 34.2977 36.1691 34.232 14.4291 37.5856C13.7477 38.1027 13.4145 38.6198 13.4427 39.1234C13.4725 39.651 13.892 40.0964 14.3027 40.3594C24.701 38.5361 35.0681 37.6245 45.5378 37.6245ZM78.3694 41.0962L78.2727 41.0812C56.2947 37.2778 35.3672 37.2299 14.2967 40.9363L14.1956 40.9542L14.1063 40.9019C13.5409 40.5761 12.9235 39.9454 12.8803 39.1548C12.8387 38.4345 13.2672 37.7395 14.148 37.088L14.2045 37.0461L14.2729 37.0356C36.117 33.6596 56.4034 33.7269 78.115 37.2434L78.2132 37.2792C79.1729 37.8501 79.6549 38.5152 79.6415 39.255C79.6266 40.1038 78.9229 40.7943 78.4557 41.0498L78.3694 41.0962Z" fill="#040202"/>
<path fill-rule="evenodd" clip-rule="evenodd" d="M34.1235 119.052C42.3913 121.859 49.2412 127.521 58.9328 127.454L79.4527 100.458L81.247 84.8239L74.7706 81.5166L65.5655 91.5043C62.1614 99.8495 57.0968 105.478 52.3031 111.545L44.501 108.789C37.1854 103.451 28.9042 114.096 34.1235 119.052Z" fill="#FEFEFE"/>
<path fill-rule="evenodd" clip-rule="evenodd" d="M34.2746 118.803C37.0181 119.74 39.6426 121.006 42.1823 122.229C47.2245 124.659 52.4393 127.171 58.7655 127.171H58.7923L79.1813 100.346L80.9429 84.9861L74.8339 81.8671L65.8073 91.659C62.8615 98.8594 58.6256 104.121 54.5312 109.212C53.8602 110.046 53.1892 110.88 52.5241 111.721L52.3991 111.879L44.3352 109.019C40.6692 106.345 36.8069 107.838 34.6034 110.503C32.6945 112.815 31.784 116.388 34.2746 118.803ZM58.7655 127.739C52.3099 127.739 47.0386 125.198 41.9368 122.74C39.3956 121.514 36.7682 120.248 34.0336 119.32L33.9755 119.301L33.9309 119.258C31.1219 116.591 32.0845 112.664 34.169 110.141C36.5346 107.279 40.6826 105.679 44.6328 108.536L52.2072 111.21C52.8321 110.421 53.4614 109.638 54.0908 108.855C58.1719 103.787 62.3883 98.5455 65.3044 91.3959L65.3595 91.3107L74.7089 81.1677L81.5484 84.6603L79.7243 100.566L79.6767 100.629L59.0735 127.737H58.9351C58.8786 127.739 58.822 127.739 58.7655 127.739Z" fill="#FEFEFE"/>
<path fill-rule="evenodd" clip-rule="evenodd" d="M88.0423 48.5413C88.4708 48.2334 85.754 47.0303 85.08 48.4531C80.3547 47.1021 84.5548 52.9007 82.9049 52.9903C79.1675 53.4686 80.2372 47.5564 77.4714 51.7678C76.8018 49.562 72.5675 50.7501 74.1119 53.2504C71.6451 51.7469 69.3881 54.6582 72.2343 55.9554C70.0174 56.4964 69.8999 58.6485 71.7388 59.3568C68.6695 64.5024 78.8193 60.527 76.2856 65.2003C73.3174 68.6047 73.9988 62.6253 69.5666 63.5444C68.662 60.8842 66.045 62.9944 66.6996 64.0675C64.5556 62.5715 62.4087 63.6983 63.2404 65.55C60.4523 64.9373 59.1207 65.8444 60.0803 68.1668C57.9066 68.6525 57.2133 70.2427 59.2903 71.2201C58.2592 73.0045 58.2592 74.496 60.4746 74.8831C60.1592 81.2884 66.0836 73.7144 67.7887 77.4132C68.0773 82.5169 60.5668 76.8274 63.2404 82.6454C60.976 83.2716 61.1352 85.733 62.8462 85.9602C60.2633 87.3112 60.8436 89.3572 64.5259 88.9252C64.1048 91.0414 65.0124 91.9307 67.5878 91.2821C68.79 92.1922 70.562 91.8993 70.553 90.1477C77.1247 94.4489 70.3522 81.547 78.6542 83.4315C82.6847 89.257 71.1273 88.7967 75.2962 92.8513C73.4111 93.4834 72.8234 95.3097 75.0983 96.166C75.0581 98.2703 76.3897 98.8158 78.4593 98.5198C78.7687 99.3612 78.8342 101.201 81.8173 99.7423C82.216 100.703 82.1505 101.954 84.2885 101.836C84.1472 103.44 84.8152 103.939 86.6467 103.861C86.9413 85.4386 85.9817 54.0111 88.0423 48.5413Z" fill="#FEFEFE"/>
<path fill-rule="evenodd" clip-rule="evenodd" d="M84.5988 101.534L84.569 101.86C84.511 102.518 84.5973 102.942 84.8383 103.196C85.0957 103.467 85.5748 103.606 86.3678 103.585C86.4496 98.2658 86.4288 91.9979 86.4079 85.3698C86.3559 69.192 86.3023 52.4672 87.7648 48.4784C87.5491 48.3126 86.8543 48.0152 86.1982 48.0615C85.7712 48.0929 85.481 48.2662 85.3337 48.5756L85.2311 48.7923L85.002 48.7265C84.1033 48.4695 83.4888 48.4695 83.2285 48.7265C82.8357 49.1106 83.1109 50.1762 83.3311 51.0325C83.5573 51.9113 83.7358 52.6062 83.4442 53.0082C83.3609 53.1203 83.2047 53.2578 82.919 53.2728C81.0176 53.5193 80.2231 52.1922 79.6964 51.315C79.4554 50.913 79.2277 50.5334 79.0284 50.5304H79.0239C78.8722 50.5304 78.5002 50.7142 77.7057 51.9247L77.3769 52.4284L77.1999 51.8515C76.9871 51.1476 76.383 50.9608 76.0394 50.91C75.3297 50.8098 74.5649 51.1043 74.2317 51.6154C73.9654 52.0279 74.0055 52.542 74.3507 53.1009L73.9654 53.4924C73.2229 53.0411 72.418 52.9903 71.814 53.355C71.4078 53.6015 71.1683 54.0051 71.1906 54.4086C71.2203 54.9122 71.631 55.3695 72.3511 55.6968L73.0965 56.0361L72.3005 56.2303C71.381 56.456 70.7844 57.0105 70.7427 57.6785C70.7041 58.2748 71.1236 58.8173 71.8408 59.0923L72.1547 59.2133L71.9821 59.5018C71.4852 60.3357 71.326 60.9499 71.5119 61.334C71.7946 61.9154 72.9105 62.0559 73.9877 62.1919C75.1854 62.3428 76.4232 62.4997 76.8398 63.3157C77.0972 63.8208 76.9975 64.4814 76.5333 65.3362L76.4991 65.3871C75.7894 66.1986 75.2538 66.5587 74.7063 66.5423C74.0784 66.5274 73.6529 65.9863 73.2006 65.414C72.4582 64.4739 71.6146 63.4084 69.6239 63.8223L69.3799 63.8717L69.2981 63.6355C69.0734 62.975 68.7238 62.5983 68.2849 62.546C67.7775 62.4833 67.2791 62.839 67.0351 63.2201C66.9563 63.3456 66.7852 63.6654 66.9399 63.9195L66.5382 64.3006C65.3331 63.4592 64.2231 63.5459 63.7009 63.9822C63.3052 64.3125 63.2323 64.8416 63.4971 65.4334L63.7292 65.9475L63.1802 65.8264C61.734 65.5096 60.706 65.6142 60.2834 66.1223C59.8728 66.614 60.0885 67.4465 60.3414 68.0592L60.4694 68.3715L60.1421 68.4433C59.1021 68.6764 58.3909 69.1845 58.3299 69.7375C58.2838 70.1709 58.6766 70.6178 59.4086 70.963L59.6883 71.0945L59.5336 71.362C58.9474 72.3798 58.7688 73.2002 59.0173 73.7353C59.2196 74.1716 59.727 74.4646 60.523 74.6036L60.7684 74.6469L60.7565 74.898C60.6985 76.104 60.8622 76.8572 61.249 77.1367C61.7519 77.4984 62.71 77.1218 63.7262 76.7212C65.2542 76.119 67.1571 75.3702 68.0439 77.2936L68.0706 77.3967C68.1227 78.3263 67.9367 78.9944 67.5023 79.4382C66.8253 80.1317 65.7184 80.0868 64.7394 80.0495C63.9791 80.0196 63.2605 79.9912 63.0403 80.3259C62.8901 80.5501 62.8484 81.115 63.4971 82.5273L63.6369 82.8307L63.3156 82.9189C62.161 83.2387 61.7965 84.0263 61.8352 84.6032C61.8754 85.177 62.286 85.6 62.8826 85.6792L63.7694 85.7973L62.9764 86.2127C61.8248 86.8135 61.4409 87.5069 61.5689 87.9254C61.7236 88.435 62.6892 88.8535 64.4939 88.6442L64.8793 88.5994L64.8019 88.982C64.6204 89.8996 64.7052 90.5363 65.0563 90.8725C65.4714 91.2686 66.2986 91.3134 67.5201 91.007L67.6496 90.9742L67.7597 91.0549C68.3533 91.5062 69.1106 91.6287 69.6403 91.3627C70.0569 91.1535 70.2741 90.7335 70.2711 90.1492L70.2681 89.6231L70.707 89.9101C71.8006 90.6259 72.5638 90.8845 72.97 90.6797C73.4997 90.4137 73.5726 89.2675 73.6499 88.0554C73.7556 86.3891 73.8746 84.5015 75.1482 83.5436C75.9724 82.9249 77.1403 82.7963 78.7174 83.155L78.8246 83.1789L78.887 83.2701C79.6592 84.3835 79.9389 85.3564 79.747 86.2426C79.445 87.637 78.0107 88.4888 76.7476 89.2391C75.718 89.8518 74.745 90.4302 74.6616 91.1311C74.6126 91.56 74.8833 92.0562 75.4918 92.648L75.8266 92.9723L75.3862 93.1202C74.5114 93.4132 73.9163 94.0035 73.9058 94.5878C73.8969 95.1169 74.3552 95.5831 75.1987 95.9L75.3847 95.9702L75.3818 96.1705C75.3669 96.9581 75.5484 97.508 75.9367 97.8548C76.4128 98.2777 77.2475 98.4062 78.4199 98.2388L78.6445 98.2075L78.7234 98.4227C78.7621 98.5303 78.7993 98.6528 78.8365 98.7828C78.9659 99.2282 79.1117 99.7303 79.5328 99.9187C79.9791 100.116 80.7051 99.971 81.6945 99.4867L81.9638 99.3552L82.0799 99.6332C82.1498 99.8081 82.2108 99.9919 82.2674 100.176C82.5233 100.993 82.7241 101.637 84.2729 101.552L84.5988 101.534ZM86.3083 104.153C85.3843 104.153 84.7981 103.973 84.4306 103.588C84.1167 103.257 83.9724 102.788 83.9888 102.126C82.2837 102.113 81.9772 101.138 81.7288 100.348C81.7064 100.274 81.6826 100.201 81.6588 100.129C80.6382 100.587 79.8645 100.687 79.3036 100.437C78.643 100.143 78.4422 99.4479 78.2949 98.9413C78.2845 98.9039 78.2726 98.868 78.2622 98.8322C77.0273 98.9756 76.1405 98.7933 75.5633 98.2792C75.0857 97.8548 74.8357 97.2091 74.8164 96.3588C73.8627 95.9508 73.3286 95.3082 73.342 94.5774C73.3539 93.8451 73.9148 93.1561 74.8015 92.7436C74.2704 92.1428 74.0397 91.5914 74.1022 91.0653C74.2168 90.0834 75.3074 89.4363 76.4604 88.7519C77.6819 88.0255 78.9451 87.2753 79.195 86.1216C79.3483 85.4206 79.1147 84.6226 78.4853 83.6841C77.1344 83.3941 76.1539 83.4972 75.4874 83.9979C74.4221 84.7989 74.3105 86.5475 74.2138 88.0913C74.1216 89.532 74.0412 90.7739 73.2229 91.1864C72.6695 91.4658 71.8928 91.2895 70.7933 90.6319C70.6847 91.1968 70.3753 91.6272 69.8932 91.8694C69.2103 92.2146 68.276 92.0995 67.5291 91.5884C66.1588 91.9142 65.2215 91.8141 64.668 91.2835C64.2246 90.8576 64.0625 90.1731 64.1874 89.2435C62.4571 89.3765 61.2922 88.9551 61.0273 88.0913C60.822 87.4173 61.252 86.6611 62.167 86.0364C61.6522 85.7614 61.316 85.2548 61.2728 84.642C61.2192 83.8559 61.6924 82.9159 62.8558 82.475C62.3336 81.263 62.2473 80.4963 62.5702 80.0106C62.9674 79.4128 63.8378 79.4457 64.7617 79.4831C65.6648 79.5204 66.5962 79.5548 67.0991 79.0422C67.4086 78.7253 67.5425 78.2142 67.5097 77.4834C66.8848 76.2012 65.6827 76.5598 63.93 77.2503C62.7696 77.7076 61.6715 78.141 60.9187 77.597C60.3846 77.2114 60.148 76.4194 60.1837 75.1147C59.3312 74.9204 58.7673 74.5393 58.5055 73.9759C58.196 73.3078 58.3284 72.4216 58.9012 71.3381C57.83 70.7433 57.7273 70.0513 57.769 69.6747C57.8494 68.932 58.5814 68.2953 59.7032 67.971C59.3714 67.0175 59.419 66.2748 59.8505 65.7577C60.3667 65.1375 61.3874 64.9402 62.8201 65.1793C62.6818 64.5337 62.8633 63.9449 63.3394 63.5459C63.936 63.0467 65.0786 62.8689 66.3254 63.5115C66.3552 63.3142 66.434 63.1125 66.5605 62.9137C66.8893 62.3996 67.5811 61.8885 68.3533 61.9826C68.7863 62.0349 69.3635 62.298 69.7474 63.2216C71.9107 62.8733 72.9105 64.1332 73.644 65.0613C74.0264 65.547 74.3566 65.9669 74.7197 65.9759C75.0425 65.9938 75.4993 65.668 76.0528 65.0388C76.4024 64.3828 76.4991 63.8911 76.3369 63.5742C76.0572 63.0243 74.9681 62.8883 73.9163 62.7553C72.6903 62.5998 71.4212 62.4399 71.0046 61.5821C70.7517 61.0605 70.8618 60.3731 71.3394 59.4883C70.5687 59.0878 70.1298 58.4033 70.1789 57.6426C70.225 56.8939 70.7338 56.2587 71.5447 55.8926C70.8037 55.3785 70.6475 54.7852 70.6267 54.4414C70.5925 53.8272 70.9347 53.2234 71.5238 52.8692C72.1145 52.5106 72.8406 52.4523 73.5562 52.6824C73.4268 52.1863 73.4937 51.7125 73.76 51.3045C74.2138 50.6081 75.1824 50.2165 76.1212 50.3495C76.7327 50.4377 77.2192 50.7381 77.5168 51.1984C78.1431 50.3167 78.5969 49.9326 79.0403 49.9625C79.5491 49.9729 79.8422 50.4586 80.1785 51.0221C80.7111 51.9068 81.3211 52.9051 82.8684 52.7078C82.9651 52.7019 82.9815 52.6809 82.9875 52.672C83.1228 52.4882 82.9279 51.729 82.7836 51.176C82.5143 50.1254 82.2078 48.9343 82.8327 48.32C83.2344 47.927 83.9248 47.8627 84.9439 48.1243C85.2698 47.6535 85.847 47.4368 86.5954 47.5011C87.3363 47.5683 88.2409 47.9359 88.3555 48.3574C88.3897 48.4799 88.3614 48.604 88.2871 48.6981C86.8662 52.6271 86.9212 69.2697 86.9718 85.3668C86.9941 92.1129 87.015 98.4839 86.9287 103.866L86.9242 104.133L86.6594 104.145C86.5374 104.15 86.4213 104.153 86.3083 104.153Z" fill="#040202"/>
<path fill-rule="evenodd" clip-rule="evenodd" d="M19.2642 95.622C18.4682 95.6474 17.6677 95.4397 16.9015 95.8402C15.8734 96.0151 15.1281 97.6201 15.0953 97.6187C13.7191 98.215 13.725 98.8815 14.2324 99.6302C13.1865 101.238 13.3605 102.057 13.6685 104.235C14.1372 105.004 14.4615 105.064 15.262 105.513C16.1353 105.798 16.3481 105.244 16.3317 104.725C16.9343 105.094 18.8 105.572 18.5039 104.558C18.5738 103.673 18.9235 102.123 18.6735 101.24C19.0217 100.158 18.9517 98.9532 19.224 97.8563C19.0529 97.124 19.9471 96.0778 19.2642 95.622Z" fill="#FEFEFE"/>
<path fill-rule="evenodd" clip-rule="evenodd" d="M15.3733 105.251C15.5488 105.306 15.7735 105.343 15.9 105.249C16.0026 105.171 16.0577 104.983 16.0502 104.734L16.0339 104.211L16.4787 104.483C16.9504 104.771 17.9904 105.006 18.2299 104.819C18.2671 104.789 18.2537 104.704 18.2329 104.636L18.218 104.587L18.2225 104.535C18.2418 104.291 18.6896 104.2 18.7343 103.885C18.8414 103.093 18.831 101.848 18.6643 101.26L18.3772 101.234L18.404 101.151C18.587 100.585 18.648 99.9871 18.7149 99.352C18.7655 98.8558 19.1077 98.3507 19.2238 97.856C19.1657 97.5033 19.2431 97.2716 19.3517 96.9174C19.4975 96.4422 19.3026 96.0536 19.1672 95.9072C18.9797 95.9131 18.7804 95.8997 18.5885 95.8907C18.0365 95.8623 17.5172 95.8384 17.0307 96.091L16.9489 96.1194C16.4609 96.2016 15.9431 96.7187 15.406 97.6527C15.3465 97.7573 15.2885 97.859 15.1784 97.8918C14.6219 98.1369 14.3006 98.3985 14.2232 98.6675C14.1622 98.8797 14.2381 99.1338 14.4672 99.47L14.5728 99.6269L14.4702 99.7854C13.5284 101.234 13.6311 101.964 13.9093 103.916L13.939 104.136C14.2693 104.66 14.5059 104.786 15.0103 105.053C15.1204 105.112 15.2409 105.176 15.3733 105.251ZM15.6902 105.874C15.534 105.874 15.3614 105.843 15.1739 105.781L15.1233 105.759C14.985 105.683 14.86 105.615 14.7454 105.556C14.189 105.26 13.8542 105.082 13.4272 104.382L13.3885 104.275L13.3499 103.997C13.0761 102.073 12.9467 101.162 13.8989 99.6299C13.6549 99.216 13.5834 98.8483 13.6802 98.5091C13.8066 98.0757 14.2068 97.7095 14.9046 97.3942C14.9091 97.3852 14.9121 97.3777 14.9165 97.3688C15.1471 96.9697 15.8375 95.7667 16.8105 95.5679C17.419 95.2645 18.0261 95.2929 18.6167 95.3243C18.8295 95.3348 19.0452 95.3452 19.255 95.3393L19.3458 95.3363L19.4216 95.3856C20.0004 95.7727 19.7995 96.4228 19.6389 96.9443C19.5451 97.2507 19.4469 97.566 19.499 97.7917L19.5154 97.8575L19.4975 97.9247C19.38 98.3985 19.3294 98.8902 19.2758 99.4102C19.2133 100.02 19.1479 100.646 18.9664 101.247C19.1315 101.945 19.0006 102.907 18.8845 103.761C18.8458 104.043 18.8101 104.308 18.7893 104.532C18.8905 104.949 18.7 105.171 18.5736 105.269C18.1183 105.621 17.1661 105.396 16.574 105.155C16.5174 105.391 16.4014 105.579 16.2377 105.704C16.086 105.816 15.9029 105.874 15.6902 105.874Z" fill="#040202"/>
<path fill-rule="evenodd" clip-rule="evenodd" d="M24.7288 97.4011C25.2168 96.9856 26.968 102.656 29.7963 104.649C27.8205 106.884 26.1006 108.68 24.9461 111.4C22.9345 110.862 20.929 109.103 19.761 107.943C21.1789 105.274 22.4049 101.976 21.5821 100.93L24.0102 100.589L17.8477 101.248C10.8431 98.51 22.6563 97.0005 24.7288 97.4011Z" fill="#FEFEFE"/>
<path fill-rule="evenodd" clip-rule="evenodd" d="M22.6148 109.963C23.3155 110.432 24.0535 110.826 24.7885 111.058C25.705 108.999 26.9146 107.697 28.3042 106.198C28.6241 105.853 28.9543 105.497 29.2951 105.116C27.5915 103.747 26.3477 101.044 25.5101 99.2248C25.2244 98.6016 24.903 97.9052 24.7379 97.6914L24.6754 97.6795C23.0224 97.3597 16.3064 98.2668 15.9464 99.5192C15.9047 99.6612 15.9271 100.181 17.8865 100.958L23.9791 100.308L24.049 100.87L22.0167 101.156C22.5939 102.837 20.8443 106.481 20.1078 107.888C20.8086 108.57 21.6775 109.333 22.6148 109.963ZM25.1113 111.738L24.8748 111.675C22.8885 111.143 20.8889 109.462 19.5618 108.144L19.413 107.996L19.5112 107.809C21.1686 104.69 21.9319 101.979 21.3948 101.154L17.8106 101.537L17.7466 101.511C15.9553 100.812 15.1891 100.11 15.4033 99.3623C15.93 97.5256 23.0939 96.8755 24.6947 97.1086C24.7483 97.0951 24.8048 97.0936 24.8614 97.1056C25.1768 97.1758 25.391 97.6137 26.0234 98.9872C26.8744 100.839 28.1628 103.638 29.8738 104.844L30.1327 105.026L29.9214 105.264C29.5048 105.736 29.1031 106.168 28.7193 106.585C27.3118 108.101 26.0977 109.41 25.2065 111.512L25.1113 111.738Z" fill="#FEFEFE"/>
<path fill-rule="evenodd" clip-rule="evenodd" d="M15.4024 97.0975C15.3547 97.915 16.051 99.0807 16.2326 99.0822L15.4024 97.0975Z" fill="#FEFEFE"/>
<path d="M15.4024 97.0975C15.3547 97.915 16.051 99.0807 16.2326 99.0822" stroke="#040202" stroke-width="0.25"/>
<path fill-rule="evenodd" clip-rule="evenodd" d="M16.229 99.3662C16.0817 99.3647 15.9716 99.2645 15.9017 99.1898C15.6056 98.87 15.0745 97.8642 15.1206 97.0811L15.683 97.114C15.6443 97.785 16.1904 98.7131 16.3406 98.8281C16.3406 98.8281 16.2975 99.3662 16.229 99.3662Z" fill="#040202"/>
<path fill-rule="evenodd" clip-rule="evenodd" d="M16.229 99.3662C16.0817 99.3647 15.9716 99.2645 15.9017 99.1898C15.6056 98.87 15.0745 97.8642 15.1206 97.0811L15.683 97.114C15.6443 97.785 16.1904 98.7131 16.3406 98.8281C16.3406 98.8281 16.2975 99.3662 16.229 99.3662Z" stroke="#040202" stroke-width="0.25"/>
<path fill-rule="evenodd" clip-rule="evenodd" d="M25.0572 92.8111C32.3028 75.3749 40.0097 68.9725 53.1664 62.8556C56.3266 57.4635 58.3887 51.777 68.6829 48.3023C35.7322 49.6085 30.6499 72.4816 20.073 91.1044C21.9566 91.6289 23.5366 92.1714 25.0572 92.8111Z" fill="#FEFEFE"/>
<path fill-rule="evenodd" clip-rule="evenodd" d="M20.4977 90.9305C22.1284 91.3968 23.5448 91.881 24.9046 92.4414C32.247 74.8962 40.1383 68.6119 52.9663 62.6354C53.3219 62.0272 53.6641 61.4159 54.0048 60.8047C56.482 56.372 59.0351 51.7974 66.8193 48.6859C40.9581 50.4285 32.976 66.3716 25.2513 81.8022C23.7382 84.827 22.1745 87.9505 20.4977 90.9305ZM25.2081 93.1827L24.9478 93.0721C23.4332 92.4355 21.8605 91.8974 19.9978 91.3789L19.6497 91.2802L19.8282 90.9649C21.566 87.9042 23.1832 84.6731 24.7469 81.5481C32.729 65.6035 40.9804 49.1163 68.6716 48.0193L68.7728 48.5708C59.7924 51.6031 57.2214 56.2076 54.4987 61.0826C54.1387 61.7238 53.7816 62.3634 53.4096 63.0001L53.365 63.0748L53.2847 63.1122C40.4776 69.0677 32.6353 75.3131 25.3167 92.9212L25.2081 93.1827Z" fill="#FEFEFE"/>
<path fill-rule="evenodd" clip-rule="evenodd" d="M25.3274 111.432C28.4354 114.626 31.1864 117.068 35.08 119.798C30.1613 114.022 37.7849 105.144 44.7538 108.651C44.3997 103.81 32.5016 106.787 29.8414 105.018C27.7957 107.242 26.6441 109.209 25.3274 111.432Z" fill="#FEFEFE"/>
<path fill-rule="evenodd" clip-rule="evenodd" d="M25.682 111.389C28.5639 114.339 30.992 116.475 33.9676 118.652C32.7208 116.249 33.0541 113.351 34.9555 110.909C36.8926 108.423 40.6107 106.58 44.3763 108.166C43.6756 105.924 39.4427 105.94 35.683 105.952C33.2058 105.964 31.0411 105.969 29.8954 105.378C28.0208 107.45 26.9258 109.285 25.682 111.389ZM34.9183 120.03C31.2479 117.457 28.5028 115.101 25.1255 111.631L24.9738 111.474L25.1404 111.193C26.4571 108.965 27.5968 107.04 29.6336 104.825L29.7972 104.649L29.9966 104.782C30.9295 105.401 33.2341 105.393 35.6816 105.384C39.9531 105.371 44.7974 105.351 45.0354 108.63L45.0711 109.128L44.6263 108.904C40.9782 107.067 37.2869 108.837 35.4004 111.259C33.8099 113.302 32.8279 116.717 35.2947 119.613L34.9183 120.03Z" fill="#FEFEFE"/>
<path fill-rule="evenodd" clip-rule="evenodd" d="M49.5711 110.581C50.08 109.907 49.7303 108.299 52.7684 110.374C53.2416 109.164 51.5187 106.463 55.7961 107.103C52.3533 115.403 63.6964 118.327 67.0485 119.395C66.3195 122.064 63.4703 122.595 61.432 123.941C61.7593 127.253 60.7416 129.822 54.0971 127.178C47.6548 129.809 47.5715 127.651 48.0893 125.043C54.6847 124.112 49.6262 115.752 49.5711 110.581Z" fill="#FEFEFE"/>
<path fill-rule="evenodd" clip-rule="evenodd" d="M48.3275 125.294C48.1311 126.347 48.0493 127.351 48.5864 127.798C49.2946 128.386 51.1142 128.09 53.9916 126.915L54.0958 126.873L54.1999 126.914C57.1904 128.105 59.2377 128.308 60.2806 127.514C61.0468 126.936 61.3295 125.776 61.151 123.969L61.1331 123.799L61.276 123.705C61.8547 123.322 62.4975 123.004 63.1209 122.695C64.6652 121.929 66.1292 121.205 66.6961 119.582C66.5756 119.544 66.4461 119.504 66.3107 119.464C63.3976 118.565 57.3362 116.696 55.4452 112.653C54.6954 111.05 53.9782 108.2 54.6969 106.273C53.6896 106.158 53.7149 107.319 53.3861 107.624C53.0305 107.955 53.0722 108.542 53.1168 109.164C53.148 109.622 53.1823 110.096 53.032 110.477L52.904 110.809L52.6109 110.609C51.257 109.684 50.6872 109.575 50.4477 109.652C50.2766 109.705 50.1918 109.894 50.0727 110.199C50.0117 110.358 49.9478 110.521 49.8555 110.667C49.8882 112.169 50.3495 113.986 50.7973 115.745C51.5605 118.745 52.3476 121.846 51.1053 123.709C50.5399 124.554 49.6308 125.074 48.3275 125.294ZM49.6636 128.656C49.0387 128.656 48.5641 128.516 48.2278 128.235C47.4289 127.573 47.5553 126.283 47.8113 124.989L47.8514 124.791L48.0493 124.763C49.2916 124.587 50.1382 124.14 50.6366 123.394C51.7391 121.741 50.9818 118.764 50.2498 115.886C49.7856 114.06 49.3065 112.172 49.2887 110.585V110.488L49.3482 110.41C49.4255 110.305 49.4836 110.153 49.546 109.993C49.6755 109.661 49.8362 109.249 50.2795 109.11C50.7735 108.957 51.4862 109.202 52.5737 109.905C52.5856 109.694 52.5708 109.453 52.5529 109.204C52.5038 108.51 52.4503 107.723 53.0037 107.207C53.514 106.734 52.7835 103.658 54.2044 103.87L55.0257 104.735L54.2044 103.87C53.4144 105.773 55.234 110.864 55.957 112.411C57.7409 116.228 63.6416 118.047 66.4759 118.92C66.7184 118.996 66.9401 119.065 67.135 119.126L67.3924 119.208L67.321 119.471C66.7601 121.524 65.0357 122.378 63.3708 123.204C62.8144 123.479 62.243 123.763 61.7283 124.088C61.8919 126.009 61.5289 127.28 60.6228 127.967C59.4043 128.888 57.2708 128.731 54.0988 127.484C52.1601 128.268 50.7036 128.656 49.6636 128.656Z" fill="#040202"/>
<path d="M48.3275 125.294L48.2029 124.554L47.6862 124.641L47.5902 125.156L48.3275 125.294ZM48.5864 127.798L48.1067 128.375L48.1076 128.376L48.5864 127.798ZM53.9916 126.915L53.712 126.219L53.7082 126.221L53.9916 126.915ZM54.0958 126.873L54.3667 126.174L54.0908 126.067L53.8161 126.177L54.0958 126.873ZM54.1999 126.914L54.4775 126.217L54.4709 126.214L54.1999 126.914ZM60.2806 127.514L59.8288 126.916L59.8265 126.917L60.2806 127.514ZM61.151 123.969L61.8974 123.896L61.8969 123.891L61.151 123.969ZM61.1331 123.799L60.7204 123.173L60.3397 123.424L60.3872 123.877L61.1331 123.799ZM61.276 123.705L61.6887 124.331L61.6896 124.331L61.276 123.705ZM63.1209 122.695L62.7879 122.023L62.7875 122.023L63.1209 122.695ZM66.6961 119.582L67.4041 119.829L67.6603 119.095L66.9182 118.865L66.6961 119.582ZM66.3107 119.464L66.0897 120.18L66.0965 120.182L66.3107 119.464ZM55.4452 112.653L54.7658 112.971L54.7659 112.971L55.4452 112.653ZM54.6969 106.273L55.3996 106.535L55.7347 105.637L54.782 105.528L54.6969 106.273ZM53.3861 107.624L52.8762 107.074L52.8757 107.075L53.3861 107.624ZM53.1168 109.164L53.8651 109.113L53.8649 109.11L53.1168 109.164ZM53.032 110.477L52.3343 110.202L52.3322 110.207L53.032 110.477ZM52.904 110.809L52.4809 111.428L53.263 111.963L53.6038 111.079L52.904 110.809ZM52.6109 110.609L52.1878 111.228L52.1878 111.228L52.6109 110.609ZM50.4477 109.652L50.667 110.37L50.6791 110.366L50.4477 109.652ZM50.0727 110.199L49.3741 109.926L49.3728 109.93L50.0727 110.199ZM49.8555 110.667L49.2209 110.267L49.1008 110.458L49.1057 110.683L49.8555 110.667ZM50.7973 115.745L51.5241 115.56L51.5241 115.56L50.7973 115.745ZM51.1053 123.709L51.7285 124.127L51.7293 124.125L51.1053 123.709ZM48.2278 128.235L48.7087 127.659L48.7064 127.657L48.2278 128.235ZM47.8113 124.989L47.0763 124.839L47.0755 124.843L47.8113 124.989ZM47.8514 124.791L47.7449 124.049L47.2219 124.124L47.1165 124.642L47.8514 124.791ZM48.0493 124.763L47.9439 124.02L47.9428 124.021L48.0493 124.763ZM50.6366 123.394L51.2602 123.811L51.2606 123.81L50.6366 123.394ZM50.2498 115.886L49.5229 116.071L49.5229 116.071L50.2498 115.886ZM49.2887 110.585H48.5386L48.5387 110.593L49.2887 110.585ZM49.2887 110.488L48.6932 110.032L48.5387 110.233V110.488H49.2887ZM49.3482 110.41L49.9437 110.866L49.9512 110.856L49.3482 110.41ZM49.546 109.993L50.2446 110.266L50.2448 110.266L49.546 109.993ZM50.2795 109.11L50.0584 108.393L50.0552 108.394L50.2795 109.11ZM52.5737 109.905L52.1668 110.535L53.2498 111.234L53.3226 109.947L52.5737 109.905ZM52.5529 109.204L51.8048 109.257L51.8048 109.257L52.5529 109.204ZM53.0037 107.207L52.4935 106.658L52.4925 106.659L53.0037 107.207ZM54.2044 103.87L54.7484 103.354L54.5706 103.166L54.3152 103.128L54.2044 103.87ZM54.2044 103.87L54.7484 103.354L53.9542 102.517L53.5117 103.582L54.2044 103.87ZM55.957 112.411L56.6365 112.094L56.6365 112.093L55.957 112.411ZM66.4759 118.92L66.7008 118.204L66.6966 118.203L66.4759 118.92ZM67.135 119.126L67.3631 118.411L67.3599 118.41L67.135 119.126ZM67.3924 119.208L68.1162 119.405L68.3042 118.712L67.6205 118.494L67.3924 119.208ZM67.321 119.471L68.0445 119.669L68.0448 119.668L67.321 119.471ZM63.3708 123.204L63.7031 123.877L63.7043 123.876L63.3708 123.204ZM61.7283 124.088L61.3285 123.453L60.9422 123.696L60.981 124.151L61.7283 124.088ZM60.6228 127.967L61.0749 128.566L61.0761 128.565L60.6228 127.967ZM54.0988 127.484L54.373 126.786L54.0949 126.677L53.8178 126.789L54.0988 127.484ZM47.5902 125.156C47.49 125.694 47.4061 126.28 47.4329 126.811C47.459 127.33 47.5989 127.952 48.1067 128.375L49.0661 127.222C49.0368 127.197 48.9491 127.095 48.931 126.736C48.9135 126.389 48.9686 125.947 49.0648 125.431L47.5902 125.156ZM48.1076 128.376C48.7341 128.895 49.668 128.909 50.5964 128.758C51.5804 128.597 52.8146 128.206 54.2751 127.609L53.7082 126.221C52.2913 126.799 51.1769 127.143 50.3547 127.277C49.4769 127.421 49.1469 127.289 49.0652 127.221L48.1076 128.376ZM54.2713 127.611L54.3754 127.569L53.8161 126.177L53.712 126.219L54.2713 127.611ZM53.8248 127.573L53.929 127.613L54.4709 126.214L54.3667 126.174L53.8248 127.573ZM53.9224 127.61C55.4502 128.219 56.7829 128.594 57.8968 128.705C58.999 128.814 59.9969 128.673 60.7348 128.111L59.8265 126.917C59.5214 127.15 58.9742 127.304 58.0444 127.212C57.1264 127.121 55.9402 126.799 54.4774 126.217L53.9224 127.61ZM60.7325 128.113C61.8402 127.277 62.0793 125.737 61.8974 123.896L60.4046 124.043C60.5798 125.816 60.2535 126.595 59.8288 126.916L60.7325 128.113ZM61.8969 123.891L61.8791 123.721L60.3872 123.877L60.4051 124.048L61.8969 123.891ZM61.5459 124.425L61.6887 124.331L60.8632 123.079L60.7204 123.173L61.5459 124.425ZM61.6896 124.331C62.2228 123.978 62.8226 123.68 63.4543 123.366L62.7875 122.023C62.1723 122.328 61.4866 122.667 60.8624 123.079L61.6896 124.331ZM63.4538 123.367C64.9393 122.631 66.7199 121.788 67.4041 119.829L65.988 119.334C65.5386 120.621 64.3911 121.228 62.7879 122.023L63.4538 123.367ZM66.9182 118.865C66.7993 118.828 66.6652 118.787 66.5249 118.745L66.0965 120.182C66.227 120.221 66.3519 120.26 66.474 120.298L66.9182 118.865ZM66.5317 118.747C65.0711 118.297 62.8867 117.621 60.8369 116.57C58.7705 115.511 56.9638 114.13 56.1246 112.335L54.7659 112.971C55.8176 115.219 57.9871 116.795 60.1525 117.905C62.3343 119.024 64.6373 119.732 66.0898 120.18L66.5317 118.747ZM56.1246 112.335C55.7785 111.595 55.4329 110.549 55.2611 109.467C55.0872 108.372 55.1048 107.325 55.3996 106.535L53.9942 106.011C53.5703 107.147 53.5871 108.489 53.7796 109.702C53.9742 110.927 54.3621 112.108 54.7658 112.971L56.1246 112.335ZM54.782 105.528C54.3766 105.482 54.0053 105.561 53.6938 105.771C53.401 105.969 53.2277 106.238 53.1194 106.45C53.0175 106.649 52.9341 106.883 52.891 106.991C52.8231 107.162 52.8156 107.13 52.8762 107.074L53.896 108.174C54.121 107.966 54.2336 107.675 54.2849 107.545C54.3611 107.354 54.3959 107.248 54.4547 107.133C54.5071 107.03 54.5369 107.012 54.5329 107.015C54.5103 107.03 54.5135 107.007 54.6117 107.018L54.782 105.528ZM52.8757 107.075C52.5115 107.413 52.3937 107.849 52.3556 108.205C52.3186 108.55 52.3477 108.924 52.3687 109.217L53.8649 109.11C53.8413 108.781 53.8272 108.551 53.8471 108.364C53.8563 108.279 53.8707 108.228 53.8821 108.2C53.8874 108.187 53.8915 108.18 53.8934 108.178C53.895 108.175 53.8959 108.174 53.8965 108.174L52.8757 107.075ZM52.3685 109.215C52.4034 109.726 52.4097 110.011 52.3343 110.202L53.7297 110.752C53.9548 110.182 53.8927 109.519 53.8651 109.113L52.3685 109.215ZM52.3322 110.207L52.2043 110.539L53.6038 111.079L53.7318 110.747L52.3322 110.207ZM53.3271 110.19L53.034 109.989L52.1878 111.228L52.4809 111.428L53.3271 110.19ZM53.0341 109.989C52.3345 109.511 51.8004 109.218 51.3838 109.056C50.9902 108.902 50.5854 108.819 50.2162 108.939L50.6791 110.366C50.5495 110.408 50.5493 110.34 50.839 110.453C51.1057 110.557 51.5335 110.781 52.1878 111.228L53.0341 109.989ZM50.2284 108.935C49.9062 109.034 49.7154 109.256 49.6044 109.434C49.5038 109.595 49.4294 109.785 49.3741 109.926L50.7714 110.472C50.8006 110.397 50.8229 110.342 50.8427 110.297C50.8627 110.253 50.8738 110.233 50.877 110.228C50.8799 110.223 50.8659 110.247 50.8301 110.279C50.7901 110.314 50.7344 110.349 50.6669 110.369L50.2284 108.935ZM49.3728 109.93C49.3091 110.095 49.2686 110.192 49.2209 110.267L50.4901 111.067C50.627 110.849 50.7143 110.62 50.7726 110.469L49.3728 109.93ZM49.1057 110.683C49.1407 112.289 49.6294 114.198 50.0705 115.93L51.5241 115.56C51.0695 113.775 50.6358 112.049 50.6053 110.651L49.1057 110.683ZM50.0705 115.93C50.4556 117.444 50.8268 118.911 50.957 120.227C51.0884 121.554 50.9568 122.58 50.4812 123.293L51.7293 124.125C52.4961 122.975 52.5921 121.518 52.4497 120.079C52.3062 118.629 51.9022 117.046 51.5241 115.56L50.0705 115.93ZM50.4821 123.292C50.0628 123.918 49.3659 124.358 48.2029 124.554L48.4522 126.033C49.8958 125.79 51.017 125.189 51.7285 124.127L50.4821 123.292ZM49.6636 127.906C49.143 127.906 48.8639 127.789 48.7087 127.659L47.7469 128.81C48.2643 129.243 48.9344 129.406 49.6636 129.406V127.906ZM48.7064 127.657C48.5272 127.509 48.4016 127.257 48.3724 126.801C48.3428 126.337 48.4209 125.772 48.547 125.134L47.0755 124.843C46.9457 125.499 46.8326 126.226 46.8755 126.897C46.9188 127.574 47.1295 128.299 47.7493 128.812L48.7064 127.657ZM48.5462 125.138L48.5863 124.941L47.1165 124.642L47.0763 124.839L48.5462 125.138ZM47.958 125.534L48.1558 125.505L47.9428 124.021L47.7449 124.049L47.958 125.534ZM48.1547 125.506C49.5203 125.312 50.6015 124.796 51.2602 123.811L50.0131 122.977C49.6749 123.483 49.063 123.862 47.9439 124.02L48.1547 125.506ZM51.2606 123.81C51.9645 122.755 52.0242 121.37 51.8767 120.018C51.7268 118.645 51.3392 117.127 50.9766 115.701L49.5229 116.071C49.8924 117.523 50.2494 118.933 50.3855 120.181C50.5241 121.45 50.4112 122.38 50.0127 122.978L51.2606 123.81ZM50.9767 115.701C50.5056 113.848 50.0552 112.055 50.0386 110.576L48.5387 110.593C48.5578 112.289 49.0656 114.271 49.5229 116.071L50.9767 115.701ZM50.0387 110.585V110.488H48.5387V110.585H50.0387ZM49.8841 110.944L49.9436 110.866L48.7527 109.954L48.6932 110.032L49.8841 110.944ZM49.9512 110.856C50.1019 110.652 50.1976 110.386 50.2446 110.266L48.8475 109.72C48.8135 109.807 48.7911 109.865 48.7686 109.915C48.7458 109.965 48.7376 109.974 48.7451 109.964L49.9512 110.856ZM50.2448 110.266C50.3145 110.087 50.3583 109.983 50.4123 109.905C50.4534 109.846 50.4783 109.833 50.5039 109.825L50.0552 108.394C49.2194 108.656 48.9539 109.447 48.8473 109.72L50.2448 110.266ZM50.5007 109.826C50.5368 109.815 50.6631 109.793 50.9588 109.896C51.2528 109.997 51.645 110.198 52.1668 110.535L52.9806 109.275C52.4149 108.909 51.907 108.636 51.4492 108.478C50.9933 108.32 50.5162 108.252 50.0584 108.393L50.5007 109.826ZM53.3226 109.947C53.3376 109.681 53.3184 109.394 53.301 109.15L51.8048 109.257C51.8231 109.513 51.8337 109.707 51.8249 109.863L53.3226 109.947ZM53.301 109.151C53.2755 108.79 53.2584 108.5 53.2948 108.245C53.3286 108.009 53.4007 107.863 53.5149 107.756L52.4925 106.659C52.0533 107.068 51.8755 107.573 51.8099 108.033C51.747 108.474 51.7813 108.925 51.8048 109.257L53.301 109.151ZM53.514 107.757C53.7426 107.545 53.8306 107.267 53.872 107.098C53.9187 106.907 53.9411 106.699 53.9548 106.51C53.9688 106.318 53.9758 106.109 53.9828 105.914C53.9899 105.713 53.9971 105.521 54.0106 105.336C54.0397 104.939 54.0927 104.699 54.1535 104.583C54.176 104.54 54.1748 104.564 54.1288 104.589C54.0761 104.619 54.0477 104.605 54.0936 104.612L54.3152 103.128C54.0059 103.082 53.6895 103.118 53.4028 103.277C53.1228 103.432 52.9416 103.664 52.8248 103.887C52.607 104.303 52.5443 104.822 52.5146 105.227C52.4987 105.443 52.4908 105.663 52.4837 105.861C52.4765 106.065 52.4703 106.243 52.4588 106.402C52.447 106.564 52.4317 106.673 52.4151 106.741C52.3933 106.83 52.3924 106.751 52.4935 106.658L53.514 107.757ZM53.6604 104.386L54.4817 105.252L55.5697 104.219L54.7484 103.354L53.6604 104.386ZM55.5697 104.219L54.7484 103.354L53.6604 104.386L54.4817 105.252L55.5697 104.219ZM53.5117 103.582C53.2422 104.232 53.2227 105.057 53.2964 105.858C53.3724 106.683 53.5587 107.59 53.7878 108.464C54.2452 110.21 54.8959 111.912 55.2776 112.729L56.6365 112.093C56.2951 111.363 55.6745 109.746 55.2388 108.084C55.0213 107.254 54.8557 106.434 54.7901 105.721C54.7223 104.984 54.7716 104.46 54.897 104.158L53.5117 103.582ZM55.2776 112.729C56.2778 114.869 58.3858 116.374 60.4833 117.438C62.6004 118.512 64.8422 119.201 66.2552 119.636L66.6966 118.203C65.2753 117.765 63.1496 117.109 61.1618 116.1C59.1545 115.082 57.4202 113.77 56.6365 112.094L55.2776 112.729ZM66.251 119.635C66.5373 119.725 66.6751 119.767 66.91 119.841L67.3599 118.41C67.205 118.362 66.8995 118.267 66.7007 118.204L66.251 119.635ZM66.9068 119.84L67.1642 119.922L67.6205 118.494L67.3631 118.411L66.9068 119.84ZM66.6686 119.011L66.5972 119.275L68.0448 119.668L68.1162 119.405L66.6686 119.011ZM66.5975 119.273C66.1379 120.956 64.7529 121.681 63.0373 122.532L63.7043 123.876C65.3184 123.075 67.3822 122.093 68.0445 119.669L66.5975 119.273ZM63.0385 122.532C62.4874 122.804 61.8813 123.105 61.3285 123.453L62.128 124.722C62.6048 124.422 63.1414 124.154 63.7031 123.877L63.0385 122.532ZM60.981 124.151C61.1381 125.997 60.7596 126.922 60.1695 127.37L61.0761 128.565C62.2982 127.637 62.6457 126.022 62.4756 124.024L60.981 124.151ZM60.1707 127.369C59.7567 127.682 59.1231 127.862 58.1486 127.79C57.172 127.718 55.9246 127.396 54.373 126.786L53.8245 128.183C55.4449 128.819 56.8503 129.199 58.0381 129.286C59.2279 129.374 60.2704 129.173 61.0749 128.566L60.1707 127.369ZM53.8178 126.789C51.8944 127.566 50.5509 127.906 49.6636 127.906V129.406C50.8562 129.406 52.4258 128.969 54.3797 128.18L53.8178 126.789Z" fill="#040202"/>
<path fill-rule="evenodd" clip-rule="evenodd" d="M60.6165 95.8737C59.2715 95.8214 56.4551 96.9139 56.522 100.596C60.0437 107.078 66.9546 109.753 73.5724 112.752C75.0929 112.646 76.5183 109.856 76.0005 107.951C63.7662 106.771 60.4082 98.761 60.6165 95.8737Z" fill="#040202"/>
<path fill-rule="evenodd" clip-rule="evenodd" d="M86.6677 56.8412L86.3909 56.3599C86.3359 56.2628 86.2451 56.1926 86.1365 56.1627C86.0249 56.1343 85.9133 56.1507 85.8181 56.206C85.7036 56.2778 85.5682 56.2359 85.0623 55.8563C84.6442 55.5425 84.122 55.1614 83.4927 55.2884C83.1118 55.3676 82.7904 55.6097 82.5122 56.0282C82.35 56.1014 82.2801 56.088 82.2697 56.085C82.1016 56.0371 81.8442 55.5365 81.6701 55.2002C81.3056 54.4978 80.8548 53.6235 80.0171 53.4352C79.6586 53.2888 79.2702 53.2185 78.8923 53.2275C78.7808 53.229 78.6751 53.2768 78.5992 53.359C78.5234 53.4397 78.4817 53.5488 78.4862 53.6609L78.504 54.2154C78.507 54.3274 78.5561 54.4336 78.6379 54.5098C78.7168 54.586 78.8194 54.6129 78.9385 54.6219C79.1557 54.6204 79.3179 54.6562 79.5931 54.7594C79.916 54.8371 80.1927 55.3736 80.4397 55.8518C80.7714 56.49 81.1434 57.2133 81.8873 57.427C82.3337 57.557 82.8306 57.4659 83.4183 57.1191C83.4808 57.0818 83.57 56.9652 83.6057 56.9024C83.6935 56.7485 83.756 56.6843 83.7605 56.6633C83.8616 56.6992 84.0848 56.8651 84.2321 56.9757C84.6249 57.2701 85.1114 57.6362 85.7244 57.6362C85.9937 57.6362 86.2615 57.5615 86.5129 57.4151C86.6111 57.3598 86.681 57.2686 86.7078 57.1595C86.7376 57.0534 86.7227 56.9368 86.6677 56.8412Z" fill="#040202"/>
<path fill-rule="evenodd" clip-rule="evenodd" d="M71.8231 71.6212C72.6667 72.1233 73.8093 72.0247 74.7109 71.4089C75.3805 72.0321 76.3193 72.4342 77.1599 72.4342C77.514 72.4342 77.8353 72.3654 78.1106 72.2279C78.3233 72.1218 78.7503 71.8438 78.9378 71.2595C79.7219 71.5987 80.5461 71.4478 81.3019 70.8276C82.7868 69.7306 82.5725 68.5859 82.4282 67.8267C82.3062 67.1751 82.2616 66.9315 82.8374 66.5085C82.8374 66.5085 82.9207 66.4473 82.9222 66.4473C83.0025 66.386 83.0829 66.1977 83.1052 66.099C83.6215 63.811 82.1143 63.3327 81.4656 63.1549C81.7617 62.0281 81.6367 61.1822 81.0907 60.6427C80.3825 59.9388 79.1327 59.8924 77.2194 60.4857C76.2925 60.6203 75.373 60.012 75.1126 59.3469C74.949 58.9225 75.0814 58.5698 75.5233 58.2664C75.7152 58.1364 75.7628 57.8749 75.6349 57.6836L75.3254 57.2248C75.2629 57.1321 75.1647 57.0679 75.0561 57.0484C74.949 57.029 74.8344 57.0514 74.7422 57.1127C73.7721 57.7762 73.4195 58.8284 73.8227 59.8566C74.2839 61.0417 75.7584 62.1132 77.5244 61.8442C79.5181 61.2345 80.0135 61.5304 80.1132 61.6335C80.2828 61.8024 80.2724 62.2821 80.1266 62.8291C79.8885 63.255 79.9361 63.5883 80.0195 63.7901C80.2129 64.2638 80.6756 64.3878 81.0505 64.4895C81.6441 64.6494 81.9313 64.7256 81.7944 65.5565C80.7559 66.4487 80.933 67.3918 81.0639 68.0867C81.1904 68.7562 81.2603 69.1254 80.4509 69.7247C79.9138 70.164 79.4764 70.2283 78.6893 69.2868C78.5599 69.1328 78.3382 69.0925 78.1627 69.1926L77.691 69.4616C77.5155 69.5633 77.4351 69.7755 77.505 69.9668C77.5943 70.2238 77.7743 70.838 77.4961 70.977C77.0587 71.1937 75.8952 70.859 75.3611 70.0385L75.1617 69.7336C75.0903 69.6245 74.9713 69.5543 74.8419 69.5453C74.699 69.5304 74.5815 69.5887 74.4967 69.6888L74.2601 69.9608C73.7959 70.4913 73.0014 70.7006 72.5313 70.4196C71.9942 70.0998 71.9496 69.1478 72.4123 67.873C72.4926 67.6548 72.381 67.4127 72.1638 67.3335L71.646 67.1422C71.5434 67.1048 71.4244 67.1093 71.3247 67.1571C71.2265 67.2035 71.1476 67.2886 71.1104 67.3933C70.0809 70.2178 71.2652 71.2909 71.8231 71.6212Z" fill="#040202"/>
<path fill-rule="evenodd" clip-rule="evenodd" d="M82.8058 93.3051C82.0678 93.4919 81.8089 94.1929 81.6006 94.7578C81.3492 95.4393 81.1959 95.792 80.696 95.8592C78.9226 94.8534 78.9598 94.006 79.0103 92.8388C79.0371 92.2306 79.0654 91.5401 78.8065 90.8258L78.7649 90.7137C78.747 90.6659 78.7217 90.621 78.6875 90.5837C79.8465 90.3177 81.5456 89.9231 81.5828 87.8458C83.0542 87.9564 83.7535 87.4124 84.0957 86.9013C84.5614 86.2123 84.5822 85.2543 84.1701 84.2844C84.3501 84.1275 84.5048 83.9227 84.6313 83.6791C85.0777 82.8108 85.1491 81.403 84.3933 80.5078C84.0793 80.1342 83.4961 79.7442 82.6153 79.7472C82.66 78.9536 82.3728 78.1525 81.8268 77.628C81.3194 77.1393 79.8539 76.2127 77.1268 78.0016C75.8413 77.6175 74.9367 77.6026 74.291 77.9448C73.7003 78.2586 73.4563 78.7952 73.2971 79.2809C73.2302 78.9147 73.0234 78.4798 72.519 78.0046C73.434 77.0825 73.1573 76.123 73.0383 75.8271C72.6008 74.7361 71.1711 73.9037 69.8335 73.9037H69.768C69.4422 73.1326 69.0494 72.6723 68.5495 72.4645C67.8012 72.1537 67.087 72.5138 66.4517 72.8337C65.5367 73.2955 64.8106 73.6586 63.857 72.7799C63.2856 72.0595 63.1592 71.3287 63.4701 70.5471C64.0519 69.0855 66.1869 67.6642 68.2341 67.3773C68.3442 67.3623 68.4439 67.3041 68.5108 67.2144C68.5778 67.1247 68.6061 67.0126 68.5912 66.902L68.5153 66.3536C68.4841 66.1249 68.2862 65.968 68.0422 65.9964C65.8551 66.3028 63.058 67.8197 62.1787 70.03C61.6803 71.2839 61.8945 72.5452 62.8408 73.7274C64.5771 75.3399 66.1408 74.5523 67.0781 74.0786C67.4441 73.8947 67.8711 73.696 68.0184 73.7543C68.069 73.7752 68.3308 73.9261 68.6537 74.8811L68.734 75.1232C68.801 75.3324 69.0137 75.452 69.2324 75.3997L69.4779 75.3384C70.2605 75.1486 71.4865 75.6941 71.7483 76.3487C71.8837 76.6879 71.6412 77.0391 71.0282 77.3948L70.6369 77.622C70.5105 77.6952 70.4316 77.8282 70.4286 77.9747C70.4257 78.1212 70.4971 78.2586 70.6191 78.3379L70.997 78.5844C71.8406 79.1344 71.9507 79.514 71.9403 79.5648C71.8554 79.7397 71.0595 79.9653 69.9749 79.5932C69.7889 79.5349 69.5865 79.6022 69.4854 79.7681L69.1997 80.2269C69.097 80.3913 69.1223 80.605 69.2577 80.744C69.6133 81.1056 69.7918 81.4419 69.7011 81.5794C69.408 82.0218 67.7654 82.2743 66.843 81.9007C66.6734 81.832 66.602 81.7707 66.5886 81.7707C66.5886 81.7707 66.5871 81.7707 66.5871 81.7722C66.6273 81.5435 66.474 81.3253 66.2479 81.285L65.7033 81.1863C65.5903 81.1654 65.4802 81.1908 65.3909 81.2551C65.2987 81.3179 65.2362 81.415 65.2183 81.5256C65.0904 82.24 65.504 82.8647 66.3252 83.1964C66.7686 83.3743 67.3563 83.4729 67.9782 83.4729C68.4811 83.4729 70.1712 83.3922 70.8601 82.3505C70.8839 82.3132 70.9107 82.2624 70.936 82.2131C70.9851 82.4357 71.0431 82.6584 71.1071 82.8796C71.4954 84.2411 71.8986 85.6459 69.0479 86.8415C67.7907 87.248 67.334 86.6293 66.4993 84.4234C66.3833 84.117 66.2672 83.8092 66.1452 83.5148C66.1021 83.4101 66.0202 83.3294 65.9176 83.2861C65.8149 83.2457 65.7004 83.2442 65.5977 83.2891L65.0874 83.5028C64.9832 83.5476 64.9044 83.6298 64.8612 83.7329C64.8181 83.8361 64.8211 83.9511 64.8627 84.0543C64.9817 84.3352 65.0918 84.6266 65.2019 84.9181C65.861 86.6621 66.7627 89.0473 69.5285 88.1506C73.5754 86.4574 72.8672 83.978 72.4416 82.494C72.3479 82.1667 72.2066 81.6706 72.2467 81.557C72.2482 81.554 72.4342 81.3732 73.4608 81.4075L73.6007 81.4105C73.745 81.4135 73.861 81.3537 73.9429 81.2491L74.0321 81.134C74.3059 80.7739 74.4264 80.3569 74.5365 79.9728C74.6644 79.5349 74.7463 79.2824 74.9412 79.1778C75.0929 79.0985 75.5988 78.9655 77.0226 79.4303L77.1536 79.4737C77.2785 79.514 77.4154 79.4946 77.521 79.4184L77.6356 79.3392C79.0699 78.3304 80.2809 78.0733 80.8656 78.6353C81.2659 79.0208 81.3522 79.7755 81.0501 80.2538L80.641 80.9039C80.5443 81.0533 80.5547 81.2461 80.6618 81.3851C80.7719 81.5256 80.9564 81.5839 81.1201 81.5286L81.8506 81.2925C82.3475 81.131 83.0096 81.0205 83.3324 81.409C83.6627 81.8021 83.633 82.5822 83.3979 83.035C83.3354 83.1531 83.2536 83.2398 83.2595 83.2502L82.6733 83.1979C82.5171 83.186 82.3564 83.2637 82.2761 83.4042C82.1928 83.5461 82.2002 83.7195 82.291 83.8555L82.6228 84.3397C82.9992 84.8912 83.2209 85.7087 82.9456 86.1196C82.7001 86.4858 81.9756 86.565 80.9653 86.3393L80.5577 86.2482C80.4238 86.2228 80.2794 86.2571 80.1768 86.3558C80.0756 86.4529 80.031 86.5949 80.0548 86.7339L80.1277 87.1464C80.4193 88.7514 79.7364 88.9098 78.3736 89.2237C77.7457 89.3687 77.0301 89.5316 76.4692 89.9306L76.0719 90.2145C75.9484 90.3012 75.8815 90.4492 75.8949 90.5986C75.9127 90.7511 76.0079 90.8811 76.1433 90.9423L77.5776 91.576C77.6564 91.9422 77.6401 92.3307 77.6207 92.7791C77.5657 94.0912 77.4957 95.7247 80.2095 97.1848L80.2705 97.2192C80.333 97.2521 80.4684 97.267 80.5428 97.267H80.5487C82.166 97.2416 82.6287 95.9877 82.9069 95.2315C82.9843 95.0223 83.1018 94.707 83.145 94.6606C83.1375 94.6621 83.6092 94.6233 85.3053 96.1222C85.3871 96.1955 85.4987 96.2313 85.6073 96.2268C85.7174 96.2179 85.8201 96.1686 85.8945 96.0834L86.259 95.6679C86.4122 95.4931 86.3944 95.2285 86.2218 95.0746C84.5807 93.6235 83.5928 93.1079 82.8058 93.3051Z" fill="#040202"/>
<path fill-rule="evenodd" clip-rule="evenodd" d="M19.0871 95.6861C17.7525 95.5038 16.9818 97.7665 17.5918 98.2148L19.0871 95.6861Z" fill="#FEFEFE"/>
<path d="M19.0871 95.6861C17.7525 95.5038 16.9818 97.7665 17.5918 98.2148" stroke="#040202" stroke-width="0.25" stroke-linecap="round" stroke-linejoin="round"/>
<path fill-rule="evenodd" clip-rule="evenodd" d="M17.4263 98.4445C16.9889 98.1232 17.041 97.3625 17.2865 96.7512C17.5662 96.0518 18.2178 95.2807 19.1254 95.4047L19.0495 95.9666C18.4678 95.8874 18.0155 96.4523 17.8102 96.9635C17.5974 97.4895 17.645 97.9035 17.7596 97.9872L17.4263 98.4445Z" fill="#040202"/>
<path fill-rule="evenodd" clip-rule="evenodd" d="M17.4263 98.4445C16.9889 98.1232 17.041 97.3625 17.2865 96.7512C17.5662 96.0518 18.2178 95.2807 19.1254 95.4047L19.0495 95.9666C18.4678 95.8874 18.0155 96.4523 17.8102 96.9635C17.5974 97.4895 17.645 97.9035 17.7596 97.9872L17.4263 98.4445Z" stroke="#040202" stroke-width="0.25" stroke-linecap="round" stroke-linejoin="round"/>
<path fill-rule="evenodd" clip-rule="evenodd" d="M13.5892 101.919C14.3197 103.24 15.4162 104.105 16.7032 104.728C17.5929 104.796 18.1895 104.328 18.1032 103.205C15.9533 102.085 14.9029 100.387 14.2616 99.4185C13.6293 100.086 13.0625 101.182 13.5892 101.919Z" fill="#FEFEFE"/>
<path fill-rule="evenodd" clip-rule="evenodd" d="M16.7769 104.449C17.0328 104.462 17.3601 104.425 17.5729 104.21C17.7499 104.032 17.8362 103.754 17.8288 103.38C15.9244 102.343 14.8784 100.862 14.2327 99.8861C13.7611 100.494 13.4665 101.261 13.8191 101.754L13.8355 101.781C14.4603 102.911 15.423 103.784 16.7769 104.449ZM16.8661 105.018C16.8066 105.018 16.7456 105.015 16.6817 105.011L16.5805 104.984C15.0986 104.266 14.0408 103.313 13.349 102.07C12.7702 101.236 13.2835 100.04 14.0571 99.2225L14.2044 98.8354L14.5868 99.3989C15.2474 100.402 16.2457 101.919 18.2334 102.954L18.4536 103.016L18.3852 103.183C18.4328 103.808 18.3406 104.337 18.2305 104.819C18.1457 105.189 17.3259 105.018 16.8661 105.018Z" fill="#040202"/>
<path d="M16.7769 104.449L16.7218 104.561L16.7447 104.572L16.7703 104.574L16.7769 104.449ZM17.5729 104.21L17.4843 104.121L17.484 104.122L17.5729 104.21ZM17.8288 103.38L17.9537 103.378L17.9523 103.305L17.8885 103.27L17.8288 103.38ZM14.2327 99.8861L14.337 99.8171L14.2408 99.6717L14.1339 99.8095L14.2327 99.8861ZM13.8191 101.754L13.9262 101.689L13.9208 101.681L13.8191 101.754ZM13.8355 101.781L13.9449 101.721L13.9423 101.716L13.8355 101.781ZM16.6817 105.011L16.6495 105.131L16.661 105.135L16.6729 105.135L16.6817 105.011ZM16.5805 104.984L16.526 105.096L16.5368 105.101L16.5484 105.105L16.5805 104.984ZM13.349 102.07L13.4587 102.008L13.4516 101.998L13.349 102.07ZM14.0571 99.2225L14.1479 99.3084L14.1651 99.2903L14.174 99.267L14.0571 99.2225ZM14.2044 98.8354L14.3079 98.7653L14.173 98.5666L14.0876 98.791L14.2044 98.8354ZM14.5868 99.3989L14.6912 99.3301L14.6902 99.3287L14.5868 99.3989ZM18.2334 102.954L18.1757 103.065L18.1873 103.071L18.1999 103.075L18.2334 102.954ZM18.4536 103.016L18.5693 103.063L18.6225 102.933L18.4872 102.895L18.4536 103.016ZM18.3852 103.183L18.2695 103.136L18.2583 103.163L18.2606 103.192L18.3852 103.183ZM18.2305 104.819L18.3523 104.847L18.3523 104.847L18.2305 104.819ZM16.7703 104.574C17.0352 104.587 17.4099 104.552 17.6617 104.298L17.484 104.122C17.3103 104.297 17.0303 104.337 16.7834 104.324L16.7703 104.574ZM17.6614 104.298C17.8719 104.086 17.9615 103.769 17.9537 103.378L17.7038 103.383C17.7109 103.739 17.6279 103.977 17.4843 104.121L17.6614 104.298ZM17.8885 103.27C16.0119 102.248 14.9799 100.789 14.337 99.8171L14.1285 99.955C14.777 100.935 15.8368 102.438 17.769 103.49L17.8885 103.27ZM14.1339 99.8095C13.8914 100.122 13.6902 100.481 13.5961 100.831C13.5021 101.18 13.5113 101.539 13.7174 101.827L13.9208 101.681C13.7743 101.477 13.7544 101.205 13.8375 100.896C13.9205 100.587 14.1024 100.258 14.3315 99.9627L14.1339 99.8095ZM13.7123 101.819L13.7287 101.846L13.9423 101.716L13.9259 101.689L13.7123 101.819ZM13.7261 101.842C14.3653 102.997 15.3489 103.887 16.7218 104.561L16.832 104.337C15.497 103.681 14.5554 102.824 13.9449 101.721L13.7261 101.842ZM16.8661 104.893C16.8107 104.893 16.7529 104.89 16.6904 104.886L16.6729 105.135C16.7384 105.14 16.8026 105.143 16.8661 105.143V104.893ZM16.7138 104.89L16.6126 104.863L16.5484 105.105L16.6495 105.131L16.7138 104.89ZM16.6349 104.871C15.1724 104.163 14.1356 103.226 13.4582 102.009L13.2397 102.13C13.946 103.4 15.0248 104.37 16.526 105.096L16.6349 104.871ZM13.4516 101.998C13.1908 101.622 13.1699 101.158 13.3155 100.676C13.4614 100.193 13.7712 99.7065 14.1479 99.3084L13.9664 99.1366C13.5695 99.556 13.2358 100.076 13.0762 100.604C12.9165 101.132 12.9283 101.683 13.2463 102.141L13.4516 101.998ZM14.174 99.267L14.3213 98.8799L14.0876 98.791L13.9403 99.1781L14.174 99.267ZM14.101 98.9056L14.4834 99.4691L14.6902 99.3287L14.3079 98.7653L14.101 98.9056ZM14.4824 99.4676C15.1441 100.472 16.1573 102.013 18.1757 103.065L18.2912 102.843C16.3342 101.824 15.3507 100.331 14.6912 99.3301L14.4824 99.4676ZM18.1999 103.075L18.4201 103.136L18.4872 102.895L18.267 102.834L18.1999 103.075ZM18.3379 102.968L18.2695 103.136L18.5009 103.23L18.5693 103.063L18.3379 102.968ZM18.2606 103.192C18.3068 103.799 18.2176 104.314 18.1086 104.792L18.3523 104.847C18.4636 104.36 18.5588 103.816 18.5098 103.173L18.2606 103.192ZM18.1086 104.791C18.0999 104.829 18.0739 104.862 18.0023 104.889C17.927 104.917 17.8197 104.93 17.6873 104.932C17.5568 104.934 17.4135 104.925 17.2703 104.914C17.1296 104.904 16.9867 104.893 16.8661 104.893V105.143C16.9755 105.143 17.1074 105.153 17.2524 105.164C17.3948 105.174 17.548 105.184 17.6905 105.182C17.8311 105.18 17.9734 105.167 18.09 105.123C18.2104 105.078 18.3186 104.994 18.3523 104.847L18.1086 104.791Z" fill="#040202"/>
<path fill-rule="evenodd" clip-rule="evenodd" d="M15.6538 111.906C13.5232 111.906 11.8539 111.115 11.0624 109.728C10.4732 108.696 10.4777 107.481 11.0773 106.481C12.3285 104.886 13.4489 104.839 14.1704 105.075C15.4024 105.478 16.2802 107.006 16.3248 108.179C16.3501 108.818 16.115 109.289 15.6776 109.47L15.569 109.491H15.5615C14.224 109.491 14.1928 108.621 14.1734 108.101C14.163 107.85 14.1541 107.612 14.041 107.517C13.9666 107.452 13.7836 107.39 13.3402 107.446C13.1929 107.467 12.9579 107.754 12.9192 108.174C12.8879 108.5 12.9475 109.297 14.1407 109.712C15.0497 109.815 15.7862 109.616 16.3932 109.111C18.2084 107.605 18.4911 103.676 18.7425 100.209C18.8437 98.8262 18.9374 97.5185 19.1249 96.4799L19.5117 94.0767L17.4377 93.4087C15.7535 92.8677 15.1747 92.9902 14.9858 93.1905C14.8013 93.3848 14.8325 93.8466 15.0825 94.5236C15.1762 94.7896 15.3949 95.0018 15.6077 95.2096C15.877 95.4726 16.1582 95.7461 16.1448 96.1227C16.1329 96.3962 15.9766 96.6517 15.6478 96.9267L15.5496 96.9805C14.0455 97.4319 12.9266 96.3528 12.4252 95.2932C11.9372 93.721 11.9789 92.6002 12.5383 91.8275C13.3016 90.7724 14.9069 90.6304 16.0496 90.614C17.033 90.6021 18.1414 90.6902 19.2126 90.7754L20.0027 90.8427C22.6078 91.578 25.1208 92.4657 28.1499 93.7225C28.3091 93.7734 28.507 93.8481 28.7138 93.9258C29.1512 94.0917 30.1778 94.4787 30.3341 94.3144C30.3504 94.2979 30.3817 94.1619 30.2478 93.8062C30.1183 93.6329 29.8237 93.4535 29.5649 93.2936C29.117 93.0201 28.6945 92.7616 28.7064 92.3506C28.7168 91.9889 29.0739 91.7603 29.3387 91.6168C30.4427 91.1177 31.5481 91.439 32.3039 92.4672C33.1907 93.6687 33.4719 95.7266 32.4735 96.8744C31.9126 97.5185 30.5022 98.339 27.3555 96.6084L23.6895 95.4248L23.4425 96.5576C22.4338 108.652 18.1414 111.895 15.7624 111.904C15.7267 111.906 15.6895 111.906 15.6538 111.906Z" fill="#FEFEFE"/>
</g>
</svg>
