<svg width="164" height="214" viewBox="0 0 164 214" fill="none" xmlns="http://www.w3.org/2000/svg">
<g opacity="0.438179">
<mask id="mask0" mask-type="alpha" maskUnits="userSpaceOnUse" x="24" y="0" width="15" height="46">
<path fill-rule="evenodd" clip-rule="evenodd" d="M38.9506 0.551208H24.4995L24.4995 45.6367H38.9506V0.551208V0.551208Z" fill="white"/>
</mask>
<g mask="url(#mask0)">
<path fill-rule="evenodd" clip-rule="evenodd" d="M32.8708 0.550232C32.9487 0.60049 33.0218 0.678308 33.1062 0.69452C34.8193 1.04632 36.0128 2.08552 36.888 3.54299C37.7535 4.98749 38.2146 6.57466 38.4955 8.21857C39.0525 11.4804 39.0249 14.7618 38.8008 18.0496C38.4809 22.7365 37.9418 27.3991 37.0065 32.0034C36.1524 36.1991 35.1847 40.3721 34.2461 44.5516C34.0139 45.5843 33.8873 45.6442 32.8351 45.6361C32.0508 45.6313 31.2665 45.6345 30.4822 45.6329C29.5924 45.6297 29.456 45.5502 29.2547 44.6877C28.5061 41.4907 27.7413 38.2985 27.0512 35.0885C26.163 30.9577 25.5038 26.7863 25.0183 22.589C24.5653 18.6965 24.3493 14.7926 24.6156 10.8774C24.7569 8.77788 25.1401 6.71894 25.9471 4.76052C26.7037 2.92369 27.842 1.45163 29.8279 0.816111C30.0909 0.731808 30.3491 0.639399 30.6105 0.550232H32.8708Z" fill="#040202"/>
</g>
<path fill-rule="evenodd" clip-rule="evenodd" d="M77.8367 199.625C77.8968 199.278 77.9244 199.006 77.9926 198.745C78.634 196.276 78.8077 193.745 79.0091 191.216C79.1325 189.658 79.2429 188.097 79.3614 186.536C79.4183 185.822 79.2315 185.224 78.5512 184.88C77.723 184.46 76.8787 184.751 76.4322 185.65C76.0554 186.406 75.7177 187.186 75.4222 187.974C73.8812 192.075 72.3533 196.18 70.8399 200.29C70.6353 200.843 70.507 201.433 70.4015 202.015C70.1726 203.275 70.3723 204.45 71.3806 205.573C68.3263 205.907 65.4149 206.048 62.3817 206.292C62.5116 205.911 62.5652 205.64 62.6854 205.403C64.2085 202.412 64.2815 199.256 63.671 196.055C63.0426 192.769 62.3103 189.501 61.6202 186.226C61.5552 185.921 61.4676 185.618 61.3588 185.328C61.0486 184.504 60.5615 184.154 59.7447 184.138C58.928 184.122 58.3613 184.434 58.1031 185.273C57.6404 186.766 57.2425 188.28 56.8853 189.801C55.9874 193.625 55.5148 197.498 55.6253 201.438C55.661 202.73 56.0507 203.891 56.6141 205.022C56.7927 205.381 56.9714 205.739 57.2344 206.266C54.146 206.117 51.2038 205.869 48.2355 205.643C48.2436 205.535 48.2193 205.424 48.2631 205.369C49.3933 203.962 49.3429 202.44 48.7454 200.846C48.0878 199.089 47.4594 197.32 46.8001 195.562C45.5888 192.341 44.3677 189.123 43.1434 185.908C42.7505 184.875 42.2828 184.597 41.2923 184.764C40.4902 184.9 40.0777 185.331 40.0436 186.158C40.016 186.784 40.042 187.411 40.0647 188.037C40.2141 191.894 40.6298 195.713 41.6771 199.445C41.7259 199.614 41.7177 199.799 41.7405 200.019C40.9935 199.559 38.9573 195.725 37.5934 192.309C35.0067 185.837 34.0552 179.177 35.2357 172.17C36.0151 172.339 36.736 172.506 37.4635 172.648C40.5779 173.261 43.6646 171.724 44.6032 168.376C45.2169 166.194 45.6554 163.988 45.6813 161.723C45.7301 157.65 45.7268 153.58 45.743 149.509C45.7447 149.139 45.743 148.769 45.743 148.38C45.946 148.337 46.0629 148.286 46.1766 148.288C49.4079 148.322 52.6375 148.364 55.8705 148.397C59.0059 148.427 62.143 148.463 65.2802 148.466C65.9897 148.468 66.5012 148.649 66.964 149.244C67.9561 150.519 69.6221 150.459 70.5298 149.118C70.9763 148.457 71.4602 148.15 72.2705 148.084C75.2354 147.847 78.1939 147.524 81.1557 147.241C81.3343 147.223 81.521 147.267 81.7695 147.288C82.1056 148.743 82.2517 150.201 82.3816 151.657C82.682 155.024 82.9646 158.393 83.2568 161.762C83.5345 164.973 83.8138 168.185 84.0914 171.398C84.2603 173.363 84.5006 175.325 84.5834 177.295C84.7897 182.121 83.8998 186.782 82.0828 191.237C81.0209 193.841 79.7268 196.35 78.5317 198.899C78.4391 199.093 78.2979 199.27 78.1631 199.44C78.1128 199.505 78.0088 199.53 77.8367 199.625Z" fill="#040202"/>
<path fill-rule="evenodd" clip-rule="evenodd" d="M71.7619 105.272V104.108C71.7619 91.2647 71.7684 78.4214 71.7603 65.5782C71.7554 57.1511 71.7457 48.7257 71.7116 40.3003C71.7018 38.264 72.1565 38.2964 73.5399 38.1003C76.2013 37.7225 78.861 37.2653 81.5386 37.0513C84.1285 36.8438 86.7395 36.8147 89.3375 36.86C93.103 36.9265 96.8247 37.468 100.515 38.1975C101.527 38.397 101.66 38.5915 101.668 39.6712C101.675 40.4559 101.67 41.2373 101.67 42.0204C101.672 60.7535 101.67 79.485 101.67 98.2181V99.5118C100.995 99.4567 100.407 99.4469 99.8303 99.3545C97.8477 99.0368 95.9592 99.2086 94.2267 100.319C94.0432 100.437 93.8386 100.522 93.6486 100.632C93.1907 100.893 92.7637 100.864 92.335 100.551C90.052 98.886 87.4605 98.3218 84.6903 98.4969C81.7172 98.685 79.2702 99.9138 77.4597 102.321C77.1966 102.672 76.9401 103.03 76.6543 103.359C76.1444 103.944 75.4933 104.294 74.7415 104.487C73.8972 104.701 73.0609 104.946 72.2198 105.175C72.1045 105.207 71.9876 105.225 71.7619 105.272Z" fill="#040201"/>
<path fill-rule="evenodd" clip-rule="evenodd" d="M72.883 65.5776C72.8765 57.1505 72.8667 48.7234 72.8326 40.2964C72.8294 39.4971 72.9089 39.2928 72.9235 39.2604C72.9187 39.2799 72.956 39.288 73.0145 39.288C73.1298 39.288 73.3344 39.2604 73.5113 39.2345L75.6839 38.9183C77.6341 38.6265 79.6524 38.325 81.6302 38.1661C83.3546 38.0283 85.2106 37.9602 87.302 37.9602C87.9758 37.9602 88.6464 37.9667 89.3187 37.9797C92.5532 38.0364 96.0443 38.4547 100.299 39.2961C100.401 39.3172 100.479 39.335 100.536 39.348C100.542 39.4242 100.545 39.5312 100.545 39.6803L100.55 98.3147C100.367 98.2985 100.187 98.279 100.008 98.2515C99.3616 98.1461 98.7332 98.0942 98.1471 98.0942C96.4486 98.0942 94.9694 98.5141 93.62 99.3782C93.5486 99.4236 93.469 99.4625 93.3894 99.503L93.0874 99.6619C90.9035 98.1218 88.4289 97.3484 85.6409 97.3484C85.3031 97.3484 84.9605 97.3598 84.6195 97.3809C81.2405 97.5949 78.532 99.0296 76.5656 101.65L76.3887 101.883C76.2019 102.134 76.0152 102.389 75.8073 102.625C75.4826 103.002 75.0426 103.255 74.4661 103.402C73.9335 103.537 73.4091 103.683 72.8846 103.83L72.883 65.5776Z" fill="#040202"/>
<path fill-rule="evenodd" clip-rule="evenodd" d="M130.89 104.015C129.948 103.846 129.159 103.648 128.356 103.576C127.582 103.506 126.79 103.503 126.015 103.582C125.31 103.655 124.922 103.426 124.61 102.799C123.674 100.918 122.349 99.3522 120.606 98.1509C118.948 97.008 117.096 96.3579 115.123 96.0725C114.074 95.9185 113.002 95.8812 111.94 95.8439C109.453 95.7596 107.29 96.6724 105.296 98.0747C104.865 98.3795 104.442 98.6973 104.039 98.9907C103.961 98.9632 103.929 98.9567 103.903 98.9405C103.88 98.9243 103.851 98.8951 103.851 98.8724C103.833 79.1114 103.815 59.3505 103.8 39.5895C103.8 39.4387 103.846 39.2896 103.873 39.1048C104.058 39.1194 104.214 39.108 104.357 39.1485C112.874 41.535 120.644 45.3999 127.603 50.865C128.343 51.4454 129.042 52.0777 129.793 52.6419C130.589 53.2369 130.891 53.9778 130.89 54.9813C130.88 65.0036 130.907 75.026 130.924 85.0467C130.933 90.9349 130.948 96.8232 130.956 102.711C130.956 103.11 130.917 103.511 130.89 104.015Z" fill="#040201"/>
<path fill-rule="evenodd" clip-rule="evenodd" d="M129.835 102.67C129.364 102.579 128.914 102.503 128.46 102.461C128.044 102.423 127.627 102.402 127.208 102.402C126.768 102.402 126.331 102.425 125.897 102.469L125.709 102.47C125.703 102.456 125.667 102.406 125.613 102.3C124.576 100.22 123.105 98.5131 121.242 97.2291C119.534 96.0521 117.53 95.2901 115.283 94.9643C114.158 94.8005 113.002 94.7616 111.98 94.726L111.623 94.7195C109.371 94.7195 107.193 95.4474 104.97 96.9405L104.923 40.4932C113.057 42.8747 120.435 46.6586 126.909 51.7444C127.221 51.9876 127.523 52.2405 127.828 52.4934C128.25 52.8484 128.677 53.2035 129.121 53.5358C129.595 53.8892 129.769 54.2816 129.769 54.9819C129.76 62.9988 129.777 71.019 129.793 79.0391L129.835 102.67Z" fill="#040202"/>
<path fill-rule="evenodd" clip-rule="evenodd" d="M129.835 102.67C129.364 102.579 128.914 102.503 128.46 102.461C128.044 102.423 127.627 102.402 127.208 102.402C126.768 102.402 126.331 102.425 125.897 102.469L125.709 102.47C125.703 102.456 125.667 102.406 125.613 102.3C124.576 100.22 123.105 98.5131 121.242 97.2291C119.534 96.0521 117.53 95.2901 115.283 94.9643C114.158 94.8005 113.002 94.7616 111.98 94.726L111.623 94.7195C109.371 94.7195 107.193 95.4474 104.97 96.9405L104.923 40.4932C113.057 42.8747 120.435 46.6586 126.909 51.7444C127.221 51.9876 127.523 52.2405 127.828 52.4934C128.25 52.8484 128.677 53.2035 129.121 53.5358C129.595 53.8892 129.769 54.2816 129.769 54.9819C129.76 62.9988 129.777 71.019 129.793 79.0391L129.835 102.67Z" stroke="#040201" stroke-width="0.2"/>
<mask id="mask1" mask-type="alpha" maskUnits="userSpaceOnUse" x="0" y="0" width="164" height="213">
<path fill-rule="evenodd" clip-rule="evenodd" d="M0.000162376 95.8766V0.551208H163.69V212.724H0.000162376V95.8766H60.4999V37.9159H0V95.8766H0.000162376Z" fill="white"/>
</mask>
<g mask="url(#mask1)">
<path fill-rule="evenodd" clip-rule="evenodd" d="M49.0246 73.914H50.7799C51.8808 70.4284 49.5296 66.6299 45.9411 65.9798C44.7541 65.7641 43.5688 65.769 42.3818 65.9716C41.4952 66.124 40.7824 66.552 40.3797 67.3675C39.2415 69.6761 37.2589 70.9439 34.8995 71.5973C31.2314 72.6138 27.9417 71.8113 25.1992 69.1217C24.4701 68.4083 23.6777 68.1052 22.6693 68.1424C21.2908 68.1943 19.909 68.1603 18.5288 68.1684C17.5431 68.1716 17.4522 68.264 17.4262 69.227C17.3954 70.4332 17.2671 70.5662 16.0996 70.6845C14.3232 70.8628 12.5484 71.0493 10.772 71.2325C10.0267 71.3087 9.8676 71.4578 9.83188 72.236C9.80428 72.8618 9.81889 73.4892 9.82051 74.1166C9.8335 77.7822 9.84974 81.4461 9.86111 85.1117C9.86273 85.2997 9.86923 85.491 9.84162 85.6742C9.75394 86.2417 9.55259 86.4362 8.97941 86.4686C8.54261 86.493 8.10095 86.4751 7.66253 86.4751C5.30808 86.4751 2.95525 86.4751 0.602416 86.4719C0.418931 86.4719 0.237069 86.4443 0 86.4265V38.1127C0.646257 37.9085 7.8379 37.8355 9.7377 38.0284C9.7783 38.7742 9.85624 39.5426 9.85624 40.3095C9.85461 44.0075 9.83026 47.7038 9.82051 51.4002C9.81727 53.0376 9.91794 53.1008 11.579 53.2062C13.172 53.3067 14.7632 53.4689 16.3513 53.6342C17.2655 53.7283 17.4116 53.9196 17.4327 54.8242C17.436 54.9798 17.4278 55.1371 17.436 55.2927C17.4798 56.1406 17.6714 56.3643 18.5044 56.3773C19.9171 56.4 21.3297 56.3951 22.7408 56.3692C23.5186 56.3546 24.2054 56.0563 24.7721 55.5132C25.0206 55.2749 25.243 55.0058 25.5093 54.7885C26.0614 54.3362 26.1572 53.8012 26.0159 53.1122C25.6684 51.4164 25.9461 49.8179 26.9317 48.3604C27.3864 47.686 27.9563 47.3147 28.8039 47.3245C31.0317 47.3504 33.2595 47.3472 35.4857 47.3309C36.283 47.3245 36.8415 47.6519 37.3011 48.2923C38.337 49.7336 38.639 51.3224 38.2493 53.0198C38.0886 53.725 38.2818 54.2114 38.7072 54.7318C39.4964 55.7013 40.2644 56.6918 40.9886 57.7116C41.3702 58.2514 41.807 58.4816 42.4728 58.5027C44.1615 58.5562 45.8827 58.5076 47.5308 58.8189C53.1068 59.871 56.528 63.3258 58.0657 68.7083C58.41 69.9161 58.5285 71.166 58.4733 72.4289C58.4165 73.7972 58.5545 73.9383 59.8909 74.0566C60.0743 74.0728 60.2546 74.1004 60.49 74.1296C60.49 74.5008 60.5144 74.8364 60.4868 75.1672C60.1945 78.5069 59.8941 81.8433 59.6002 85.1814C59.3242 88.3006 59.0497 91.4182 58.7737 94.5374C58.7607 94.693 58.7493 94.8503 58.7234 95.0043C58.6 95.7031 58.4425 95.8571 57.7377 95.8717C57.0476 95.8863 56.3592 95.8636 55.6674 95.8636C54.3489 95.8652 53.0321 95.8798 51.7136 95.87C50.9926 95.8668 50.8432 95.7209 50.7783 94.9962C50.4552 91.3161 50.1402 87.6343 49.8187 83.9525C49.5572 80.9581 49.2877 77.9654 49.0279 74.9694C49.0019 74.6646 49.0246 74.3566 49.0246 73.914Z" fill="#040202"/>
</g>
<path fill-rule="evenodd" clip-rule="evenodd" d="M42.5565 116.309C42.5321 115.91 42.4915 115.513 42.4915 115.114C42.4867 101.831 42.4883 88.5485 42.4883 75.2675C42.4883 73.2005 42.4818 71.1318 42.4899 69.0648C42.4932 67.9932 42.6653 67.8067 43.7581 67.8213C44.4742 67.831 45.2113 67.8408 45.9031 68.0061C47.8759 68.473 48.9492 69.8527 49.0483 72.0089H46.8156C47.5869 80.6143 48.3452 89.1127 49.1165 97.7148C49.4559 97.7456 49.7855 97.7991 50.1167 97.8024C53.1288 97.8251 56.1393 97.8364 59.153 97.851C59.2455 97.8526 59.3397 97.8543 59.4355 97.8494C60.2555 97.8073 60.4163 97.684 60.4974 96.8556C60.655 95.2668 60.78 93.6748 60.9196 92.0844C61.2022 88.8728 61.4863 85.6611 61.7721 82.4495C62.0433 79.3935 62.3193 76.3375 62.584 73.2799C62.6165 72.9135 62.5872 72.5407 62.5872 72.0964C61.9036 72.0592 61.2915 72.0267 60.6891 71.9927C60.3838 70.6406 60.1402 69.3209 59.7814 68.0337C59.0767 65.4965 57.9205 63.1879 56.1003 61.2473C53.9212 58.9241 51.1982 57.5736 48.1163 56.9722C46.5542 56.6674 44.9483 56.596 43.3619 56.4226C43.1183 56.395 42.8715 56.3853 42.5435 56.361C42.5435 55.586 42.5273 54.8451 42.55 54.1042C42.5662 53.5887 42.9267 53.2774 43.2904 52.9613C46.3334 50.3317 49.5874 47.9939 53.0525 45.9495C57.9563 43.0557 63.1604 40.8541 68.6374 39.2912C68.9296 39.2069 69.2333 39.155 69.6019 39.0724C69.6636 39.369 69.7383 39.5993 69.7561 39.8343C69.7805 40.1764 69.7659 40.5217 69.7659 40.867C69.7626 61.5424 69.7594 82.2177 69.7578 102.893C69.7578 103.644 69.7675 104.396 69.7886 105.148C69.8227 106.418 69.4736 107.58 68.6828 108.561C67.6047 109.897 67.2036 111.438 67.1403 113.099C67.1045 113.971 67.1338 114.845 67.1338 115.835C66.7603 115.783 66.4908 115.777 66.2407 115.705C64.6819 115.271 63.1133 115.055 61.5042 115.384C60.97 115.495 60.5429 115.311 60.15 114.924C57.5795 112.38 54.4749 111.549 50.927 111.986C48.3338 112.307 45.9924 113.126 44.0893 114.973C43.6249 115.423 43.206 115.919 42.7676 116.396C42.6978 116.367 42.6263 116.338 42.5565 116.309Z" fill="#040201"/>
<path fill-rule="evenodd" clip-rule="evenodd" d="M66.0029 114.487C64.9555 114.231 64.0056 114.106 63.1126 114.106C62.4858 114.106 61.8671 114.168 61.2777 114.288C61.268 114.288 61.2598 114.289 61.2517 114.289C61.1299 114.289 61.0439 114.233 60.9383 114.127C58.6781 111.892 55.8966 110.757 52.6734 110.757C52.0596 110.757 51.4296 110.797 50.7898 110.877C47.8053 111.245 45.4525 112.23 43.6128 113.886V68.9391H43.6501C44.3954 68.9489 45.0693 68.957 45.6425 69.0932C46.7353 69.3525 47.4173 69.9329 47.7307 70.8895H45.5905L48.0846 98.7451L49.3138 98.8602C49.5801 98.891 49.8432 98.9186 50.1078 98.9218L59.4916 98.9672C60.8848 98.8959 61.4791 98.3366 61.6138 96.965C61.721 95.8545 61.8168 94.7424 61.9093 93.6302L63.7004 73.3764C63.7263 73.0911 63.7215 72.8041 63.7133 72.4928L63.7101 71.0386L61.6041 70.9219L61.5115 70.5068C61.3118 69.5665 61.1153 68.6425 60.862 67.7346C60.0518 64.8196 58.7592 62.4478 56.9179 60.4813C54.6869 58.1013 51.7966 56.5498 48.3298 55.8738C47.1932 55.6517 46.0419 55.5479 44.928 55.449C44.5059 55.4117 44.0804 55.3728 43.6599 55.3291C43.6583 54.927 43.6583 54.533 43.6696 54.1358C43.6989 54.0888 43.9034 53.9121 44.0252 53.8084C46.9967 51.2387 50.2231 48.9188 53.6233 46.9117C58.2672 44.1719 63.322 41.9995 68.648 40.4528C68.648 40.4917 68.6366 102.894 68.6366 102.894C68.6366 103.654 68.648 104.416 68.6674 105.176C68.695 106.216 68.4076 107.117 67.8101 107.86C66.6865 109.249 66.1019 110.948 66.0207 113.056C66.0012 113.526 65.9996 113.997 66.0029 114.487Z" fill="#040202"/>
<path fill-rule="evenodd" clip-rule="evenodd" d="M86.6199 197.886C86.8505 197.925 86.9154 197.957 86.9674 197.943C90.0948 197.056 93.2124 196.14 96.166 194.756C100.613 192.671 104.105 189.571 106.337 185.148C106.511 184.803 106.659 184.443 106.818 184.088C105.769 184.986 104.843 185.956 103.9 186.909C100.743 190.095 96.9227 192.034 92.5385 192.89C91.436 193.107 90.3156 193.24 89.2017 193.399C88.7714 193.462 88.4158 193.611 88.2372 194.036C87.7062 195.3 87.1752 196.565 86.6199 197.886ZM104.434 173.621C104.382 172.718 104.36 171.812 104.272 170.911C104.163 169.791 104.032 168.67 103.855 167.556C103.502 165.332 103.182 163.1 102.721 160.898C102.296 158.865 101.484 156.959 100.328 155.217C99.4671 153.922 98.2607 153.335 96.7083 153.552C94.9742 153.796 93.2432 154.074 91.5107 154.336C90.0996 154.548 89.731 155.068 89.8414 156.506C90.0785 159.598 90.2896 162.691 90.4861 165.785C90.6712 168.722 90.8482 171.661 90.9862 174.602C91.1973 179.122 91.1096 183.619 89.7197 187.995C89.3673 189.102 89.9811 189.812 91.1275 189.611C97.3968 188.509 101.649 185.049 103.567 178.905C104.101 177.19 104.275 175.413 104.434 173.621ZM106.129 154.151C106.147 154.199 106.167 154.248 106.186 154.297C106.207 154.264 106.228 154.233 106.251 154.201C106.206 154.191 106.157 154.181 106.112 154.17C106.112 154.079 106.146 153.974 106.11 153.901C105.274 152.246 104.28 150.699 102.929 149.407C101.347 147.896 99.4866 147.003 97.275 147.068C94.5228 147.149 91.8354 147.731 89.0669 148.228C89.1919 149.102 89.3072 149.924 89.4339 150.813C89.8463 150.793 90.1857 150.798 90.5202 150.754C92.4719 150.503 94.4286 150.27 96.3722 149.971C99.9818 149.42 102.984 150.411 105.279 153.324C105.522 153.63 105.844 153.877 106.129 154.151ZM30.0724 155.352C30.5757 155.289 30.7982 155.465 30.8469 155.835C30.8794 156.083 30.8729 156.336 30.8761 156.586C30.9102 158.778 30.9086 160.971 30.9866 163.163C31.0548 165.086 31.412 166.96 32.2596 168.708C32.5567 169.322 32.6639 169.946 32.6266 170.617C32.482 173.245 32.3164 175.872 32.2222 178.501C32.1216 181.337 32.5048 184.124 33.2371 186.862C34.7277 192.437 36.8889 197.714 40.2225 202.468C40.708 203.16 41.2276 203.828 41.7505 204.493C43.4782 206.686 45.805 207.784 48.5248 208.121C53.7046 208.763 58.912 208.88 64.1194 208.656C67.1494 208.525 70.1907 208.387 73.1589 207.617C74.4498 207.281 75.5329 206.668 76.447 205.721C78.8875 203.194 80.8117 200.31 82.3186 197.148C84.181 193.238 85.6343 189.177 86.602 184.95C87.0973 182.798 87.1833 180.614 87.0388 178.412C86.8521 175.567 86.7336 172.718 86.5338 169.875C86.274 166.157 86.0467 162.435 85.6521 158.731C85.1228 153.783 84.4473 148.849 83.8335 143.909C83.8222 143.817 83.7962 143.725 83.7864 143.632C83.7264 143.05 84.7445 140.505 85.1829 140.134C85.5969 139.787 86.0743 139.673 87.0632 139.727C87.2629 140.797 87.4626 141.894 87.6689 142.99C87.7728 143.543 87.8556 144.104 88.0082 144.644C88.2664 145.553 88.6512 145.848 89.5816 145.754C90.8579 145.625 92.131 145.446 93.3959 145.236C95.1349 144.945 96.8756 144.722 98.6309 145.038C100.933 145.455 102.832 146.628 104.455 148.271C106.42 150.258 107.86 152.593 108.966 155.146C110.268 158.162 110.937 161.341 111.371 164.577C111.796 167.751 111.957 170.938 111.765 174.139C111.528 178.111 110.752 181.961 109.054 185.584C106.389 191.268 102.005 195.151 96.2991 197.636C93.2189 198.977 90.0071 199.929 86.8115 200.931C85.4102 201.372 84.3077 202.147 83.413 203.307C82.075 205.045 80.6867 206.746 79.2935 208.44C77.9441 210.081 76.1255 210.973 74.1088 211.474C71.9151 212.018 69.6727 212.247 67.4238 212.454C64.3549 212.738 61.2827 212.74 58.2106 212.714C54.8218 212.688 51.4378 212.548 48.0848 212.034C46.8507 211.843 45.6231 211.559 44.4216 211.222C42.8238 210.772 41.4533 209.909 40.281 208.724C37.9947 206.409 36.1047 203.8 34.5718 200.942C31.8959 195.949 29.7915 190.741 28.8286 185.124C28.2327 181.645 28.1498 178.151 28.4502 174.64C28.6808 171.924 28.8935 169.209 29.103 166.491C29.3677 163.058 29.6193 159.621 29.8873 156.187C29.9084 155.915 30.0042 155.649 30.0724 155.352Z" fill="#040202"/>
<path fill-rule="evenodd" clip-rule="evenodd" d="M93.3706 129.995C104.182 130.454 114.833 129.791 125.532 128.684C125.656 129.464 125.797 130.133 125.862 130.811C126.26 134.922 126.645 139.035 127.023 143.15C127.323 146.423 127.619 149.696 127.895 152.971C128.132 155.808 128.496 158.637 128.39 161.499C128.236 165.764 127.333 169.869 125.838 173.856C124.813 176.586 123.54 179.202 122.097 181.736C121.947 182.002 121.757 182.245 121.415 182.437C121.588 181.681 121.822 180.932 121.924 180.167C122.212 178.027 122.464 175.884 122.689 173.737C122.835 172.337 122.918 170.931 123.024 169.525C123.048 169.182 123.082 168.835 123.055 168.494C122.996 167.753 122.598 167.274 121.972 167.128C121.168 166.94 120.599 167.145 120.177 167.794C120.059 167.977 119.955 168.175 119.877 168.378C118.149 172.909 116.418 177.439 114.705 181.975C114.45 182.646 114.247 183.34 114.062 184.034C113.543 185.966 113.65 186.629 114.76 188.385C113.02 188.571 111.334 188.753 109.512 188.948C109.878 188.184 110.162 187.527 110.496 186.9C112.632 182.887 113.509 178.564 113.642 174.068C113.739 170.779 113.746 167.492 113.289 164.221C112.555 158.986 111.139 153.994 108.049 149.606C106.556 147.485 104.808 145.622 102.478 144.382C99.89 143.002 97.1296 142.704 94.2685 143.106C92.812 143.312 91.3653 143.565 89.8146 143.811C89.7269 143.445 89.6295 143.126 89.5759 142.798C89.4005 141.717 89.2674 140.629 89.0611 139.554C88.9426 138.949 89.1131 138.56 89.5986 138.187C91.2824 136.892 92.5344 135.276 93.0215 133.168C93.1822 132.469 93.2342 131.748 93.3203 131.035C93.356 130.731 93.3511 130.423 93.3706 129.995Z" fill="#040202"/>
<path fill-rule="evenodd" clip-rule="evenodd" d="M25.1832 127.95C21.7278 119.541 20.2145 110.893 20.3574 101.931C20.5214 91.7856 22.9115 82.1977 27.5295 73.0654C32.2401 74.7369 36.4959 73.9636 40.4206 70.6417C40.4709 71.3145 40.5424 71.8252 40.5424 72.3343C40.5407 75.34 40.5131 78.3457 40.5115 81.3515C40.5083 91.7483 40.5099 102.145 40.5115 112.542C40.5115 113.575 40.5521 114.607 40.5424 115.64C40.5342 116.572 40.3637 116.721 39.4496 116.765C38.071 116.832 36.7087 116.976 35.3918 117.443C32.0777 118.615 29.8158 120.844 28.6613 124.155C28.3593 125.02 27.9111 125.698 27.1674 126.241C26.4952 126.732 25.8976 127.327 25.1832 127.95Z" fill="#040202"/>
<path fill-rule="evenodd" clip-rule="evenodd" d="M148.654 155.012C148.654 154.511 148.714 154.002 148.645 153.512C148.167 150.168 147.712 146.82 147.149 143.49C146.733 141.029 145.792 138.748 144.366 136.678C143.586 135.546 142.554 134.979 141.157 135.184C139.145 135.48 137.13 135.766 135.122 136.079C134.037 136.248 133.74 136.618 133.784 137.722C133.813 138.472 133.915 139.22 133.956 139.969C134.313 146.406 134.682 152.844 135.007 159.284C135.166 162.461 134.919 165.6 133.813 168.625C133.654 169.063 133.544 169.525 133.457 169.985C133.185 171.42 133.644 171.971 135.104 171.997C135.261 172.001 135.422 172.001 135.573 171.973C140.781 171.051 144.587 168.225 146.923 163.499C148.239 160.839 148.545 157.935 148.654 155.012ZM150.966 166.617C150.726 166.837 150.457 167.036 150.25 167.286C147.558 170.516 144.356 173.054 140.409 174.601C138.296 175.429 136.094 175.867 133.849 176.109C133.389 176.159 132.944 176.243 132.74 176.684C132.126 178.004 131.551 179.341 130.905 180.794C131.241 180.732 131.42 180.713 131.588 180.666C134.182 179.945 136.737 179.119 139.189 177.997C142.263 176.59 145.069 174.784 147.352 172.26C148.872 170.582 150.163 168.745 150.94 166.591L150.965 166.55L150.966 166.617ZM127.312 123.275C128.661 122.933 129.864 122.628 131.152 122.302C131.29 123.006 131.415 123.611 131.527 124.217C131.608 124.648 131.666 125.083 131.749 125.512C132.033 127.01 132.478 127.331 134.016 127.122C135.846 126.874 137.669 126.568 139.504 126.363C143.234 125.948 146.337 127.237 148.883 129.94C151.307 132.516 152.991 135.531 154.139 138.858C155.229 142.016 155.822 145.28 156.012 148.602C156.163 151.226 156.283 153.864 156.184 156.487C155.987 161.646 154.594 166.487 151.785 170.864C149.115 175.021 145.412 177.98 140.972 180.063C137.704 181.595 134.305 182.778 130.804 183.647C129.396 183.996 128.294 184.695 127.411 185.836C126.048 187.597 124.64 189.32 123.241 191.05C121.716 192.932 119.698 194.012 117.371 194.534C114.799 195.113 112.186 195.421 109.551 195.519C107.89 195.583 106.227 195.638 104.567 195.695C104.358 195.701 104.15 195.696 103.778 195.696C103.993 195.408 104.1 195.236 104.235 195.09C105.128 194.124 106.035 193.169 106.92 192.194C107.304 191.773 107.742 191.596 108.317 191.554C110.66 191.381 113.009 191.311 115.327 190.842C117.45 190.413 119.258 189.534 120.717 187.864C122.918 185.343 124.868 182.655 126.18 179.581C127.443 176.621 128.594 173.604 129.64 170.558C130.923 166.831 131.066 162.943 130.871 159.042C130.679 155.226 130.484 151.41 130.208 147.598C129.979 144.445 129.685 141.295 129.323 138.153C128.862 134.173 128.305 130.204 127.779 126.232C127.651 125.277 127.48 124.327 127.312 123.275Z" fill="#040202"/>
<path fill-rule="evenodd" clip-rule="evenodd" d="M42.2218 135.53C42.8064 135.941 43.1506 136.417 43.3731 136.973C43.6296 137.61 43.8358 138.267 44.0778 138.912C44.5324 140.13 44.9871 140.303 46.1383 139.663C47.8059 138.736 48.8598 137.34 49.0595 135.43C49.2007 134.065 49.1796 132.682 49.2316 131.307C49.2413 131.074 49.2592 130.843 49.2852 130.403C49.5758 130.845 49.7317 131.106 49.9103 131.348C50.2627 131.824 50.5874 132.333 50.9999 132.755C51.8978 133.671 52.9971 133.972 54.2669 133.715C55.3321 133.499 56.0498 132.842 56.6197 131.983C56.9769 131.45 57.2936 130.89 57.693 130.237C57.8116 130.595 57.8895 130.827 57.9626 131.061C58.2824 132.108 58.5504 133.173 58.9303 134.198C59.4629 135.637 60.546 136.445 62.0691 136.703C64.0452 137.04 65.703 136.349 67.2261 135.185C67.5411 134.944 67.8545 134.699 68.2621 134.384C68.2962 134.715 68.3384 134.919 68.3352 135.122C68.2929 137.142 69.0236 138.875 70.3941 140.315C72.0438 142.048 74.0979 142.615 76.4036 141.999C78.5454 141.428 79.6804 139.833 80.0798 137.773C80.3575 136.339 80.3607 134.851 80.4874 133.389C80.5036 133.219 80.528 133.052 80.5686 132.7C81.236 133.248 81.8384 133.64 82.3125 134.152C83.3274 135.243 85.8133 134.984 86.8639 133.895C88.4211 132.285 88.4146 129.921 86.7714 128.391C86.6804 128.306 86.5522 128.263 86.4904 128.227C86.5278 127.98 86.5262 127.851 86.5684 127.739C87.3169 125.707 86.7892 123.929 85.4951 122.301C82.1355 118.081 75.0397 117.836 71.3846 121.805C70.8325 122.403 70.511 123.097 70.3421 123.876C70.235 124.372 70.1505 124.874 70.0223 125.549C69.0577 123.965 68.0916 122.629 66.6318 121.74C65.164 120.849 63.584 120.474 61.871 120.666C60.153 120.855 58.8573 121.873 57.5388 123.016C57.5388 122.28 57.4511 121.703 57.5566 121.163C57.7499 120.178 57.3634 119.456 56.7058 118.811C54.0574 116.212 48.9409 116.175 46.632 120.054C46.2471 120.703 46.1464 121.291 46.5232 121.984C46.8755 122.624 47.1304 123.316 47.525 124.201C47.0184 124.023 46.7342 123.934 46.4582 123.822C44.75 123.133 43.1133 122.24 41.2719 121.909C36.9657 121.134 33.5184 124.151 33.801 128.211C33.8351 128.674 33.8952 129.133 33.952 129.694C33.2067 129.764 32.4971 129.825 31.7891 129.898C30.3391 130.049 29.498 130.892 29.4493 132.234C29.3908 133.822 30.2742 134.812 31.8914 134.989C32.4257 135.047 32.9582 135.125 33.5704 135.205C33.4259 135.43 33.3691 135.54 33.2927 135.636C32.4468 136.698 31.7761 137.845 31.3312 139.141C30.1735 142.508 30.3992 145.926 30.8896 149.359C30.9107 149.512 30.9626 149.667 31.0373 149.804C31.2549 150.198 31.63 150.381 32.0538 150.35C32.5312 150.317 32.5702 149.92 32.6481 149.531C33.1125 147.263 33.5899 144.997 34.0949 142.738C34.215 142.2 34.4765 141.701 35.0415 141.402C35.4118 141.962 35.4897 142.55 35.4881 143.139C35.4816 145.707 35.4702 148.276 35.4231 150.844C35.3565 154.601 35.0821 158.359 35.4994 162.11C35.6683 163.607 35.8989 165.101 36.7238 166.408C37.5438 167.711 39.1237 167.755 39.9891 166.489C40.5591 165.654 40.952 164.727 40.9861 163.692C41.1534 158.84 41.3287 153.99 41.4684 149.137C41.5804 145.16 41.6454 141.184 41.7347 137.207C41.7477 136.643 41.8419 136.093 42.2218 135.53ZM60.0036 117.856C63.4444 116.458 66.4321 117.256 69.1552 119.592C69.3581 119.417 69.5627 119.275 69.7235 119.095C71.9967 116.587 74.8919 115.539 78.2076 115.534C81.3983 115.531 84.2432 116.57 86.695 118.595C88.7864 120.325 89.9994 122.538 90.3079 125.271C90.4735 126.727 90.7333 128.193 91.1523 129.594C92.349 133.608 88.8254 137.828 84.7806 137.983C84.3747 138 83.9687 137.987 83.4784 137.987C82.759 142.826 79.8899 145.397 75.0673 145.629C70.5906 145.845 67.8156 143.397 66.1317 139.363C62.1795 140.811 59.0261 139.862 56.8649 136.326C55.8565 136.644 54.9375 137.088 53.9795 137.192C53.0458 137.291 52.0732 137.043 51.0388 136.939C50.9236 137.301 50.818 137.755 50.6362 138.176C50.2513 139.063 49.912 139.985 49.4021 140.798C48.4506 142.314 46.9876 143.017 45.2063 143.064C44.7435 143.077 44.2791 143.066 43.7092 143.066C43.7092 144.168 43.7059 145.191 43.7108 146.214C43.7335 151.444 43.8423 156.676 43.7384 161.903C43.6978 163.853 43.2789 165.821 42.8194 167.729C42.264 170.04 40.4129 170.988 38.091 170.826C36.2464 170.694 34.9409 169.694 34.0981 168.081C33.2716 166.494 32.9128 164.78 32.8868 163.01C32.8495 160.317 32.8673 157.623 32.8608 154.93V153.811C32.4857 153.735 32.1334 153.638 31.7761 153.592C29.4818 153.299 28.2461 152.046 27.9668 149.763C27.6177 146.921 27.517 144.082 27.9765 141.245C28.1113 140.413 28.2834 139.582 28.5205 138.773C28.7365 138.03 28.6261 137.512 28.022 136.949C26.1173 135.183 25.5685 132.329 26.5622 129.947C27.0786 128.712 27.9083 127.75 29.1245 127.189C29.7676 126.893 30.0793 126.465 30.2076 125.79C30.974 121.779 34.6307 118.897 38.4368 118.778C39.8917 118.731 41.3125 118.817 42.6992 119.287C42.9314 119.367 43.1798 119.404 43.4542 119.469C43.5565 119.25 43.6588 119.061 43.74 118.864C44.6769 116.557 46.3884 115.093 48.7396 114.387C50.5858 113.832 52.4807 113.616 54.4049 113.952C56.3307 114.286 57.9415 115.184 59.1674 116.723C59.4402 117.065 59.687 117.426 60.0036 117.856Z" fill="#040202"/>
<path fill-rule="evenodd" clip-rule="evenodd" d="M93.1976 103.944C95.4433 100.126 100.474 100.195 102.958 103.511C103.177 103.187 103.379 102.888 103.582 102.593C104.833 100.776 106.378 99.3086 108.456 98.4607C109.515 98.0311 110.606 97.7961 111.744 97.7523C113.644 97.6793 115.495 97.9371 117.283 98.5921C120.232 99.6702 122.235 101.697 123.297 104.646C123.466 105.114 123.614 105.588 123.773 106.058C124.913 105.902 126.017 105.706 127.128 105.607C130.999 105.265 134.254 107.836 134.953 111.657C135.791 116.249 132.498 120.07 128.782 120.994C127.352 121.349 125.905 121.242 124.52 120.756C123.549 120.414 122.62 119.953 121.677 119.535C121.423 119.421 121.188 119.269 120.897 119.107C118.535 121.346 115.831 122.698 112.493 122.374C109.312 122.066 106.504 121.035 104.595 118.154C101.461 120.88 98.4456 120.568 95.4903 117.836C94.5892 119.624 93.4412 121.059 91.5202 121.795C90.9714 120.871 90.4323 119.968 89.8299 118.954C92.2103 118.152 93.433 116.346 94.3277 114.125C94.7921 114.509 95.1883 114.85 95.5975 115.172C96.955 116.244 98.4391 116.969 100.23 116.977C101.812 116.981 103.096 116.421 104.124 115.239C104.249 115.098 104.374 114.958 104.501 114.82C104.52 114.801 104.554 114.798 104.695 114.741C106.676 117.653 109.546 119.109 113.048 119.35C116.749 119.606 119.355 117.718 121.568 114.7C121.672 115.291 121.787 115.665 121.794 116.043C121.807 116.683 122.084 117.082 122.659 117.362C123.97 117.998 125.307 118.489 126.795 118.436C129.164 118.351 131.392 116.508 131.707 114.259C132.127 111.249 130.456 108.61 126.947 108.321C126.3 108.267 125.634 108.35 124.981 108.418C124.03 108.519 123.445 109.055 123.244 109.999C123.213 110.142 123.153 110.276 123.029 110.652C122.862 110.206 122.752 109.973 122.682 109.728C122.305 108.4 121.854 107.103 121.157 105.902C118.556 101.421 112.722 99.7464 108.341 102.248C106.064 103.548 104.72 105.558 104.051 108.057C103.965 108.374 103.871 108.689 103.739 109.151C103.502 108.804 103.344 108.587 103.2 108.361C102.778 107.702 102.386 107.022 101.938 106.38C101.031 105.085 99.7202 104.477 98.1825 104.347C96.752 104.226 95.6738 104.835 95.0438 106.118C94.7142 106.787 94.4966 107.515 94.2465 108.222C94.0842 108.686 93.9526 109.161 93.7399 109.842C93.472 109.373 93.2901 109.065 93.118 108.752C92.4978 107.619 91.8012 106.542 90.822 105.68C88.9596 104.039 86.8 103.456 84.3643 103.932C82.6513 104.268 81.5666 105.365 80.8326 106.885C80.5907 107.382 80.7401 107.804 81.0113 108.206C81.3425 108.695 81.7079 109.161 82.1463 109.759C81.8426 109.725 81.651 109.722 81.4675 109.681C80.6134 109.491 79.7691 109.222 78.9069 109.107C76.4063 108.768 73.9999 109.671 72.5969 112.081C72.3063 112.58 72.1244 113.172 72.014 113.744C71.8321 114.696 71.4522 115.451 70.525 115.877C70.1629 116.043 69.8528 116.318 69.4143 116.617C69.3023 116.155 69.1773 115.779 69.1269 115.393C68.7291 112.398 69.4663 109.788 71.837 107.791C73.0451 106.771 74.4772 106.254 76.0669 106.207C76.2244 106.202 76.3819 106.197 76.5378 106.202C77.2084 106.215 77.6014 105.912 77.9147 105.294C78.3483 104.438 78.8289 103.556 79.4849 102.869C81.4935 100.753 84.0591 100.137 86.8812 100.481C89.346 100.779 91.4309 101.818 92.9719 103.822C93.006 103.866 93.0774 103.88 93.1976 103.944Z" fill="#040202"/>
<path fill-rule="evenodd" clip-rule="evenodd" d="M163.03 99.3412C162.967 101.93 162.952 104.526 162.83 107.117C162.528 113.52 161.411 119.783 159.455 125.893C159.416 126.012 159.399 126.138 159.356 126.255C159.089 126.989 158.899 127.104 158.172 126.878C156.293 126.292 154.416 125.694 152.544 125.084C151.795 124.841 151.755 124.708 151.969 123.899C152.573 121.636 153.229 119.384 153.752 117.103C154.803 112.536 155.07 107.887 155.075 103.216C155.077 102.12 155.074 101.026 155.105 99.9297C155.121 99.3493 155.264 99.1807 155.832 99.1775C158.122 99.1645 160.408 99.1856 162.694 99.1969C162.751 99.1986 162.808 99.244 163.03 99.3412Z" fill="#040202"/>
<path fill-rule="evenodd" clip-rule="evenodd" d="M163.03 99.3412C162.967 101.93 162.952 104.526 162.83 107.117C162.528 113.52 161.411 119.783 159.455 125.893C159.416 126.012 159.399 126.138 159.356 126.255C159.089 126.989 158.899 127.104 158.172 126.878C156.293 126.292 154.416 125.694 152.544 125.084C151.795 124.841 151.755 124.708 151.969 123.899C152.573 121.636 153.229 119.384 153.752 117.103C154.803 112.536 155.07 107.887 155.075 103.216C155.077 102.12 155.074 101.026 155.105 99.9297C155.121 99.3493 155.264 99.1807 155.832 99.1775C158.122 99.1645 160.408 99.1856 162.694 99.1969C162.751 99.1986 162.808 99.244 163.03 99.3412Z" stroke="#040201" stroke-width="0.8"/>
<path fill-rule="evenodd" clip-rule="evenodd" d="M65.0368 38.1825C64.2639 35.7328 63.5154 33.3545 62.7246 30.853C70.9181 28.152 79.261 26.8534 87.8913 27.0318C87.9189 27.3398 87.9579 27.583 87.9579 27.8262C87.9644 29.7684 87.9676 31.709 87.9579 33.6512C87.9546 34.6434 87.8832 34.6952 86.8878 34.7455C84.1972 34.8833 81.4986 34.94 78.8161 35.1946C75.1675 35.5415 71.5839 36.297 68.0603 37.3216C67.0779 37.6069 66.0907 37.8825 65.0368 38.1825Z" fill="#040202"/>
<path fill-rule="evenodd" clip-rule="evenodd" d="M65.0368 38.1825C64.2639 35.7328 63.5154 33.3545 62.7246 30.853C70.9181 28.152 79.261 26.8534 87.8913 27.0318C87.9189 27.3398 87.9579 27.583 87.9579 27.8262C87.9644 29.7684 87.9676 31.709 87.9579 33.6512C87.9546 34.6434 87.8832 34.6952 86.8878 34.7455C84.1972 34.8833 81.4986 34.94 78.8161 35.1946C75.1675 35.5415 71.5839 36.297 68.0603 37.3216C67.0779 37.6069 66.0907 37.8825 65.0368 38.1825Z" stroke="#040201" stroke-width="0.8"/>
<path fill-rule="evenodd" clip-rule="evenodd" d="M117.4 33.4059C125.364 36.9272 132.405 41.58 138.728 47.4504C136.987 49.3602 135.286 51.2295 133.514 53.1749C127.758 47.8671 121.352 43.6163 114.172 40.4355C115.261 38.0636 116.312 35.7745 117.4 33.4059Z" fill="#040202"/>
<path fill-rule="evenodd" clip-rule="evenodd" d="M117.4 33.4059C125.364 36.9272 132.405 41.58 138.728 47.4504C136.987 49.3602 135.286 51.2295 133.514 53.1749C127.758 47.8671 121.352 43.6163 114.172 40.4355C115.261 38.0636 116.312 35.7745 117.4 33.4059Z" stroke="#040201" stroke-width="0.8"/>
<path fill-rule="evenodd" clip-rule="evenodd" d="M19.8616 118.042C17.3302 118.564 14.888 119.067 12.3209 119.595C10.5087 111.196 9.98751 102.796 11.0592 94.1974C11.4456 94.2169 11.8094 94.2201 12.1698 94.2574C13.727 94.4163 15.2826 94.5849 16.8398 94.7487C16.9957 94.7665 17.1532 94.7665 17.3091 94.7843C18.5399 94.9335 18.7022 95.1183 18.5983 96.3358C18.319 99.5847 18.2313 102.835 18.3515 106.094C18.4928 109.858 19.0172 113.571 19.7463 117.261C19.7885 117.473 19.8113 117.689 19.8616 118.042Z" fill="#040202"/>
<path fill-rule="evenodd" clip-rule="evenodd" d="M19.8616 118.042C17.3302 118.564 14.888 119.067 12.3209 119.595C10.5087 111.196 9.98751 102.796 11.0592 94.1974C11.4456 94.2169 11.8094 94.2201 12.1698 94.2574C13.727 94.4163 15.2826 94.5849 16.8398 94.7487C16.9957 94.7665 17.1532 94.7665 17.3091 94.7843C18.5399 94.9335 18.7022 95.1183 18.5983 96.3358C18.319 99.5847 18.2313 102.835 18.3515 106.094C18.4928 109.858 19.0172 113.571 19.7463 117.261C19.7885 117.473 19.8113 117.689 19.8616 118.042Z" stroke="#040201" stroke-width="0.8"/>
<path fill-rule="evenodd" clip-rule="evenodd" d="M43.1811 50.3312C41.533 48.269 39.9726 46.3154 38.3569 44.2922C45.029 38.7995 52.3716 34.6233 60.5132 31.6175C61.442 34.0396 62.3448 36.3904 63.2736 38.8141C59.6104 40.231 56.1144 41.8198 52.7711 43.7328C49.4245 45.6475 46.2695 47.841 43.1811 50.3312Z" fill="#040202"/>
<path fill-rule="evenodd" clip-rule="evenodd" d="M43.1811 50.3312C41.533 48.269 39.9726 46.3154 38.3569 44.2922C45.029 38.7995 52.3716 34.6233 60.5132 31.6175C61.442 34.0396 62.3448 36.3904 63.2736 38.8141C59.6104 40.231 56.1144 41.8198 52.7711 43.7328C49.4245 45.6475 46.2695 47.841 43.1811 50.3312Z" stroke="#040201" stroke-width="0.8"/>
<path fill-rule="evenodd" clip-rule="evenodd" d="M162.654 96.5563C160.061 96.8189 157.582 97.0686 154.977 97.3329C154.224 89.5819 152.379 82.1551 149.158 74.9812C151.532 73.9517 153.841 72.9498 156.26 71.9009C159.813 79.7832 161.917 87.9477 162.654 96.5563Z" fill="#040202"/>
<path fill-rule="evenodd" clip-rule="evenodd" d="M162.654 96.5563C160.061 96.8189 157.582 97.0686 154.977 97.3329C154.224 89.5818 152.379 82.1551 149.158 74.9812C151.532 73.9517 153.841 72.9498 156.26 71.9009C159.813 79.7832 161.917 87.9477 162.654 96.5563Z" stroke="#040201" stroke-width="0.8"/>
<path fill-rule="evenodd" clip-rule="evenodd" d="M115.221 32.5637C114.296 34.9517 113.404 37.249 112.482 39.6257C111.633 39.3452 110.839 39.0971 110.053 38.8183C106.393 37.5181 102.671 36.4238 98.8375 35.7931C96.5237 35.4121 94.1806 35.2208 91.8488 34.9517C91.5712 34.9193 91.2854 34.9371 91.0045 34.916C90.0562 34.8415 89.8338 34.6129 89.8841 33.6969C89.9848 31.8211 90.0936 29.947 90.2202 28.0729C90.2738 27.2688 90.5255 27.0564 91.2838 27.1342C93.4012 27.3515 95.5169 27.5622 97.6327 27.807C101.78 28.2869 105.82 29.2629 109.787 30.5339C111.396 31.0478 112.972 31.6509 114.562 32.2216C114.762 32.2929 114.94 32.4161 115.221 32.5637Z" fill="#040202"/>
<path fill-rule="evenodd" clip-rule="evenodd" d="M115.221 32.5637C114.296 34.9517 113.404 37.249 112.482 39.6257C111.633 39.3452 110.839 39.0971 110.053 38.8183C106.393 37.5181 102.671 36.4238 98.8375 35.7931C96.5237 35.4121 94.1806 35.2208 91.8488 34.9517C91.5712 34.9193 91.2854 34.9371 91.0045 34.916C90.0562 34.8415 89.8338 34.6129 89.8841 33.6969C89.9848 31.8211 90.0936 29.947 90.2202 28.0729C90.2738 27.2688 90.5255 27.0564 91.2838 27.1342C93.4012 27.3515 95.5169 27.5622 97.6327 27.807C101.78 28.2869 105.82 29.2629 109.787 30.5339C111.396 31.0478 112.972 31.6509 114.562 32.2216C114.762 32.2929 114.94 32.4161 115.221 32.5637Z" stroke="#040201" stroke-width="0.8"/>
<path fill-rule="evenodd" clip-rule="evenodd" d="M155.265 69.7865C152.93 70.9635 150.676 72.1 148.358 73.2689C144.912 66.3658 140.594 60.176 135.095 54.7174C136.857 52.8222 138.594 50.9513 140.383 49.0253C146.498 55.1292 151.459 61.9512 155.265 69.7865Z" fill="#040202"/>
<path fill-rule="evenodd" clip-rule="evenodd" d="M155.265 69.7865C152.93 70.9635 150.676 72.1 148.358 73.2689C144.912 66.3658 140.594 60.176 135.095 54.7174C136.857 52.8222 138.594 50.9513 140.383 49.0253C146.498 55.1292 151.459 61.9512 155.265 69.7865Z" stroke="#040201" stroke-width="0.8"/>
<path fill-rule="evenodd" clip-rule="evenodd" d="M19.3882 70.0905C20.5216 70.0905 21.551 70.0889 22.5789 70.0905C23.3161 70.0937 23.912 70.4326 24.4088 70.9368C25.8589 72.4105 25.7679 71.8252 24.9885 73.6604C23.1115 78.0766 21.7004 82.6484 20.4485 87.2721C20.0149 88.8722 19.5895 90.4756 19.156 92.0758C19.0764 92.3724 18.9725 92.6626 18.8556 93.0339C18.0551 92.9107 17.2903 92.794 16.5287 92.6724C15.1079 92.4438 13.6855 92.2249 12.2696 91.9736C11.4204 91.8212 11.3262 91.664 11.4707 90.8372C12.432 85.3688 13.8154 80.0188 15.9442 74.8747C16.1358 74.4127 16.3258 73.9474 16.4816 73.4724C16.7057 72.7979 17.1344 72.4526 17.8618 72.4202C19.2956 72.3553 19.4158 72.4656 19.3362 70.8687C19.3248 70.6563 19.3638 70.4391 19.3882 70.0905Z" fill="#040202"/>
<path fill-rule="evenodd" clip-rule="evenodd" d="M19.3882 70.0905C20.5216 70.0905 21.551 70.0889 22.5789 70.0905C23.3161 70.0937 23.912 70.4326 24.4088 70.9368C25.8589 72.4105 25.7679 71.8252 24.9885 73.6604C23.1115 78.0766 21.7004 82.6484 20.4485 87.2721C20.0149 88.8722 19.5895 90.4756 19.156 92.0758C19.0764 92.3724 18.9725 92.6626 18.8556 93.0339C18.0551 92.9107 17.2903 92.794 16.5287 92.6724C15.1079 92.4438 13.6855 92.2249 12.2696 91.9736C11.4204 91.8212 11.3262 91.664 11.4707 90.8372C12.432 85.3688 13.8154 80.0188 15.9442 74.8747C16.1358 74.4127 16.3258 73.9474 16.4816 73.4724C16.7057 72.7979 17.1344 72.4526 17.8618 72.4202C19.2956 72.3553 19.4158 72.4656 19.3362 70.8687C19.3248 70.6563 19.3638 70.4391 19.3882 70.0905Z" stroke="#040201" stroke-width="0.8"/>
<path fill-rule="evenodd" clip-rule="evenodd" d="M23.2188 145.156C18.4255 137.984 15.0334 130.279 12.8608 121.895C15.3322 121.219 17.7549 120.556 20.236 119.877C20.3513 120.172 20.4617 120.389 20.5234 120.618C21.3694 123.763 22.5531 126.791 23.7352 129.82C24.0486 130.617 24.2239 131.421 24.1979 132.286C24.1427 134.233 24.7468 135.985 25.9143 137.533C26.3381 138.096 26.5069 138.654 26.3738 139.364C26.1659 140.468 26.0409 141.588 25.8948 142.703C25.8217 143.264 25.6058 143.705 25.091 144C24.4935 144.339 23.9203 144.72 23.2188 145.156Z" fill="#040202"/>
<path fill-rule="evenodd" clip-rule="evenodd" d="M23.2188 145.156C18.4255 137.984 15.0334 130.279 12.8608 121.895C15.3322 121.219 17.7549 120.556 20.236 119.877C20.3513 120.172 20.4617 120.389 20.5234 120.618C21.3694 123.763 22.5531 126.791 23.7352 129.82C24.0486 130.617 24.2239 131.421 24.1979 132.286C24.1427 134.233 24.7468 135.985 25.9143 137.533C26.3381 138.096 26.5069 138.654 26.3738 139.364C26.1659 140.468 26.0409 141.588 25.8948 142.703C25.8217 143.264 25.6058 143.705 25.091 144C24.4935 144.339 23.9203 144.72 23.2188 145.156Z" stroke="#040201" stroke-width="0.8"/>
<path fill-rule="evenodd" clip-rule="evenodd" d="M155.403 136.28C155.158 135.863 155 135.601 154.848 135.335C153.638 133.221 152.5 131.065 150.915 129.182C150.251 128.393 150.348 127.947 151.267 126.7C153.562 127.582 155.882 128.472 158.305 129.401C157.342 131.684 156.403 133.907 155.403 136.28Z" fill="#040202"/>
<path fill-rule="evenodd" clip-rule="evenodd" d="M155.403 136.28C155.158 135.863 155 135.601 154.848 135.335C153.638 133.221 152.5 131.065 150.915 129.182C150.251 128.393 150.348 127.947 151.267 126.7C153.562 127.582 155.882 128.472 158.305 129.401C157.342 131.684 156.403 133.907 155.403 136.28Z" stroke="#040201" stroke-width="0.8"/>
<path fill-rule="evenodd" clip-rule="evenodd" d="M41.7554 51.5251C41.3121 51.9304 40.9484 52.2611 40.4321 52.7345C40.3428 51.7601 40.2713 50.956 40.1982 50.1535C40.2599 50.1178 40.3216 50.0822 40.3834 50.0481C40.812 50.5102 41.2407 50.9706 41.7554 51.5251Z" fill="#040202"/>
<path fill-rule="evenodd" clip-rule="evenodd" d="M91.8545 187.461C92.1857 185.672 92.5868 184.087 92.7476 182.479C92.9148 180.773 92.931 179.045 92.8775 177.328C92.7297 172.667 92.53 168.008 92.3108 163.35C92.2182 161.382 92.0217 159.418 91.8821 157.454C91.8545 157.055 91.8788 156.654 91.8788 156.178C92.3757 156.1 92.8304 156.024 93.2867 155.962C94.5272 155.798 95.771 155.652 97.0099 155.474C97.7958 155.362 98.3301 155.69 98.749 156.32C99.7492 157.826 100.374 159.49 100.819 161.224C101.089 162.285 101.316 163.356 101.519 164.431C101.737 165.586 101.662 166.72 101.267 167.85C100.108 171.175 99.4521 174.609 99.1403 178.111C98.9958 179.731 98.8448 181.352 98.7214 182.973C98.6727 183.646 98.3983 184.127 97.851 184.538C96.3604 185.655 94.7659 186.566 93.0122 187.191C92.6761 187.311 92.3124 187.357 91.8545 187.461Z" fill="#040202"/>
<path fill-rule="evenodd" clip-rule="evenodd" d="M148.629 126.8C143.621 126.242 138.678 125.692 133.65 125.135C133.45 123.94 133.257 122.774 133.062 121.61C132.984 121.151 133.241 120.851 133.526 120.542C134.142 119.876 134.794 119.232 135.322 118.499C138.182 114.521 137.079 109.555 134.595 106.877C132.653 104.784 132.976 105.28 132.971 102.626C132.951 88.1192 132.963 73.611 132.963 59.1028V55.7485C133.289 56.0257 133.52 56.2024 133.728 56.4018C139.27 61.7162 143.561 67.9157 146.814 74.8496C149.571 80.7297 151.423 86.8855 152.39 93.299C153.188 98.5841 153.343 103.895 152.854 109.226C152.318 115.03 151.014 120.647 148.939 126.091C148.863 126.294 148.765 126.488 148.629 126.8Z" fill="#040202"/>
</g>
</svg>
