<svg width="177" height="212" viewBox="0 0 177 212" fill="none" xmlns="http://www.w3.org/2000/svg">
<g opacity="0.43">
<path fill-rule="evenodd" clip-rule="evenodd" d="M46.0394 58.8713C46.0774 58.8405 46.1842 58.6979 46.3598 58.4452C46.4724 58.2806 46.6231 58.1983 46.8118 58.1983C46.8557 58.1983 47.0327 58.2203 47.3398 58.2644C47.4027 58.3276 47.4496 58.4613 47.4817 58.6626L47.9908 61.8721C48.0157 62.044 48.0288 62.1454 48.0288 62.1763C48.0288 62.2968 47.9966 62.3747 47.9294 62.4129C47.865 62.4511 47.688 62.4702 47.4057 62.4702C47.0853 62.4702 46.8776 62.429 46.784 62.3468C46.6889 62.2645 46.5104 61.9235 46.2471 61.324C45.6869 60.0543 45.1866 59.4209 44.7477 59.4209C44.4332 59.4209 44.2767 59.6413 44.2767 60.0837C44.2767 60.6318 44.7521 61.7119 45.7 63.3225C46.7884 65.1785 47.4949 66.5217 47.827 67.352C48.1546 68.1822 48.3214 69.111 48.3214 70.1397C48.3214 71.3594 48.0332 72.2925 47.4627 72.9435C46.8922 73.5945 46.2471 73.9193 45.5303 73.9193C45.0783 73.9193 44.6395 73.7885 44.2197 73.5313C44.0558 73.4285 43.9286 73.38 43.8335 73.38C43.753 73.38 43.6872 73.4388 43.6345 73.5593C43.5365 73.7988 43.2908 73.9193 42.9002 73.9193C42.7495 73.9193 42.6472 73.8958 42.593 73.8473C42.5404 73.8003 42.5009 73.6753 42.476 73.474L42.005 70.3204C41.9421 69.9163 41.9099 69.7017 41.9099 69.6768C41.9099 69.4931 42.0767 69.402 42.4102 69.402C42.8622 69.402 43.1299 69.4622 43.2118 69.5812C43.2922 69.7017 43.4093 69.9765 43.5599 70.4056C44.1129 71.9398 44.6688 72.7069 45.229 72.7069C45.4353 72.7069 45.6035 72.6305 45.7337 72.4792C45.8624 72.3278 45.9253 72.1382 45.9253 71.9119C45.9253 71.5137 45.7834 71.042 45.4967 70.4953C45.2115 69.9486 44.8604 69.3417 44.4464 68.6716C43.4517 67.0698 42.751 65.7899 42.34 64.8332C41.9274 63.8765 41.7212 62.8993 41.7212 61.9015C41.7212 60.7773 41.9669 59.8809 42.457 59.2122C42.947 58.5421 43.5468 58.2086 44.2577 58.2086C44.7477 58.2086 45.3416 58.429 46.0394 58.8713Z" fill="#040202"/>
<path fill-rule="evenodd" clip-rule="evenodd" d="M52.2538 61.9913L51.1874 69.3918H53.2851L52.2538 61.9913ZM53.3816 70.4807H51.0324L50.9227 71.3522C50.9227 71.3713 50.9153 71.3992 50.9036 71.4374C50.8495 71.6211 50.8217 71.7842 50.8217 71.9297C50.8217 72.1575 50.9695 72.35 51.2635 72.5072C51.42 72.5895 51.5166 72.6762 51.5531 72.7644C51.5912 72.8511 51.6116 72.998 51.6116 73.1993C51.6116 73.458 51.597 73.6138 51.5692 73.6681C51.5414 73.721 51.4727 73.7475 51.3659 73.7475H48.8864C48.7475 73.7475 48.6787 73.6035 48.6787 73.3125C48.6787 72.9657 48.7884 72.685 49.0093 72.4705C49.2156 72.2735 49.3355 72.0649 49.3677 71.8444L51.1128 60.6995C51.145 60.5291 51.1596 60.3807 51.1596 60.2543C51.1596 60.0588 51.0251 59.884 50.753 59.7326C50.6272 59.6576 50.5643 59.4901 50.5643 59.2315C50.5643 58.8847 50.5833 58.6701 50.6213 58.5878C50.6594 58.5041 50.7588 58.4644 50.9227 58.4644H54.5212C54.7421 58.4644 54.8971 58.5673 54.9834 58.7759C55.0727 58.9846 55.159 59.4402 55.2467 60.1396C55.2848 60.4115 55.3228 60.679 55.3608 60.945L56.9085 71.3522C56.9831 71.8577 57.1689 72.2427 57.4643 72.5072C57.5463 72.5777 57.6004 72.6336 57.6253 72.6733C57.6487 72.7144 57.6633 72.8393 57.6633 73.048C57.6633 73.3698 57.6399 73.5667 57.596 73.6387C57.5536 73.7122 57.4585 73.7475 57.3137 73.7475H53.1286C53.0028 73.7475 52.9399 73.6285 52.9399 73.3889C52.9399 73.0847 52.9545 72.8952 52.9867 72.8202C53.0174 72.7438 53.1066 72.6571 53.2588 72.5542C53.4767 72.4161 53.5864 72.2397 53.5864 72.0237C53.5864 71.8018 53.5191 71.289 53.3816 70.4807Z" fill="#040202"/>
<path fill-rule="evenodd" clip-rule="evenodd" d="M62.4696 59.5438V65.9259H63.0825C63.7042 65.9259 64.0158 65.2984 64.0158 64.042V60.9927C64.0158 60.4622 63.9178 60.089 63.7188 59.87C63.5214 59.6525 63.2112 59.5438 62.79 59.5438H62.4696ZM62.4696 67.0251V71.7217C62.4696 71.9422 62.4828 72.0921 62.5106 72.167C62.5398 72.2434 62.6188 72.3213 62.7461 72.4036C62.9143 72.5109 62.9977 72.6902 62.9977 72.9429C62.9977 73.3103 62.964 73.5351 62.8997 73.6204C62.8338 73.7056 62.7139 73.7482 62.5354 73.7482H58.558C58.3313 73.7482 58.2187 73.5851 58.2187 73.2559C58.2187 72.94 58.2274 72.7372 58.2465 72.6461C58.2655 72.5535 58.3269 72.4888 58.4352 72.4506C58.7804 72.311 58.9545 72.0392 58.9545 71.6365V60.5386C58.9545 60.1272 58.8023 59.8788 58.501 59.7892C58.3503 59.7392 58.2567 59.6892 58.2187 59.6393C58.1806 59.5893 58.1616 59.4424 58.1616 59.1984C58.1616 58.7091 58.2947 58.4637 58.558 58.4637H63.7715C64.8072 58.4637 65.7331 58.8545 66.5464 59.6378C67.3598 60.4211 67.7679 61.4718 67.7679 62.7914C67.7679 64.6665 66.8156 65.8907 64.911 66.4652C66.6518 66.8517 67.5221 67.9597 67.5221 69.7908V72.0436C67.5221 72.2331 67.5938 72.3757 67.7401 72.4697C67.9083 72.5844 67.9932 72.7563 67.9932 72.9899C67.9932 73.3573 67.9712 73.5748 67.9273 73.6439C67.8849 73.713 67.7679 73.7482 67.5792 73.7482H65.0529C64.7516 73.7482 64.5029 73.5763 64.3083 73.2324C64.1138 72.8885 64.0158 72.4639 64.0158 71.9583V68.142C64.0158 67.3969 63.6428 67.0251 62.8938 67.0251H62.4696Z" fill="#040202"/>
<path fill-rule="evenodd" clip-rule="evenodd" d="M71.955 61.9913L70.8901 69.3918H72.9863L71.955 61.9913ZM73.0828 70.4807H70.7335L70.6238 71.3522C70.6238 71.3713 70.6165 71.3992 70.6048 71.4374C70.5507 71.6211 70.5229 71.7842 70.5229 71.9297C70.5229 72.1575 70.6706 72.35 70.9647 72.5072C71.1212 72.5895 71.2177 72.6762 71.2558 72.7644C71.2923 72.8511 71.3128 72.998 71.3128 73.1993C71.3128 73.458 71.2982 73.6138 71.2704 73.6681C71.2426 73.721 71.1738 73.7475 71.0671 73.7475H68.5876C68.4486 73.7475 68.3799 73.6035 68.3799 73.3125C68.3799 72.9657 68.4896 72.685 68.7105 72.4705C68.9182 72.2735 69.0367 72.0649 69.0689 71.8444L70.814 60.6995C70.8462 60.5291 70.8608 60.3807 70.8608 60.2543C70.8608 60.0588 70.7262 59.884 70.4541 59.7326C70.3283 59.6576 70.2654 59.4901 70.2654 59.2315C70.2654 58.8847 70.2845 58.6701 70.3225 58.5878C70.3605 58.5041 70.46 58.4644 70.6238 58.4644H74.2223C74.4432 58.4644 74.5983 58.5673 74.6846 58.7759C74.7738 58.9846 74.8601 59.4402 74.9479 60.1396C74.9859 60.4115 75.024 60.679 75.062 60.945L76.6097 71.3522C76.6843 71.8577 76.87 72.2427 77.167 72.5072C77.2474 72.5777 77.3016 72.6336 77.3264 72.6733C77.3498 72.7144 77.3645 72.8393 77.3645 73.048C77.3645 73.3698 77.3411 73.5667 77.2972 73.6387C77.2548 73.7122 77.1611 73.7475 77.0148 73.7475H72.8298C72.7039 73.7475 72.641 73.6285 72.641 73.3889C72.641 73.0847 72.6557 72.8952 72.6879 72.8202C72.7186 72.7438 72.8093 72.6571 72.9599 72.5542C73.1779 72.4161 73.2876 72.2397 73.2876 72.0237C73.2876 71.8018 73.2203 71.289 73.0828 70.4807Z" fill="#040202"/>
<path fill-rule="evenodd" clip-rule="evenodd" d="M78.2316 58.4638H82.7283C82.9038 58.4638 83.0179 58.4903 83.0735 58.5402C83.1262 58.5902 83.1525 58.7327 83.1525 58.9664C83.1525 59.2691 83.1291 59.4601 83.0808 59.538C83.0355 59.6174 82.9301 59.6835 82.7663 59.7335C82.5776 59.7893 82.462 59.8554 82.4211 59.9319C82.3816 60.0068 82.3596 60.1714 82.3596 60.4242V70.8505C82.3596 72.3024 81.9705 73.5441 81.1909 74.5772C80.4126 75.6088 79.2073 76.1261 77.5806 76.1261C77.2734 76.1261 77.0877 76.1011 77.0248 76.0541C76.9619 76.007 76.9312 75.9042 76.9312 75.7469V75.3869C76.9312 75.2414 76.9458 75.1474 76.9721 75.1018C77.0028 75.0577 77.0906 75.0298 77.2413 75.018C78.3106 74.9225 78.8445 74.0643 78.8445 72.442V60.8591C78.8445 60.3977 78.8006 60.1038 78.7187 59.9745C78.6309 59.8437 78.4759 59.7452 78.2506 59.6762C78.0239 59.6071 77.9112 59.4557 77.9112 59.2221C77.9112 58.8312 77.9259 58.6064 77.9522 58.549C77.9829 58.4932 78.0751 58.4638 78.2316 58.4638Z" fill="#040202"/>
<path fill-rule="evenodd" clip-rule="evenodd" d="M87.969 59.6284V65.0363H88.6097C88.7853 65.0363 88.9155 64.9981 88.9974 64.9231C89.0778 64.8467 89.1422 64.6821 89.1861 64.4308C89.2607 63.9811 89.3221 63.7137 89.3689 63.6255C89.4172 63.5374 89.4903 63.4918 89.5898 63.4918C90.0857 63.4918 90.368 63.5138 90.4353 63.5535C90.4982 63.5947 90.5333 63.7548 90.5333 64.0326V67.1862C90.5333 67.3816 90.5011 67.5095 90.4382 67.5697C90.3768 67.6285 90.1808 67.6594 89.8546 67.6594C89.641 67.6594 89.4977 67.6197 89.4245 67.5403C89.3528 67.4625 89.2826 67.2391 89.2139 66.8732C89.1437 66.5396 89.0778 66.3324 89.0091 66.2574C88.9447 66.181 88.8423 66.1443 88.7048 66.1443H87.969V72.669H88.4693C88.7765 72.669 88.9886 72.5808 89.1042 72.4089C89.2212 72.2355 89.407 71.7344 89.6659 70.907C89.7727 70.5602 89.8824 70.3325 89.9965 70.2252C90.1091 70.1194 90.3066 70.065 90.5904 70.065C90.9795 70.065 91.174 70.1899 91.174 70.4427C91.174 70.5191 91.1609 70.6293 91.1375 70.7748L90.7879 72.9247C90.7235 73.3156 90.6723 73.5522 90.6313 73.6301C90.5918 73.7094 90.4631 73.7476 90.251 73.7476H83.9624C83.8059 73.7476 83.7035 73.7124 83.661 73.6389C83.6172 73.5669 83.5952 73.3567 83.5952 73.0099C83.5952 72.7895 83.7079 72.6279 83.9346 72.5265C84.2798 72.3824 84.4524 72.1826 84.4524 71.9298V60.1207C84.4466 60.0002 84.3061 59.8812 84.0282 59.7607C83.841 59.6784 83.7298 59.6005 83.6932 59.5241C83.6596 59.4491 83.642 59.2654 83.642 58.9759C83.642 58.7291 83.661 58.5821 83.6991 58.5351C83.7356 58.4881 83.8454 58.4645 84.0282 58.4645H90.0433C90.194 58.4645 90.3037 58.4895 90.3724 58.5395C90.4426 58.5894 90.4953 58.7099 90.5333 58.8995L91.0146 61.3433C91.038 61.4683 91.0512 61.555 91.0512 61.599C91.0512 61.7695 90.899 61.8547 90.5948 61.8547C90.2539 61.8547 90.0257 61.8151 89.9131 61.7357C89.799 61.6564 89.6878 61.4594 89.581 61.1435C89.3865 60.5763 89.2212 60.1809 89.0793 59.9605C88.9389 59.7401 88.7823 59.6284 88.6068 59.6284H87.969Z" fill="#040202"/>
<path fill-rule="evenodd" clip-rule="evenodd" d="M97.0467 67.7983L98.4963 60.4829C98.5095 60.4197 98.5153 60.3536 98.5153 60.2846C98.5153 60.0303 98.3559 59.829 98.0355 59.6762C97.8336 59.5762 97.7327 59.4793 97.7327 59.3837C97.7327 59.3411 97.7371 59.297 97.7429 59.2529V59.1031C97.7429 58.8209 97.7576 58.6446 97.7854 58.5726C97.8117 58.4991 97.8892 58.4638 98.0165 58.4638H100.347C100.454 58.4638 100.518 58.4932 100.538 58.552C100.562 58.6122 100.572 58.768 100.572 59.0193C100.572 59.3132 100.566 59.4954 100.553 59.563C100.541 59.6321 100.497 59.6894 100.421 59.7335C100.233 59.8584 100.114 59.9686 100.064 60.0597C100.012 60.1508 99.9503 60.383 99.8757 60.7563L97.4197 73.065L97.269 73.8145C97.2558 73.8836 97.19 73.9188 97.0715 73.9188H95.1786C95.0967 73.9188 95.0338 73.8806 94.9899 73.8042C94.9446 73.7293 94.8832 73.4839 94.8012 73.065L92.3437 60.4815C92.2867 60.1655 92.136 59.9348 91.8902 59.7893C91.7644 59.7158 91.6884 59.6556 91.6591 59.6159C91.6328 59.5748 91.6182 59.4881 91.6182 59.3573C91.6182 59.3132 91.6211 59.2691 91.6269 59.225C91.6328 59.156 91.6357 59.0913 91.6357 59.0281C91.6357 58.984 91.6328 58.9429 91.6269 58.9061V58.7739C91.6269 58.5667 91.7015 58.4638 91.8537 58.4638H96.1397C96.2831 58.4638 96.3562 58.5961 96.3562 58.8591C96.3562 58.8635 96.3489 59.0457 96.3387 59.4028C96.3255 59.4851 96.2582 59.5542 96.1397 59.61C95.8632 59.7423 95.7257 59.9539 95.7257 60.2434C95.7257 60.3125 95.7345 60.3904 95.7535 60.48L97.0467 67.7983Z" fill="#040202"/>
<path fill-rule="evenodd" clip-rule="evenodd" d="M105.352 58.8713C105.388 58.8405 105.497 58.6979 105.672 58.4452C105.785 58.2806 105.936 58.1983 106.124 58.1983C106.168 58.1983 106.345 58.2203 106.652 58.2644C106.715 58.3276 106.762 58.4613 106.794 58.6626L107.303 61.8721C107.328 62.044 107.34 62.1454 107.34 62.1763C107.34 62.2968 107.308 62.3747 107.24 62.4129C107.177 62.4511 107 62.4702 106.718 62.4702C106.398 62.4702 106.19 62.429 106.096 62.3468C106.001 62.2645 105.823 61.9235 105.56 61.324C104.999 60.0543 104.499 59.4209 104.06 59.4209C103.746 59.4209 103.589 59.6413 103.589 60.0837C103.589 60.6318 104.065 61.7119 105.013 63.3225C106.099 65.1785 106.807 66.5217 107.139 67.352C107.467 68.1822 107.632 69.111 107.632 70.1397C107.632 71.3594 107.346 72.2925 106.775 72.9435C106.205 73.5945 105.56 73.9193 104.843 73.9193C104.389 73.9193 103.952 73.7885 103.532 73.5313C103.368 73.4285 103.24 73.38 103.146 73.38C103.066 73.38 102.998 73.4388 102.947 73.5593C102.848 73.7988 102.603 73.9193 102.213 73.9193C102.062 73.9193 101.96 73.8958 101.906 73.8473C101.853 73.8003 101.813 73.6753 101.789 73.474L101.317 70.3204C101.255 69.9163 101.222 69.7017 101.222 69.6768C101.222 69.4931 101.389 69.402 101.723 69.402C102.175 69.402 102.442 69.4622 102.523 69.5812C102.605 69.7017 102.722 69.9765 102.872 70.4056C103.425 71.9398 103.981 72.7069 104.542 72.7069C104.748 72.7069 104.916 72.6305 105.046 72.4792C105.173 72.3278 105.238 72.1382 105.238 71.9119C105.238 71.5137 105.096 71.042 104.808 70.4953C104.524 69.9486 104.173 69.3417 103.759 68.6716C102.764 67.0698 102.064 65.7899 101.652 64.8332C101.24 63.8765 101.034 62.8993 101.034 61.9015C101.034 60.7773 101.279 59.8809 101.769 59.2122C102.26 58.5421 102.859 58.2086 103.57 58.2086C104.06 58.2086 104.654 58.429 105.352 58.8713Z" fill="#040202"/>
<path fill-rule="evenodd" clip-rule="evenodd" d="M114.892 62.7569L117.333 71.8062C117.416 72.1163 117.573 72.3279 117.804 72.4411C117.955 72.5175 118.031 72.688 118.031 72.9525C118.031 72.9833 118.021 73.1729 118.002 73.5212C117.983 73.6725 117.851 73.7475 117.607 73.7475H113.854C113.717 73.7475 113.625 73.7225 113.581 73.6725C113.537 73.6226 113.515 73.483 113.515 73.2567C113.515 73.2185 113.521 73.0539 113.534 72.7644C113.553 72.6497 113.628 72.5675 113.761 72.5175C113.961 72.4484 114.062 72.3309 114.062 72.1663C114.062 72.1222 114.056 72.0678 114.043 72.0061L112.724 67.2272L112.402 67.9399V71.8062C112.402 72.1281 112.544 72.3749 112.826 72.5454C112.946 72.6145 113.006 72.7732 113.006 73.0186C113.006 73.3096 112.981 73.5035 112.931 73.602C112.88 73.699 112.757 73.7475 112.563 73.7475H108.613C108.468 73.7475 108.369 73.7181 108.312 73.6578C108.255 73.5976 108.227 73.4271 108.227 73.1464C108.227 72.8672 108.249 72.6909 108.293 72.6189C108.337 72.5454 108.422 72.4793 108.547 72.4234C108.779 72.3279 108.896 72.1575 108.896 71.9106V60.5482C108.896 60.2631 108.783 60.0515 108.556 59.9119C108.406 59.8178 108.315 59.7399 108.283 59.6812C108.25 59.6209 108.236 59.496 108.236 59.3064C108.236 58.8773 108.25 58.629 108.283 58.5628C108.315 58.4967 108.406 58.4644 108.556 58.4644H112.855C113.057 58.4644 113.157 58.5467 113.157 58.7098C113.157 59.2212 113.148 59.5166 113.129 59.5959C113.11 59.6738 113.019 59.7605 112.855 59.856C112.554 60.0147 112.402 60.2161 112.402 60.4615V65.3139L114.45 60.6202C114.562 60.366 114.62 60.172 114.62 60.0412C114.62 59.9604 114.545 59.8634 114.394 59.7517C114.229 59.6385 114.129 59.5416 114.096 59.4578C114.061 59.3755 114.043 59.1683 114.043 58.8332C114.043 58.5878 114.134 58.4644 114.317 58.4644H116.824C116.967 58.4644 117.055 58.4923 117.087 58.5481C117.119 58.6055 117.136 58.7686 117.136 59.0375C117.136 59.3255 117.115 59.5004 117.074 59.5651C117.033 59.6268 116.904 59.7017 116.691 59.7899C116.528 59.8531 116.425 59.9031 116.381 59.9413C116.337 59.9795 116.283 60.0618 116.221 60.1867L114.892 62.7569Z" fill="#040202"/>
<path fill-rule="evenodd" clip-rule="evenodd" d="M124.149 60.4528C124.149 59.6637 123.894 59.2684 123.385 59.2684C123.171 59.2684 122.989 59.3669 122.838 59.5623C122.687 59.7577 122.613 59.9973 122.613 60.2824V71.7124C122.613 72.0974 122.687 72.3898 122.838 72.5882C122.989 72.7881 123.169 72.8865 123.376 72.8865C123.607 72.8865 123.796 72.7763 123.935 72.5544C124.078 72.334 124.149 72.0886 124.149 71.8167V60.4528ZM123.404 58.2089C124.329 58.2089 125.127 58.5189 125.802 59.1405C126.479 59.7636 127.029 60.6483 127.458 61.7975C127.885 62.9466 128.098 64.4206 128.098 66.2193C128.098 68.3795 127.681 70.2017 126.85 71.6888C126.017 73.176 124.842 73.9196 123.328 73.9196C121.89 73.9196 120.755 73.1922 119.926 71.7403C119.096 70.2884 118.681 68.4133 118.681 66.1164C118.681 63.7607 119.108 61.8548 119.958 60.3955C120.809 58.9377 121.957 58.2089 123.404 58.2089Z" fill="#040202"/>
<path fill-rule="evenodd" clip-rule="evenodd" d="M22.7524 4.16664C26.5075 8.05061 35.4555 9.70089 36.4794 14.6503C36.9037 16.6988 36.5526 19.8392 34.4681 24.9105C37.8457 12.7869 44.9594 15.0029 46.0462 15.4335C57.342 19.9009 41.9313 26.3183 43.8418 28.5755C45.4055 33.2751 50.6234 29.9113 50.7141 28.3962C60.588 34.1818 40.0253 39.8835 36.655 30.6314C42.5662 44.2833 75.832 41.9526 77.7395 29.1119C73.4534 38.0334 60.0292 36.0877 61.337 29.0222C67.6695 31.8276 69.5082 30.4741 68.8675 28.3183C67.6461 24.2154 50.0221 22.3432 59.4617 14.8957C66.3193 12.2917 71.8136 13.4379 77.7395 21.3337C69.1689 12.2373 72.3066 8.65164 83.5176 0.858734C101.632 10.8559 94.237 16.0757 90.3913 21.9597C93.8435 23.294 94.0366 10.2799 109.172 15.1499C116.786 23.9583 104.019 23.3249 99.452 29.3808C102.037 32.6608 105.511 29.4014 106.794 28.0391C115.641 33.6865 94.9275 40.899 89.6116 28.9326C96.3581 41.093 118.666 45.4369 131.631 31.2574C125.788 39.1032 110.692 35.5102 117.727 28.7533C122.241 32.1685 123.366 30.8165 123.499 29.9363C124.413 23.8951 109.107 23.1721 120.644 15.7113C128.819 14.4769 133.126 16.4828 134.129 25.178C131.689 9.03519 135.926 10.3563 144.754 5.33051L134.287 45.5633L132.541 48.2643C120.843 42.9578 61.7085 44.3083 36.1576 48.0262L22.7524 4.16664Z" fill="#040202"/>
<mask id="mask0" mask-type="alpha" maskUnits="userSpaceOnUse" x="22" y="0" width="124" height="49">
<path fill-rule="evenodd" clip-rule="evenodd" d="M145.381 0.387878H22.3701L22.3701 48.7731H145.381V0.387878Z" fill="white"/>
</mask>
<g mask="url(#mask0)">
<path fill-rule="evenodd" clip-rule="evenodd" d="M92.999 44.3131C110.766 44.3131 126.525 45.3227 132.39 47.7606L133.917 45.3976L144.13 6.13625C142.983 6.7608 141.918 7.28689 140.959 7.76008C135.216 10.5948 132.716 11.8277 134.323 23.7118C134.402 24.1659 134.47 24.6391 134.527 25.1314L133.734 25.2386C133.661 24.7581 133.593 24.2923 133.533 23.8426C132.995 20.7492 131.929 18.6228 130.293 17.3649C128.299 15.8322 125.276 15.431 120.789 16.0967C118.082 17.8572 116.751 19.3179 116.721 20.5597C116.689 21.9072 118.238 23.0211 119.881 24.1997C121.949 25.6854 124.293 27.368 123.895 29.997C123.809 30.5657 123.466 31.0124 122.956 31.2211C121.863 31.6693 120.119 31.0154 117.764 29.2828C116.56 30.5201 116.084 31.6928 116.383 32.6892C116.739 33.8648 118.18 34.7832 120.238 35.1462C122.855 35.6091 126.372 35.1021 129.107 33.1609C129.884 32.4834 130.628 31.7589 131.336 30.986L131.951 31.4988C131.278 32.4011 130.486 33.1565 129.622 33.7766C123.709 38.9156 115.936 41.2815 107.823 40.3263C101.621 39.5915 96.0182 36.9332 92.2427 33.0845C91.0315 32.0852 89.9914 30.7744 89.2469 29.0976L89.9607 28.7376C90.6994 30.069 91.6386 31.3137 92.7459 32.4526C95.3512 34.6069 98.8268 35.2212 101.761 34.9508C105.2 34.6348 108.102 33.1094 108.514 31.4063C108.797 30.2306 107.825 29.2343 106.85 28.5583C105.573 29.8618 103.754 31.2784 101.909 31.1961C100.853 31.1491 99.921 30.623 99.1384 29.6296L98.9453 29.3857L99.1325 29.1373C100.812 26.911 103.55 25.5634 105.965 24.376C108.528 23.1152 110.741 22.0248 111.092 20.2849C111.343 19.049 110.64 17.4825 108.942 15.4986C99.1223 12.3803 95.8602 16.9755 93.6982 20.0233C92.6069 21.5575 91.6693 22.883 90.2474 22.3349L89.7852 22.1556L90.0573 21.7382C90.5327 21.0108 91.0681 20.2849 91.5844 19.5839C93.4919 16.999 95.2941 14.5552 94.6636 11.6646C93.9732 8.48896 90.3323 5.10758 83.5419 1.33089C76.9944 5.89524 73.6065 8.82989 73.2671 12.0952C73.0872 13.8336 73.785 15.7396 75.4906 18.0585C76.3522 18.9432 77.205 19.9528 78.0593 21.0916L77.4493 21.6104C76.4239 20.5215 75.5652 19.509 74.8645 18.5552C70.3298 13.9042 65.7234 12.9637 59.6601 15.2503C57.8374 16.6992 56.9787 18.0115 57.106 19.1475C57.3327 21.1651 60.6328 22.7287 63.5424 24.1071C66.231 25.3827 68.7704 26.5862 69.2517 28.2027C69.5326 29.1461 69.376 29.9411 68.8099 30.4422C67.7128 31.4151 65.248 31.1241 61.6641 29.6017C61.4974 31.7193 62.8183 33.4327 65.2816 34.2439C69.3322 35.5797 74.9669 33.9588 77.3791 28.9375L78.1354 29.1711C77.1758 35.6326 69.0689 38.964 61.8016 39.9266C52.5333 41.1536 41.6851 38.992 37.3288 32.6671C36.8973 32.1175 36.5404 31.4871 36.28 30.77L37.0216 30.4716C37.2762 31.058 37.5833 31.6135 37.9373 32.1396C39.7936 34.529 43.2532 35.2638 46.2285 35.0904C49.6691 34.889 52.5508 33.5371 52.9311 31.9441C53.2047 30.7949 52.0871 29.7486 50.9417 29.0065C50.4122 30.0543 48.7665 31.1491 47.2481 31.3504C46.2168 31.4856 44.3679 31.3298 43.4843 28.7714C42.69 27.7148 44.1236 26.401 45.9301 24.7464C47.8025 23.0299 50.1328 20.8933 49.7876 19.0152C49.5681 17.8205 48.2619 16.7404 45.9009 15.8072C45.4679 15.6353 43.1844 14.8447 40.6991 16.0879C38.8809 16.9961 37.3698 18.7492 36.1834 21.3194C35.8397 22.4715 35.3921 23.7177 34.8376 25.0638L34.0828 24.8022C34.4676 23.4208 34.9137 22.1761 35.4184 21.0696C36.1922 18.4509 36.4175 16.3274 36.0883 14.7315C35.512 11.9482 32.0583 10.176 28.7202 8.46251C26.8961 7.52495 25.0222 6.56388 23.5535 5.41618L36.4394 47.5799C50.2381 45.6048 72.9029 44.3131 92.999 44.3131ZM132.689 48.7731L132.376 48.6306C120.858 43.4079 61.5559 44.7378 36.2156 48.4249L35.8748 48.4748L35.7753 48.1442L22.3701 4.28464L23.0401 3.8864C24.4941 5.38973 26.8273 6.58739 29.083 7.74538C32.5908 9.54555 36.2171 11.406 36.871 14.5669C37.1035 15.6897 37.0948 17.0049 36.8432 18.5332C37.851 17.0872 39.0184 16.0291 40.3422 15.3678C43.1318 13.9747 45.7063 14.8652 46.1934 15.0578C48.866 16.1158 50.2981 17.362 50.5746 18.8697C51.0002 21.1872 48.4886 23.4899 46.4684 25.34C45.1914 26.5113 43.7432 27.8382 44.147 28.3144L44.2201 28.4481C44.8784 30.4217 46.1788 30.6833 47.1428 30.5539C48.7885 30.335 50.2791 28.9566 50.3156 28.3717L50.3551 27.7192L50.9154 28.0499C53.6479 29.6487 53.9419 31.152 53.7094 32.1322C53.1813 34.3483 49.5696 35.7017 46.2754 35.8927C44.5141 35.9941 42.5935 35.7943 40.8791 35.155C45.9682 38.917 54.334 40.1029 61.6978 39.1286C67.4261 38.3704 73.6928 36.1234 76.2469 32.0102C73.2174 35.2594 68.5686 36.1734 65.033 35.0081C62.0035 34.0117 60.4368 31.6899 60.943 28.9492L61.0351 28.4496L61.4988 28.6538C66.3817 30.8184 67.8694 30.2042 68.2819 29.8397C68.6871 29.4782 68.6154 28.8757 68.4837 28.4319C68.1049 27.1593 65.6122 25.9778 63.2015 24.836C59.9497 23.2945 56.5867 21.7015 56.3102 19.2386C56.1464 17.7749 57.0958 16.251 59.2154 14.5802L59.3207 14.5199C64.7623 12.4537 69.2005 12.9064 73.3578 16.1364C72.6206 14.6463 72.3382 13.2987 72.4714 12.0114C72.8458 8.40226 76.4078 5.31184 83.2903 0.528526L83.4936 0.387451L83.7101 0.506483C90.9554 4.50507 94.6841 7.99667 95.4448 11.4927C96.1528 14.7403 94.1575 17.4457 92.2281 20.063C91.8521 20.5729 91.4674 21.0946 91.1061 21.6177C91.6693 21.4561 92.2193 20.7198 93.0458 19.556C95.2107 16.5052 98.8341 11.4016 109.295 14.7668L109.4 14.8006L109.475 14.8858C111.398 17.1107 112.184 18.93 111.877 20.445C111.448 22.5744 109.069 23.7427 106.316 25.0976C104.078 26.1997 101.552 27.4429 99.9693 29.3724C100.556 30.0249 101.205 30.36 101.944 30.3923C103.632 30.4658 105.338 29.0036 106.502 27.7618L106.73 27.5208L107.008 27.7001C109.317 29.1726 109.524 30.6303 109.292 31.5944C108.789 33.6855 105.721 35.3946 101.834 35.7502C99.94 35.9265 97.8306 35.7502 95.8427 35.0698C99.194 37.4034 103.388 38.9905 107.918 39.5269C114.393 40.294 120.655 38.8744 125.87 35.5738C123.858 36.1543 121.8 36.2381 120.099 35.9383C117.738 35.5224 116.063 34.3938 115.618 32.9228C115.33 31.9676 115.414 30.4187 117.451 28.4643L117.696 28.2277L117.968 28.4334C121.037 30.7523 122.267 30.6362 122.653 30.476C122.987 30.3409 123.079 30.0425 123.105 29.8765C123.427 27.7354 121.388 26.2703 119.416 24.8536C117.596 23.5472 115.877 22.3128 115.92 20.5406C115.959 18.9785 117.39 17.337 120.427 15.3737L120.5 15.3267L120.585 15.3135C125.415 14.5846 128.56 15.0195 130.779 16.7257C131.734 17.4604 132.509 18.4465 133.114 19.7044C132.594 10.993 135.403 9.6058 140.605 7.03854C141.782 6.45807 143.115 5.79972 144.556 4.97973L145.381 4.51095L134.623 45.7827L132.689 48.7731Z" fill="#040202"/>
</g>
<path fill-rule="evenodd" clip-rule="evenodd" d="M39.1491 52.2183C36.2103 54.3917 37.8911 56.283 39.0525 56.9561C70.1884 51.4806 99.6582 51.9288 129.893 57.1603C130.863 56.6284 132.829 54.4696 129.536 52.5137C97.8136 47.3733 68.6817 47.6554 39.1491 52.2183Z" fill="#040202"/>
<path fill-rule="evenodd" clip-rule="evenodd" d="M83.4162 52.6567C98.6514 52.6567 114.04 54.016 129.817 56.739C130.295 56.4304 130.952 55.7442 130.965 54.9536C130.978 54.2306 130.45 53.5384 129.397 52.8977C98.7596 47.941 70.1324 47.8469 39.3081 52.6008C38.3426 53.3341 37.8716 54.0674 37.9126 54.7831C37.9535 55.5296 38.5489 56.1615 39.1311 56.5333C53.8733 53.9499 68.5701 52.6567 83.4162 52.6567ZM129.963 57.5796L129.825 57.5561C98.666 52.1644 68.9958 52.0983 39.1223 57.3518L38.9789 57.3768L38.8517 57.3033C38.0515 56.8404 37.1753 55.9455 37.1124 54.8272C37.0568 53.8059 37.661 52.8183 38.9131 51.894L38.9906 51.8352L39.0887 51.822C70.0578 47.0343 98.8181 47.1298 129.6 52.1159L129.74 52.1673C131.102 52.977 131.784 53.919 131.765 54.9683C131.744 56.1718 130.748 57.1505 130.084 57.5135L129.963 57.5796Z" fill="#040202"/>
<path fill-rule="evenodd" clip-rule="evenodd" d="M23.2866 162.582C23.2866 162.127 23.1389 161.899 22.8463 161.899C22.722 161.899 22.6167 161.956 22.5304 162.068C22.4426 162.183 22.4002 162.321 22.4002 162.484V169.081C22.4002 169.302 22.4426 169.471 22.5304 169.586C22.6167 169.701 22.7205 169.758 22.8405 169.758C22.9751 169.758 23.0818 169.695 23.1652 169.567C23.2457 169.439 23.2866 169.297 23.2866 169.141V162.582ZM22.8566 161.288C23.3905 161.288 23.8513 161.467 24.2418 161.825C24.631 162.184 24.9498 162.695 25.1956 163.358C25.4428 164.021 25.5657 164.873 25.5657 165.911C25.5657 167.157 25.3258 168.209 24.8445 169.067C24.3647 169.925 23.6874 170.355 22.8127 170.355C21.9833 170.355 21.3279 169.934 20.8496 169.097C20.3712 168.259 20.1313 167.176 20.1313 165.85C20.1313 164.491 20.3771 163.39 20.8686 162.55C21.3601 161.708 22.0228 161.288 22.8566 161.288Z" fill="#040202"/>
<path fill-rule="evenodd" clip-rule="evenodd" d="M28.5424 162.058V165.742H28.8964C29.2548 165.742 29.4348 165.379 29.4348 164.654V162.894C29.4348 162.588 29.3777 162.372 29.2636 162.246C29.1495 162.121 28.9696 162.058 28.7268 162.058H28.5424ZM28.5424 166.375V169.086C28.5424 169.214 28.5498 169.299 28.5673 169.344C28.5819 169.386 28.6273 169.432 28.7019 169.479C28.7984 169.542 28.8467 169.645 28.8467 169.79C28.8467 170.002 28.8277 170.133 28.7897 170.181C28.7516 170.231 28.6814 170.256 28.5805 170.256H26.2853C26.1537 170.256 26.0893 170.161 26.0893 169.971C26.0893 169.789 26.0937 169.671 26.1039 169.62C26.1156 169.565 26.1522 169.529 26.2136 169.507C26.4126 169.427 26.5135 169.27 26.5135 169.036V162.632C26.5135 162.394 26.4258 162.25 26.2517 162.2C26.1654 162.171 26.1098 162.143 26.0893 162.113C26.0674 162.084 26.0557 161.999 26.0557 161.858C26.0557 161.576 26.1317 161.435 26.2853 161.435H29.2929C29.8912 161.435 30.4251 161.661 30.8946 162.112C31.3642 162.565 31.5997 163.17 31.5997 163.933C31.5997 165.014 31.0497 165.721 29.9511 166.053C30.9561 166.275 31.4578 166.914 31.4578 167.971V169.272C31.4578 169.38 31.4988 169.463 31.5836 169.518C31.6816 169.583 31.7299 169.683 31.7299 169.818C31.7299 170.03 31.7167 170.155 31.6919 170.196C31.667 170.236 31.5997 170.256 31.4915 170.256H30.033C29.859 170.256 29.7156 170.156 29.603 169.958C29.4903 169.759 29.4348 169.514 29.4348 169.222V167.02C29.4348 166.59 29.2183 166.375 28.7867 166.375H28.5424Z" fill="#040202"/>
<path fill-rule="evenodd" clip-rule="evenodd" d="M32.062 161.894V161.605C32.062 161.491 32.122 161.436 32.2419 161.436H34.8472C34.9452 161.436 35.0081 161.447 35.0373 161.472C35.0666 161.499 35.0812 161.575 35.0812 161.703C35.0812 161.896 35.071 162.016 35.0505 162.063C35.0315 162.11 34.9876 162.139 34.9174 162.151C34.6921 162.191 34.5809 162.335 34.5809 162.582V169.151C34.5809 169.29 34.6614 169.399 34.8252 169.48C34.9306 169.53 34.9935 169.577 35.0154 169.616C35.0373 169.656 35.049 169.725 35.049 169.824V170.037C35.049 170.154 35.0373 170.219 35.0154 170.234C34.9935 170.248 34.9379 170.256 34.8472 170.256H32.1922C32.0912 170.256 32.04 170.216 32.04 170.135C32.04 169.874 32.0488 169.712 32.0664 169.655C32.0854 169.596 32.1483 169.55 32.258 169.518C32.454 169.462 32.5506 169.359 32.5506 169.206V162.72C32.5506 162.566 32.533 162.45 32.4964 162.372C32.4599 162.294 32.3809 162.229 32.258 162.178C32.1673 162.138 32.1117 162.103 32.0912 162.072C32.0708 162.041 32.062 161.981 32.062 161.894Z" fill="#040202"/>
<path fill-rule="evenodd" clip-rule="evenodd" d="M39.2047 169.721C38.8785 170.143 38.4748 170.354 37.9965 170.354C37.2504 170.354 36.639 169.914 36.1636 169.032C35.6881 168.15 35.4512 167.104 35.4512 165.894C35.4512 164.525 35.7189 163.414 36.2557 162.563C36.7926 161.712 37.4274 161.287 38.1603 161.287C38.5114 161.287 38.8244 161.379 39.0965 161.561C39.1828 161.615 39.2501 161.642 39.2969 161.642C39.3627 161.642 39.4183 161.58 39.4666 161.456C39.509 161.343 39.5851 161.287 39.6948 161.287H39.7591L39.9347 161.298C40.0502 161.317 40.1219 161.398 40.1512 161.545L40.4993 163.282C40.5359 163.461 40.5535 163.581 40.5535 163.643C40.5535 163.771 40.4569 163.834 40.2653 163.834C40.0766 163.834 39.9552 163.806 39.901 163.752C39.8469 163.698 39.7387 163.506 39.5748 163.177C39.3569 162.733 39.1667 162.425 38.9999 162.251C38.8361 162.078 38.6591 161.993 38.4704 161.993C37.9731 161.993 37.7244 162.39 37.7244 163.183V169.052C37.7244 169.483 37.8619 169.698 38.134 169.698C38.4309 169.698 38.5787 169.483 38.5787 169.054V166.2C38.5787 166.015 38.5158 165.894 38.3885 165.84C38.251 165.781 38.1822 165.662 38.1822 165.482C38.1822 165.288 38.1998 165.171 38.2364 165.132C38.2729 165.094 38.3505 165.074 38.4704 165.074H40.7714C40.884 165.074 40.9587 165.095 40.9981 165.135C41.0347 165.176 41.0552 165.268 41.0552 165.411C41.0552 165.561 41.042 165.662 41.0186 165.712C40.9952 165.765 40.9382 165.806 40.8475 165.84C40.7173 165.887 40.6515 165.987 40.6515 166.14V169.852C40.6515 170.074 40.6368 170.212 40.6076 170.269C40.5798 170.327 40.5037 170.354 40.3794 170.354C40.2682 170.354 40.1863 170.346 40.138 170.329C40.0883 170.313 40.021 170.263 39.9347 170.18C39.6919 169.943 39.4476 169.79 39.2047 169.721Z" fill="#040202"/>
<path fill-rule="evenodd" clip-rule="evenodd" d="M41.3486 161.894V161.605C41.3486 161.491 41.4086 161.436 41.5285 161.436H44.1338C44.2318 161.436 44.2962 161.447 44.324 161.472C44.3532 161.499 44.3678 161.575 44.3678 161.703C44.3678 161.896 44.3576 162.016 44.3371 162.063C44.3181 162.11 44.2742 162.139 44.2055 162.151C43.9802 162.191 43.8676 162.335 43.8676 162.582V169.151C43.8676 169.29 43.9495 169.399 44.1119 169.48C44.2172 169.53 44.2801 169.577 44.3035 169.616C44.324 169.656 44.3357 169.725 44.3357 169.824V170.037C44.3357 170.154 44.324 170.219 44.3035 170.234C44.2801 170.248 44.2245 170.256 44.1338 170.256H41.4788C41.3779 170.256 41.3267 170.216 41.3267 170.135C41.3267 169.874 41.3354 169.712 41.3545 169.655C41.372 169.596 41.4364 169.55 41.5446 169.518C41.7406 169.462 41.8386 169.359 41.8386 169.206V162.72C41.8386 162.566 41.8196 162.45 41.7831 162.372C41.7479 162.294 41.6675 162.229 41.5446 162.178C41.4539 162.138 41.3983 162.103 41.3793 162.072C41.3588 162.041 41.3486 161.981 41.3486 161.894Z" fill="#040202"/>
<path fill-rule="evenodd" clip-rule="evenodd" d="M45.9513 165.255V169.113C45.9513 169.273 46.042 169.393 46.2234 169.474C46.3755 169.543 46.4516 169.642 46.4516 169.769C46.4516 170.035 46.4443 170.182 46.4326 170.212C46.4194 170.241 46.3667 170.256 46.2731 170.256H44.8293C44.7576 170.256 44.7123 170.228 44.6947 170.171C44.6757 170.115 44.6669 169.975 44.6669 169.753C44.6669 169.65 44.7152 169.58 44.8118 169.54C44.9975 169.455 45.0912 169.361 45.0912 169.255V162.795C45.0912 162.639 45.0765 162.522 45.0487 162.442C45.0195 162.364 44.9551 162.3 44.8542 162.25C44.7649 162.206 44.705 162.159 44.6743 162.107C44.6435 162.056 44.6289 161.959 44.6289 161.818C44.6289 161.562 44.6962 161.434 44.8293 161.434H46.3345L48.166 165.7V162.556C48.166 162.381 48.0767 162.256 47.8983 162.184C47.793 162.135 47.7257 162.082 47.695 162.022C47.6642 161.962 47.6481 161.844 47.6481 161.669C47.6481 161.561 47.6584 161.493 47.6818 161.47C47.7023 161.446 47.7447 161.434 47.8061 161.434H49.307C49.3918 161.446 49.4328 161.567 49.4328 161.796C49.4328 161.929 49.4255 162.016 49.4079 162.051C49.3918 162.088 49.3552 162.119 49.2967 162.146C49.1695 162.195 49.0905 162.245 49.0583 162.292C49.0247 162.341 49.0086 162.406 49.0086 162.489V170.256H48.0841L45.9513 165.255Z" fill="#040202"/>
<path fill-rule="evenodd" clip-rule="evenodd" d="M51.6636 163.47L51.0493 167.741H52.259L51.6636 163.47ZM52.3146 168.37H50.9586L50.8957 168.872C50.8957 168.884 50.8927 168.9 50.884 168.921C50.8547 169.028 50.8386 169.122 50.8386 169.206C50.8386 169.337 50.9235 169.448 51.0931 169.54C51.1838 169.587 51.238 169.637 51.2599 169.687C51.2818 169.738 51.2935 169.822 51.2935 169.938C51.2935 170.088 51.2848 170.177 51.2687 170.208C51.2526 170.239 51.2131 170.255 51.1517 170.255H49.721C49.6406 170.255 49.6011 170.171 49.6011 170.004C49.6011 169.804 49.664 169.641 49.7912 169.518C49.9112 169.404 49.9799 169.285 49.9975 169.157L51.0054 162.724C51.0244 162.625 51.0332 162.54 51.0332 162.467C51.0332 162.355 50.9556 162.254 50.7977 162.167C50.7245 162.123 50.6894 162.027 50.6894 161.877C50.6894 161.676 50.6996 161.553 50.7216 161.506C50.7435 161.459 50.802 161.435 50.8957 161.435H52.9729C53.1001 161.435 53.1879 161.495 53.2405 161.614C53.2903 161.735 53.3415 161.998 53.3927 162.402C53.4132 162.558 53.4351 162.714 53.457 162.866L54.3508 168.872C54.3947 169.165 54.5 169.387 54.6712 169.54C54.718 169.579 54.7487 169.612 54.7633 169.635C54.778 169.659 54.7853 169.731 54.7853 169.851C54.7853 170.036 54.7721 170.151 54.7472 170.192C54.7224 170.235 54.6682 170.255 54.5849 170.255H52.1683C52.0966 170.255 52.0601 170.186 52.0601 170.048C52.0601 169.873 52.0688 169.763 52.0879 169.719C52.1054 169.676 52.1566 169.625 52.2444 169.566C52.3702 169.487 52.4331 169.384 52.4331 169.259C52.4331 169.133 52.3936 168.836 52.3146 168.37Z" fill="#040202"/>
<path fill-rule="evenodd" clip-rule="evenodd" d="M57.5165 169.638H57.8267C57.9861 169.638 58.1046 169.575 58.1807 169.447C58.2567 169.319 58.3562 169.025 58.4805 168.562C58.523 168.383 58.5756 168.274 58.6371 168.236C58.7 168.198 58.8038 168.178 58.953 168.178C59.1169 168.178 59.2222 168.193 59.269 168.22C59.3158 168.248 59.3392 168.298 59.3392 168.37C59.3392 168.421 59.3304 168.503 59.3129 168.616L59.1213 169.921C59.1008 170.057 59.0715 170.146 59.0379 170.189C59.0028 170.233 58.9325 170.255 58.8272 170.255H55.2477C55.0956 170.255 55.0195 170.161 55.0195 169.971C55.0195 169.826 55.0298 169.732 55.0488 169.691C55.0693 169.648 55.1117 169.616 55.1775 169.594C55.3838 169.529 55.4876 169.336 55.4876 169.021V162.528C55.4876 162.393 55.4218 162.296 55.2916 162.237C55.179 162.19 55.1102 162.137 55.0854 162.08C55.059 162.021 55.0473 161.924 55.0473 161.79C55.0473 161.629 55.0576 161.53 55.0795 161.492C55.1014 161.454 55.16 161.435 55.2536 161.435H57.7608C57.8559 161.435 57.9203 161.457 57.9554 161.502C57.989 161.548 58.0066 161.671 58.0066 161.871C58.0066 161.992 57.9949 162.074 57.9715 162.115C57.9466 162.156 57.8866 162.195 57.7886 162.227C57.6072 162.289 57.5165 162.409 57.5165 162.588V169.638Z" fill="#040202"/>
<path fill-rule="evenodd" clip-rule="evenodd" d="M60.922 165.255V169.113C60.922 169.273 61.0127 169.393 61.1941 169.474C61.3477 169.543 61.4223 169.642 61.4223 169.769C61.4223 170.035 61.4164 170.182 61.4047 170.212C61.3916 170.241 61.3374 170.256 61.2438 170.256H59.8C59.7298 170.256 59.683 170.228 59.6654 170.171C59.6479 170.115 59.6391 169.975 59.6391 169.753C59.6391 169.65 59.6859 169.58 59.7839 169.54C59.9697 169.455 60.0633 169.361 60.0633 169.255V162.795C60.0633 162.639 60.0487 162.522 60.0194 162.442C59.9916 162.364 59.9273 162.3 59.8263 162.25C59.7357 162.206 59.6757 162.159 59.645 162.107C59.6157 162.056 59.6011 161.959 59.6011 161.818C59.6011 161.562 59.6684 161.434 59.8 161.434H61.3052L63.1367 165.7V162.556C63.1367 162.381 63.0475 162.256 62.8705 162.184C62.7651 162.135 62.6964 162.082 62.6657 162.022C62.6349 161.962 62.6203 161.844 62.6203 161.669C62.6203 161.561 62.6306 161.493 62.6525 161.47C62.6744 161.446 62.7154 161.434 62.7783 161.434H64.2791C64.3625 161.446 64.4035 161.567 64.4035 161.796C64.4035 161.929 64.3962 162.016 64.3801 162.051C64.364 162.088 64.326 162.119 64.2689 162.146C64.1416 162.195 64.0612 162.245 64.029 162.292C63.9968 162.341 63.9793 162.406 63.9793 162.489V170.256H63.0548L60.922 165.255Z" fill="#040202"/>
<path fill-rule="evenodd" clip-rule="evenodd" d="M67.9732 162.582C67.9732 162.127 67.8254 161.899 67.5328 161.899C67.4085 161.899 67.3032 161.956 67.2169 162.068C67.1291 162.183 67.0867 162.321 67.0867 162.484V169.081C67.0867 169.302 67.1291 169.471 67.2169 169.586C67.3032 169.701 67.407 169.758 67.527 169.758C67.6616 169.758 67.7684 169.695 67.8503 169.567C67.9322 169.439 67.9732 169.297 67.9732 169.141V162.582ZM67.5431 161.288C68.0755 161.288 68.5378 161.467 68.9269 161.825C69.3175 162.184 69.6364 162.695 69.8821 163.358C70.1293 164.021 70.2522 164.873 70.2522 165.911C70.2522 167.157 70.0123 168.209 69.531 169.067C69.0512 169.925 68.374 170.355 67.4992 170.355C66.6683 170.355 66.0144 169.934 65.5346 169.097C65.0563 168.259 64.8179 167.176 64.8179 165.85C64.8179 164.491 65.0636 163.39 65.5551 162.55C66.0466 161.708 66.7093 161.288 67.5431 161.288Z" fill="#040202"/>
<path fill-rule="evenodd" clip-rule="evenodd" d="M31.6323 175.473V180.053H32.0126C32.1443 180.053 32.2613 179.981 32.3637 179.837C32.4676 179.693 32.5188 179.454 32.5188 179.117V176.391C32.5188 175.778 32.3154 175.473 31.9088 175.473H31.6323ZM31.6323 180.681V182.502C31.6323 182.713 31.723 182.851 31.9044 182.916C31.9921 182.95 32.0521 182.994 32.0872 183.051C32.1209 183.107 32.1384 183.211 32.1384 183.366C32.1384 183.511 32.1179 183.601 32.0784 183.636C32.039 183.67 31.9585 183.687 31.8385 183.687H29.3752C29.2435 183.687 29.1792 183.573 29.1792 183.342C29.1792 183.16 29.1879 183.048 29.2055 183.007C29.2245 182.964 29.2859 182.928 29.3913 182.894C29.4849 182.866 29.5434 182.834 29.5668 182.798C29.5902 182.765 29.6034 182.704 29.6034 182.622V176.019C29.6034 175.862 29.5068 175.737 29.3152 175.642C29.2128 175.587 29.1601 175.504 29.1572 175.391L29.1514 175.135C29.1514 175.025 29.1645 174.953 29.1923 174.919C29.2201 174.884 29.2801 174.866 29.3752 174.866H32.1604C32.962 174.866 33.6012 175.125 34.0766 175.639C34.555 176.155 34.7934 176.869 34.7934 177.779C34.7934 178.293 34.7188 178.75 34.5725 179.151C34.4263 179.552 34.2405 179.848 34.0181 180.036C33.7943 180.225 33.5369 180.381 33.2458 180.5C32.9532 180.621 32.6416 180.681 32.3125 180.681H31.6323Z" fill="#040202"/>
<path fill-rule="evenodd" clip-rule="evenodd" d="M35.3912 174.866H37.7464C37.8268 174.866 37.878 174.884 37.8985 174.918C37.9204 174.953 37.9321 175.059 37.9321 175.238C37.9321 175.416 37.8795 175.535 37.7742 175.594C37.6937 175.636 37.641 175.682 37.6133 175.729C37.5855 175.778 37.5723 175.869 37.5723 176.002V182.129C37.5723 182.298 37.6191 182.433 37.7142 182.537C37.8078 182.64 37.9278 182.693 38.0726 182.693C38.2072 182.693 38.3213 182.634 38.4163 182.518C38.51 182.401 38.5582 182.271 38.5582 182.129V176.008C38.5582 175.902 38.548 175.829 38.5275 175.786C38.507 175.745 38.4573 175.692 38.3783 175.632C38.2554 175.537 38.1925 175.388 38.1925 175.191C38.1925 175.037 38.2101 174.944 38.2452 174.912C38.2788 174.881 38.3286 174.866 38.3944 174.866H39.569C39.6992 174.866 39.765 174.931 39.765 175.063V175.325C39.765 175.443 39.7577 175.516 39.7431 175.547C39.7285 175.578 39.6875 175.606 39.6188 175.632C39.4476 175.689 39.3628 175.808 39.3628 175.986V181.95C39.3628 182.514 39.2004 182.961 38.8786 183.291C38.5553 183.62 38.1062 183.785 37.5284 183.785C36.8833 183.785 36.3918 183.61 36.0524 183.26C35.7131 182.911 35.5434 182.407 35.5434 181.747V175.986C35.5434 175.833 35.4629 175.72 35.3035 175.648C35.2245 175.612 35.1762 175.578 35.1601 175.547C35.144 175.516 35.1353 175.448 35.1353 175.347C35.1353 175.135 35.1484 175.003 35.1733 174.949C35.1996 174.894 35.2713 174.866 35.3912 174.866Z" fill="#040202"/>
<path fill-rule="evenodd" clip-rule="evenodd" d="M41.3917 178.687V182.544C41.3917 182.704 41.4824 182.825 41.6638 182.906C41.8159 182.975 41.892 183.073 41.892 183.201C41.892 183.467 41.8861 183.614 41.873 183.643C41.8598 183.673 41.8072 183.687 41.7135 183.687H40.2697C40.1981 183.687 40.1527 183.66 40.1352 183.602C40.1161 183.546 40.1074 183.407 40.1074 183.185C40.1074 183.082 40.1556 183.012 40.2536 182.972C40.4394 182.887 40.533 182.793 40.533 182.687V176.227C40.533 176.071 40.517 175.953 40.4892 175.874C40.4599 175.796 40.3955 175.731 40.2946 175.681C40.2054 175.637 40.1454 175.59 40.1147 175.539C40.0854 175.488 40.0693 175.391 40.0693 175.249C40.0693 174.994 40.1366 174.866 40.2697 174.866H41.775L43.6064 179.132V175.987C43.6064 175.812 43.5172 175.687 43.3402 175.615C43.2334 175.567 43.1661 175.514 43.1354 175.454C43.1047 175.393 43.0886 175.276 43.0886 175.101C43.0886 174.992 43.1003 174.925 43.1222 174.901C43.1427 174.878 43.1851 174.866 43.2466 174.866H44.7474C44.8322 174.878 44.8732 174.998 44.8732 175.227C44.8732 175.361 44.8659 175.448 44.8483 175.483C44.8322 175.52 44.7957 175.551 44.7372 175.577C44.6099 175.627 44.5309 175.677 44.4987 175.724C44.4651 175.773 44.449 175.837 44.449 175.921V183.687H43.5245L41.3917 178.687Z" fill="#040202"/>
<path fill-rule="evenodd" clip-rule="evenodd" d="M45.3906 174.866H47.9856C48.0865 174.866 48.1538 174.881 48.1845 174.911C48.2152 174.938 48.2299 175.021 48.2299 175.156C48.2299 175.331 48.2167 175.441 48.1904 175.487C48.1626 175.532 48.1026 175.57 48.0075 175.598C47.8978 175.632 47.832 175.669 47.8086 175.713C47.7852 175.757 47.7735 175.851 47.7735 175.998V182.014C47.7735 182.853 47.5482 183.569 47.0991 184.166C46.6486 184.761 45.9552 185.059 45.0161 185.059C44.8376 185.059 44.7308 185.046 44.6943 185.018C44.6577 184.99 44.6401 184.931 44.6401 184.84V184.633C44.6401 184.549 44.6475 184.495 44.6635 184.468C44.6811 184.443 44.7323 184.427 44.8186 184.42C45.4359 184.364 45.7446 183.869 45.7446 182.933V176.249C45.7446 175.983 45.7197 175.813 45.67 175.738C45.6217 175.663 45.5325 175.606 45.4008 175.566C45.2706 175.526 45.2062 175.438 45.2062 175.303C45.2062 175.078 45.2136 174.949 45.2296 174.915C45.2457 174.883 45.2999 174.866 45.3906 174.866Z" fill="#040202"/>
<path fill-rule="evenodd" clip-rule="evenodd" d="M51.0102 175.539V178.66H51.3803C51.4812 178.66 51.5558 178.637 51.6026 178.594C51.6494 178.55 51.686 178.454 51.7123 178.309C51.7562 178.05 51.7913 177.896 51.8176 177.845C51.8454 177.795 51.8878 177.768 51.9464 177.768C52.2316 177.768 52.394 177.78 52.4335 177.805C52.4715 177.828 52.4905 177.92 52.4905 178.08V179.901C52.4905 180.012 52.4715 180.087 52.4364 180.121C52.3998 180.156 52.2872 180.172 52.0985 180.172C51.9756 180.172 51.8922 180.15 51.8513 180.105C51.8089 180.059 51.7679 179.931 51.7284 179.72C51.6889 179.526 51.6494 179.408 51.6114 179.364C51.5733 179.32 51.5148 179.299 51.4344 179.299H51.0102V183.064H51.2983C51.4768 183.064 51.5982 183.014 51.6655 182.915C51.7328 182.815 51.841 182.525 51.9888 182.047C52.0502 181.848 52.1146 181.717 52.1804 181.655C52.2448 181.592 52.3589 181.561 52.5227 181.561C52.7465 181.561 52.8606 181.635 52.8606 181.78C52.8606 181.824 52.8533 181.887 52.8387 181.971L52.6353 183.211C52.6002 183.438 52.571 183.573 52.5476 183.62C52.5242 183.664 52.4496 183.687 52.3267 183.687H48.6975C48.6068 183.687 48.5497 183.667 48.5234 183.624C48.4985 183.583 48.4854 183.461 48.4854 183.261C48.4854 183.133 48.5512 183.041 48.6814 182.982C48.8803 182.898 48.9812 182.784 48.9812 182.638V175.823C48.9769 175.754 48.8964 175.684 48.7355 175.615C48.6272 175.568 48.5629 175.523 48.5424 175.479C48.5234 175.435 48.5131 175.329 48.5131 175.161C48.5131 175.019 48.5234 174.935 48.5453 174.907C48.5673 174.881 48.6316 174.866 48.7355 174.866H52.2067C52.2945 174.866 52.3574 174.881 52.3969 174.91C52.4379 174.939 52.4686 175.008 52.4905 175.117L52.767 176.528C52.7816 176.601 52.7889 176.65 52.7889 176.675C52.7889 176.773 52.7012 176.823 52.5271 176.823C52.3296 176.823 52.198 176.8 52.1321 176.754C52.0663 176.709 52.0019 176.596 51.9405 176.413C51.8293 176.086 51.7328 175.858 51.6509 175.73C51.569 175.602 51.4783 175.539 51.3773 175.539H51.0102Z" fill="#040202"/>
<path fill-rule="evenodd" clip-rule="evenodd" d="M54.5089 178.687V182.544C54.5089 182.704 54.5996 182.825 54.781 182.906C54.9331 182.975 55.0092 183.073 55.0092 183.201C55.0092 183.467 55.0019 183.614 54.9902 183.643C54.977 183.673 54.9243 183.687 54.8307 183.687H53.3869C53.3153 183.687 53.2699 183.66 53.2523 183.602C53.2333 183.546 53.2246 183.407 53.2246 183.185C53.2246 183.082 53.2728 183.012 53.3694 182.972C53.5552 182.887 53.6488 182.793 53.6488 182.687V176.227C53.6488 176.071 53.6341 175.953 53.6063 175.874C53.5771 175.796 53.5127 175.731 53.4118 175.681C53.3226 175.637 53.2626 175.59 53.2319 175.539C53.2012 175.488 53.1865 175.391 53.1865 175.249C53.1865 174.994 53.2538 174.866 53.3869 174.866H54.8922L56.7221 179.132V175.987C56.7221 175.812 56.6344 175.687 56.4559 175.615C56.3506 175.567 56.2833 175.514 56.2526 175.454C56.2204 175.393 56.2058 175.276 56.2058 175.101C56.2058 174.992 56.216 174.925 56.2394 174.901C56.2599 174.878 56.3023 174.866 56.3637 174.866H57.8646C57.9494 174.878 57.9904 174.998 57.9904 175.227C57.9904 175.361 57.9831 175.448 57.9655 175.483C57.9494 175.52 57.9129 175.551 57.8544 175.577C57.7271 175.627 57.6481 175.677 57.6159 175.724C57.5823 175.773 57.5662 175.837 57.5662 175.921V183.687H56.6417L54.5089 178.687Z" fill="#040202"/>
<path fill-rule="evenodd" clip-rule="evenodd" d="M61.5591 176.014C61.5591 175.558 61.4113 175.331 61.1188 175.331C60.9944 175.331 60.8891 175.388 60.8028 175.5C60.715 175.614 60.6726 175.752 60.6726 175.915V182.512C60.6726 182.734 60.715 182.903 60.8028 183.018C60.8891 183.132 60.993 183.19 61.1129 183.19C61.2475 183.19 61.3543 183.126 61.4362 182.999C61.5181 182.871 61.5591 182.728 61.5591 182.572V176.014ZM61.129 174.719C61.6615 174.719 62.1237 174.899 62.5128 175.257C62.9034 175.616 63.2223 176.127 63.4681 176.79C63.7153 177.453 63.8381 178.305 63.8381 179.342C63.8381 180.589 63.5982 181.641 63.117 182.499C62.6372 183.357 61.9599 183.786 61.0851 183.786C60.2543 183.786 59.6004 183.366 59.1206 182.528C58.6422 181.691 58.4038 180.608 58.4038 179.282C58.4038 177.923 58.6496 176.822 59.1411 175.982C59.6326 175.14 60.2952 174.719 61.129 174.719Z" fill="#040202"/>
<path fill-rule="evenodd" clip-rule="evenodd" d="M24.3203 188.948V196.517H24.6084C24.8118 196.517 24.9595 196.432 25.0546 196.263C25.1482 196.092 25.1965 195.791 25.1965 195.358V189.774C25.1965 189.53 25.138 189.33 25.0224 189.177C24.9054 189.024 24.7415 188.948 24.528 188.948H24.3203ZM22.2972 195.904V189.286C22.2855 189.214 22.2197 189.159 22.1012 189.123C22.0061 189.093 21.9432 189.05 21.911 188.995C21.8774 188.937 21.8613 188.817 21.8613 188.63C21.8613 188.495 21.8847 188.407 21.9315 188.363C21.9783 188.319 22.1012 188.297 22.2972 188.297H24.9025C25.6456 188.297 26.2614 188.642 26.75 189.33C27.2371 190.019 27.4814 191.162 27.4814 192.763C27.4814 194.219 27.2459 195.311 26.7734 196.034C26.3024 196.757 25.6792 197.118 24.9025 197.118H22.031C21.9505 197.118 21.8949 197.099 21.8642 197.061C21.8335 197.023 21.8188 196.937 21.8188 196.807C21.8188 196.649 21.8232 196.551 21.8335 196.511C21.8452 196.472 21.8978 196.426 21.9915 196.375C22.1948 196.269 22.2972 196.112 22.2972 195.904Z" fill="#040202"/>
<path fill-rule="evenodd" clip-rule="evenodd" d="M31.0064 193.684L31.8431 189.462C31.8504 189.425 31.8548 189.387 31.8548 189.348C31.8548 189.202 31.7612 189.084 31.5769 188.996C31.4613 188.939 31.4028 188.883 31.4028 188.829C31.4028 188.804 31.4043 188.779 31.4072 188.752V188.666C31.4072 188.503 31.416 188.401 31.4335 188.36C31.4482 188.319 31.4935 188.297 31.5652 188.297H32.911C32.9724 188.297 33.009 188.314 33.0221 188.35C33.0353 188.384 33.0412 188.473 33.0412 188.617C33.0412 188.786 33.0368 188.892 33.0295 188.932C33.0221 188.971 32.9973 189.004 32.9548 189.03C32.8451 189.102 32.7764 189.165 32.7471 189.218C32.7179 189.271 32.6828 189.405 32.6389 189.619L31.2214 196.725L31.1337 197.157C31.1278 197.196 31.0883 197.217 31.0196 197.217H29.9268C29.88 197.217 29.8449 197.195 29.8186 197.151C29.7923 197.107 29.7571 196.964 29.7103 196.725L28.2914 189.461C28.2592 189.278 28.1729 189.146 28.031 189.062C27.9579 189.018 27.914 188.986 27.8979 188.963C27.8804 188.939 27.873 188.888 27.873 188.813C27.873 188.786 27.8745 188.761 27.8774 188.738C27.8818 188.697 27.8833 188.658 27.8833 188.623C27.8833 188.598 27.8818 188.573 27.8774 188.553V188.478C27.8774 188.357 27.9213 188.297 28.0091 188.297H30.4827C30.5661 188.297 30.6085 188.373 30.6085 188.525C30.6085 188.529 30.6056 188.633 30.5968 188.839C30.5895 188.886 30.5515 188.926 30.4827 188.958C30.3233 189.035 30.2443 189.156 30.2443 189.324C30.2443 189.364 30.2487 189.409 30.2604 189.461L31.0064 193.684Z" fill="#040202"/>
<path fill-rule="evenodd" clip-rule="evenodd" d="M36.5449 189.445C36.5449 188.989 36.3972 188.761 36.1046 188.761C35.9803 188.761 35.875 188.819 35.7887 188.93C35.7009 189.044 35.6585 189.182 35.6585 189.346V195.943C35.6585 196.165 35.7009 196.334 35.7887 196.449C35.875 196.563 35.9788 196.621 36.0988 196.621C36.2334 196.621 36.3401 196.557 36.4221 196.429C36.504 196.302 36.5449 196.159 36.5449 196.003V189.445ZM36.1149 188.15C36.6473 188.15 37.1096 188.329 37.4987 188.688C37.8893 189.047 38.2081 189.558 38.4539 190.221C38.7011 190.883 38.824 191.734 38.824 192.773C38.824 194.019 38.5841 195.072 38.1028 195.93C37.623 196.788 36.9457 197.217 36.071 197.217C35.2401 197.217 34.5862 196.797 34.1064 195.959C33.6281 195.122 33.3896 194.039 33.3896 192.713C33.3896 191.354 33.6354 190.253 34.1269 189.412C34.6184 188.57 35.2811 188.15 36.1149 188.15Z" fill="#040202"/>
<path fill-rule="evenodd" clip-rule="evenodd" d="M41.8325 188.532C41.8544 188.514 41.9159 188.432 42.0168 188.287C42.0826 188.191 42.1689 188.144 42.2786 188.144C42.3035 188.144 42.4059 188.157 42.5829 188.182C42.6195 188.219 42.6473 188.295 42.6648 188.412L42.9588 190.265C42.9735 190.363 42.9808 190.422 42.9808 190.44C42.9808 190.509 42.9603 190.554 42.9237 190.576C42.8857 190.598 42.7848 190.609 42.6209 190.609C42.4366 190.609 42.3167 190.585 42.2625 190.538C42.207 190.491 42.1046 190.294 41.9524 189.947C41.6291 189.215 41.341 188.849 41.0864 188.849C40.9065 188.849 40.8158 188.976 40.8158 189.232C40.8158 189.549 41.0894 190.172 41.6365 191.101C42.264 192.172 42.6736 192.947 42.8638 193.427C43.0539 193.905 43.149 194.441 43.149 195.036C43.149 195.739 42.9837 196.278 42.6546 196.653C42.324 197.029 41.9524 197.217 41.5384 197.217C41.2781 197.217 41.025 197.142 40.7822 196.992C40.6886 196.933 40.614 196.905 40.5598 196.905C40.513 196.905 40.4735 196.939 40.4457 197.008C40.3872 197.146 40.2453 197.217 40.0215 197.217C39.9337 197.217 39.8752 197.202 39.8445 197.176C39.8138 197.148 39.7904 197.076 39.7758 196.96L39.5037 195.139C39.4671 194.905 39.4496 194.782 39.4496 194.767C39.4496 194.661 39.5461 194.61 39.7377 194.61C39.9996 194.61 40.1532 194.644 40.2 194.713C40.2483 194.782 40.3141 194.941 40.4018 195.189C40.7207 196.074 41.0411 196.517 41.3644 196.517C41.4843 196.517 41.5809 196.473 41.6555 196.385C41.7301 196.299 41.7666 196.188 41.7666 196.058C41.7666 195.828 41.6847 195.556 41.5194 195.24C41.3541 194.926 41.1523 194.575 40.9138 194.188C40.3389 193.262 39.9352 192.525 39.6968 191.972C39.4598 191.42 39.3413 190.857 39.3413 190.281C39.3413 189.633 39.4832 189.114 39.7655 188.729C40.0478 188.342 40.3945 188.15 40.8041 188.15C41.0864 188.15 41.4302 188.278 41.8325 188.532Z" fill="#040202"/>
<path fill-rule="evenodd" clip-rule="evenodd" d="M44.917 188.91H44.6712C44.5893 188.91 44.5235 188.963 44.4723 189.07C44.4225 189.179 44.3684 189.468 44.3128 189.943C44.288 190.15 44.2485 190.281 44.1929 190.334C44.1388 190.385 44.0305 190.411 43.8667 190.411C43.7116 190.411 43.6107 190.392 43.5653 190.354C43.52 190.317 43.498 190.241 43.498 190.128C43.498 190.063 43.4995 189.997 43.5024 189.931L43.5697 188.658C43.5756 188.508 43.6019 188.411 43.6443 188.366C43.6882 188.32 43.7965 188.297 43.972 188.297H47.964C48.0796 188.297 48.1498 188.312 48.1761 188.341C48.201 188.37 48.2215 188.476 48.2361 188.658L48.3282 189.784C48.3356 189.871 48.3385 189.96 48.3385 190.051C48.3385 190.162 48.3253 190.244 48.299 190.303C48.2712 190.362 48.1849 190.391 48.0401 190.391C47.8543 190.391 47.7358 190.372 47.6846 190.335C47.6305 190.3 47.5881 190.185 47.5559 189.991C47.4974 189.675 47.4345 189.415 47.3657 189.212C47.2955 189.01 47.2107 188.91 47.1097 188.91H46.9459V195.927C46.9459 196.126 47.0337 196.265 47.2077 196.342C47.2809 196.375 47.3277 196.413 47.3526 196.46C47.376 196.504 47.3862 196.601 47.3862 196.747C47.3862 196.932 47.3716 197.041 47.3379 197.071C47.3057 197.102 47.2311 197.118 47.1141 197.118H44.7166C44.6215 197.118 44.5615 197.099 44.5337 197.063C44.5059 197.027 44.4928 196.923 44.4928 196.751C44.4928 196.548 44.5498 196.423 44.6639 196.379C44.7736 196.337 44.8438 196.294 44.8731 196.251C44.9023 196.21 44.917 196.138 44.917 196.037V188.91Z" fill="#040202"/>
<path fill-rule="evenodd" clip-rule="evenodd" d="M51.2006 188.92V192.603H51.5546C51.913 192.603 52.093 192.241 52.093 191.517V189.756C52.093 189.451 52.0359 189.235 51.9218 189.108C51.8077 188.982 51.6278 188.92 51.385 188.92H51.2006ZM51.2006 193.238V195.949C51.2006 196.075 51.208 196.162 51.2255 196.206C51.2401 196.249 51.2855 196.294 51.3601 196.341C51.4566 196.403 51.5049 196.507 51.5049 196.653C51.5049 196.865 51.4859 196.995 51.4479 197.044C51.4098 197.094 51.3396 197.119 51.2387 197.119H48.9435C48.8119 197.119 48.7475 197.023 48.7475 196.834C48.7475 196.652 48.7519 196.534 48.7621 196.481C48.7738 196.428 48.8104 196.391 48.8719 196.369C49.0708 196.289 49.1717 196.133 49.1717 195.899V189.493C49.1717 189.257 49.084 189.113 48.9099 189.063C48.8236 189.033 48.768 189.006 48.7475 188.976C48.7256 188.947 48.7139 188.862 48.7139 188.72C48.7139 188.438 48.7899 188.297 48.9435 188.297H51.9511C52.5494 188.297 53.0833 188.522 53.5528 188.975C54.0224 189.427 54.2579 190.033 54.2579 190.794C54.2579 191.877 53.7079 192.584 52.6093 192.914C53.6143 193.138 54.116 193.777 54.116 194.834V196.134C54.116 196.243 54.1584 196.325 54.2418 196.38C54.3398 196.446 54.3881 196.546 54.3881 196.681C54.3881 196.893 54.3749 197.017 54.3501 197.059C54.3252 197.098 54.2579 197.119 54.1497 197.119H52.6912C52.5172 197.119 52.3738 197.019 52.2612 196.821C52.1485 196.622 52.093 196.377 52.093 196.084V193.883C52.093 193.452 51.8765 193.238 51.4449 193.238H51.2006Z" fill="#040202"/>
<path fill-rule="evenodd" clip-rule="evenodd" d="M54.9435 188.297H57.2986C57.3791 188.297 57.4303 188.314 57.4507 188.35C57.4727 188.384 57.4844 188.491 57.4844 188.669C57.4844 188.848 57.4317 188.965 57.3264 189.024C57.246 189.067 57.1933 189.114 57.1655 189.161C57.1377 189.208 57.1245 189.299 57.1245 189.434V195.561C57.1245 195.728 57.1714 195.863 57.2664 195.968C57.3601 196.072 57.48 196.124 57.6248 196.124C57.7594 196.124 57.8735 196.065 57.9686 195.949C58.0622 195.831 58.1105 195.703 58.1105 195.561V189.439C58.1105 189.334 58.1002 189.259 58.0798 189.218C58.0593 189.176 58.0095 189.124 57.9305 189.062C57.8077 188.967 57.7448 188.82 57.7448 188.623C57.7448 188.467 57.7623 188.376 57.7974 188.344C57.8311 188.313 57.8808 188.297 57.9466 188.297H59.1213C59.2515 188.297 59.3173 188.363 59.3173 188.494V188.755C59.3173 188.873 59.31 188.946 59.2954 188.977C59.2807 189.008 59.2398 189.036 59.171 189.062C58.9999 189.121 58.915 189.239 58.915 189.418V195.38C58.915 195.946 58.7526 196.392 58.4308 196.722C58.1075 197.052 57.657 197.217 57.0807 197.217C56.4356 197.217 55.9441 197.042 55.6047 196.692C55.2653 196.342 55.0956 195.837 55.0956 195.179V189.418C55.0956 189.265 55.0152 189.152 54.8557 189.079C54.7767 189.042 54.7285 189.008 54.7124 188.977C54.6963 188.946 54.6875 188.88 54.6875 188.779C54.6875 188.567 54.7007 188.433 54.7255 188.379C54.7519 188.325 54.8235 188.297 54.9435 188.297Z" fill="#040202"/>
<path fill-rule="evenodd" clip-rule="evenodd" d="M63.4683 190.774L64.8784 195.997C64.9252 196.176 65.0159 196.298 65.1505 196.365C65.2368 196.407 65.2807 196.506 65.2807 196.658C65.2807 196.678 65.2749 196.786 65.2646 196.988C65.2529 197.074 65.1768 197.118 65.035 197.118H62.87C62.7895 197.118 62.7369 197.104 62.712 197.074C62.6871 197.045 62.674 196.964 62.674 196.835C62.674 196.811 62.6769 196.717 62.6842 196.55C62.6959 196.484 62.7383 196.437 62.8159 196.407C62.9314 196.367 62.9899 196.3 62.9899 196.206C62.9899 196.179 62.9856 196.149 62.9782 196.112L62.2176 193.353L62.0318 193.766V195.997C62.0318 196.184 62.1137 196.325 62.2776 196.423C62.3448 196.464 62.38 196.556 62.38 196.697C62.38 196.866 62.3653 196.977 62.3375 197.033C62.3083 197.089 62.2366 197.118 62.1254 197.118H59.8449C59.7615 197.118 59.703 197.101 59.6708 197.065C59.6386 197.03 59.6226 196.933 59.6226 196.772C59.6226 196.61 59.6343 196.507 59.6591 196.466C59.6855 196.423 59.7337 196.385 59.8069 196.353C59.9415 196.298 60.0087 196.2 60.0087 196.057V189.499C60.0087 189.336 59.9429 189.214 59.8127 189.133C59.725 189.079 59.6723 189.033 59.6547 188.999C59.6357 188.965 59.6284 188.893 59.6284 188.783C59.6284 188.536 59.6357 188.392 59.6547 188.354C59.6723 188.316 59.725 188.297 59.8127 188.297H62.2936C62.4092 188.297 62.4677 188.344 62.4677 188.439C62.4677 188.735 62.4619 188.905 62.4516 188.951C62.4399 188.996 62.3873 189.046 62.2936 189.101C62.1196 189.192 62.0318 189.308 62.0318 189.45V192.25L63.2152 189.542C63.2796 189.395 63.3132 189.283 63.3132 189.208C63.3132 189.161 63.2693 189.105 63.1816 189.04C63.0865 188.974 63.028 188.918 63.009 188.871C62.9885 188.823 62.9782 188.704 62.9782 188.51C62.9782 188.367 63.0309 188.297 63.1377 188.297H64.5829C64.6663 188.297 64.7175 188.313 64.7365 188.347C64.7541 188.378 64.7629 188.473 64.7629 188.627C64.7629 188.795 64.7512 188.895 64.7278 188.932C64.7044 188.968 64.6298 189.011 64.5069 189.062C64.4133 189.099 64.3533 189.127 64.327 189.151C64.3021 189.171 64.2714 189.218 64.2348 189.292L63.4683 190.774Z" fill="#040202"/>
<path fill-rule="evenodd" clip-rule="evenodd" d="M68.8101 189.445C68.8101 188.989 68.6638 188.761 68.3698 188.761C68.2469 188.761 68.1416 188.819 68.0538 188.93C67.9675 189.044 67.9236 189.182 67.9236 189.346V195.943C67.9236 196.165 67.9675 196.334 68.0538 196.449C68.1416 196.563 68.244 196.621 68.3639 196.621C68.4985 196.621 68.6067 196.557 68.6887 196.429C68.7691 196.302 68.8101 196.159 68.8101 196.003V189.445ZM68.3815 188.15C68.9139 188.15 69.3747 188.329 69.7653 188.688C70.1544 189.047 70.4733 189.558 70.7205 190.221C70.9662 190.883 71.0906 191.734 71.0906 192.773C71.0906 194.019 70.8492 195.072 70.3694 195.93C69.8882 196.788 69.2109 197.217 68.3376 197.217C67.5067 197.217 66.8514 196.797 66.373 195.959C65.8947 195.122 65.6548 194.039 65.6548 192.713C65.6548 191.354 65.9005 190.253 66.392 189.412C66.8835 188.57 67.5462 188.15 68.3815 188.15Z" fill="#040202"/>
<mask id="mask1" mask-type="alpha" maskUnits="userSpaceOnUse" x="19" y="201" width="5" height="10">
<path fill-rule="evenodd" clip-rule="evenodd" d="M23.2813 210.648H19.4736L19.4736 201.576H23.2813V210.648Z" fill="white"/>
</mask>
<g mask="url(#mask1)">
<path fill-rule="evenodd" clip-rule="evenodd" d="M21.9648 201.964C21.9867 201.946 22.0482 201.864 22.1491 201.718C22.2149 201.623 22.3012 201.576 22.411 201.576C22.4358 201.576 22.5382 201.589 22.7152 201.614C22.7518 201.651 22.7796 201.727 22.7971 201.843L23.0912 203.696C23.1058 203.795 23.1131 203.854 23.1131 203.871C23.1131 203.94 23.0941 203.986 23.0561 204.008C23.018 204.03 22.9171 204.04 22.7547 204.04C22.5689 204.04 22.449 204.017 22.3949 203.97C22.3407 203.923 22.2369 203.726 22.0847 203.379C21.7615 202.647 21.4733 202.281 21.2202 202.281C21.0388 202.281 20.9481 202.408 20.9481 202.663C20.9481 202.981 21.2217 203.604 21.7688 204.533C22.3963 205.604 22.8059 206.378 22.9961 206.859C23.1862 207.336 23.2813 207.873 23.2813 208.468C23.2813 209.17 23.116 209.71 22.7869 210.084C22.4563 210.461 22.0847 210.649 21.6708 210.649C21.4104 210.649 21.1573 210.574 20.9145 210.424C20.8209 210.365 20.7463 210.337 20.6922 210.337C20.6453 210.337 20.6073 210.371 20.5781 210.44C20.5195 210.578 20.3791 210.649 20.1538 210.649C20.0661 210.649 20.0076 210.634 19.9768 210.608C19.9461 210.58 19.9227 210.508 19.9081 210.392L19.636 208.571C19.6009 208.337 19.5819 208.214 19.5819 208.199C19.5819 208.093 19.6784 208.042 19.8701 208.042C20.1319 208.042 20.2855 208.076 20.3323 208.145C20.3806 208.214 20.4464 208.372 20.5342 208.621C20.8531 209.506 21.1734 209.949 21.4967 209.949C21.6166 209.949 21.7147 209.905 21.7878 209.817C21.8624 209.73 21.9004 209.62 21.9004 209.489C21.9004 209.26 21.8171 208.988 21.6518 208.672C21.4865 208.358 21.2846 208.007 21.0462 207.62C20.4727 206.694 20.0675 205.957 19.8306 205.404C19.5921 204.852 19.4736 204.289 19.4736 203.713C19.4736 203.065 19.6155 202.546 19.8978 202.161C20.1802 201.774 20.5269 201.582 20.9364 201.582C21.2202 201.582 21.5625 201.71 21.9648 201.964Z" fill="#040202"/>
</g>
<path fill-rule="evenodd" clip-rule="evenodd" d="M26.0668 209.932H26.377C26.5364 209.932 26.6549 209.869 26.731 209.741C26.807 209.613 26.9065 209.318 27.0294 208.855C27.0733 208.677 27.1259 208.568 27.1874 208.53C27.2488 208.492 27.3541 208.473 27.5033 208.473C27.6657 208.473 27.7725 208.486 27.8193 208.514C27.8661 208.542 27.8895 208.59 27.8895 208.664C27.8895 208.715 27.8807 208.798 27.8632 208.911L27.6715 210.216C27.6496 210.351 27.6218 210.441 27.5882 210.483C27.5531 210.527 27.4828 210.549 27.3775 210.549H23.798C23.6459 210.549 23.5698 210.455 23.5698 210.266C23.5698 210.119 23.5801 210.026 23.5991 209.984C23.6196 209.942 23.662 209.91 23.7278 209.888C23.9341 209.823 24.0379 209.631 24.0379 209.315V202.823C24.0379 202.687 23.9721 202.59 23.8419 202.532C23.7293 202.485 23.6605 202.432 23.6342 202.373C23.6093 202.316 23.5976 202.219 23.5976 202.085C23.5976 201.923 23.6079 201.825 23.6298 201.787C23.6517 201.748 23.7103 201.728 23.8039 201.728H26.3111C26.4062 201.728 26.4706 201.751 26.5042 201.797C26.5393 201.842 26.5569 201.966 26.5569 202.166C26.5569 202.286 26.5452 202.367 26.5218 202.41C26.4969 202.451 26.4369 202.489 26.3389 202.521C26.1575 202.583 26.0668 202.703 26.0668 202.883V209.932Z" fill="#040202"/>
<path fill-rule="evenodd" clip-rule="evenodd" d="M30.0772 203.765L29.4628 208.035H30.6726L30.0772 203.765ZM30.7282 208.664H29.3721L29.3092 209.167C29.3092 209.179 29.3048 209.195 29.2975 209.215C29.2668 209.321 29.2522 209.417 29.2522 209.5C29.2522 209.631 29.337 209.743 29.5053 209.834C29.5959 209.881 29.6515 209.93 29.6735 209.981C29.6954 210.032 29.7071 210.116 29.7071 210.232C29.7071 210.382 29.6983 210.472 29.6808 210.503C29.6647 210.534 29.6267 210.55 29.5652 210.55H28.1331C28.0541 210.55 28.0146 210.466 28.0146 210.298C28.0146 210.099 28.0775 209.935 28.2048 209.812C28.3248 209.699 28.3935 209.578 28.4111 209.452L29.4189 203.018C29.438 202.92 29.4453 202.835 29.4453 202.761C29.4453 202.65 29.3677 202.548 29.2112 202.461C29.1381 202.417 29.1015 202.322 29.1015 202.172C29.1015 201.971 29.1132 201.847 29.1352 201.8C29.1571 201.752 29.2156 201.728 29.3092 201.728H31.3864C31.5137 201.728 31.6015 201.788 31.6527 201.909C31.7039 202.029 31.7536 202.292 31.8048 202.697C31.8267 202.852 31.8487 203.008 31.8706 203.161L32.7629 209.167C32.8068 209.459 32.9136 209.681 33.0847 209.834C33.1316 209.874 33.1623 209.906 33.1769 209.93C33.1915 209.953 33.1988 210.025 33.1988 210.146C33.1988 210.331 33.1857 210.445 33.1608 210.487C33.1359 210.529 33.0804 210.55 32.9984 210.55H30.5819C30.5087 210.55 30.4736 210.481 30.4736 210.343C30.4736 210.166 30.4824 210.057 30.5014 210.013C30.519 209.971 30.5702 209.919 30.6565 209.861C30.7837 209.781 30.8466 209.678 30.8466 209.553C30.8466 209.427 30.8072 209.13 30.7282 208.664Z" fill="#040202"/>
<path fill-rule="evenodd" clip-rule="evenodd" d="M35.8969 202.379V209.949H36.1851C36.3884 209.949 36.5362 209.864 36.6312 209.695C36.7249 209.524 36.7731 209.223 36.7731 208.789V203.205C36.7731 202.961 36.7146 202.761 36.5991 202.609C36.482 202.456 36.3182 202.379 36.1046 202.379H35.8969ZM33.8738 209.336V202.717C33.8621 202.645 33.7963 202.591 33.6778 202.554C33.5827 202.525 33.5198 202.482 33.4877 202.426C33.454 202.369 33.4379 202.248 33.4379 202.062C33.4379 201.927 33.4613 201.838 33.5096 201.794C33.5564 201.75 33.6778 201.728 33.8738 201.728H36.4791C37.2222 201.728 37.8381 202.074 38.3266 202.761C38.8138 203.451 39.058 204.594 39.058 206.194C39.058 207.65 38.8225 208.742 38.35 209.465C37.879 210.188 37.2559 210.55 36.4791 210.55H33.6076C33.5272 210.55 33.4716 210.531 33.4409 210.493C33.4101 210.454 33.3955 210.369 33.3955 210.238C33.3955 210.081 33.3999 209.983 33.4101 209.943C33.4218 209.903 33.4745 209.858 33.5681 209.806C33.7714 209.7 33.8738 209.543 33.8738 209.336Z" fill="#040202"/>
<path fill-rule="evenodd" clip-rule="evenodd" d="M40.8429 205.549V209.408C40.8429 209.568 40.9336 209.688 41.115 209.768C41.2671 209.837 41.3432 209.935 41.3432 210.063C41.3432 210.329 41.3373 210.477 41.3242 210.507C41.311 210.535 41.2583 210.549 41.1647 210.549H39.7209C39.6492 210.549 39.6039 210.522 39.5863 210.466C39.5673 210.408 39.5585 210.269 39.5585 210.047C39.5585 209.945 39.6068 209.873 39.7034 209.834C39.8906 209.75 39.9828 209.654 39.9828 209.55V203.09C39.9828 202.933 39.9681 202.815 39.9403 202.737C39.9111 202.66 39.8467 202.593 39.7458 202.543C39.6565 202.499 39.5966 202.452 39.5659 202.401C39.5351 202.349 39.5205 202.254 39.5205 202.111C39.5205 201.856 39.5878 201.728 39.7209 201.728H41.2261L43.0576 205.994V202.851C43.0576 202.674 42.9684 202.549 42.7899 202.477C42.6846 202.43 42.6173 202.376 42.5866 202.316C42.5558 202.255 42.5397 202.139 42.5397 201.964C42.5397 201.854 42.55 201.788 42.5734 201.765C42.5939 201.741 42.6363 201.728 42.6977 201.728H44.1986C44.2834 201.74 44.3244 201.86 44.3244 202.089C44.3244 202.225 44.3171 202.31 44.2995 202.347C44.2834 202.383 44.2468 202.414 44.1883 202.439C44.0611 202.491 43.9821 202.539 43.9499 202.586C43.9163 202.635 43.9002 202.701 43.9002 202.783V210.549H42.9757L40.8429 205.549Z" fill="#040202"/>
<mask id="mask2" mask-type="alpha" maskUnits="userSpaceOnUse" x="44" y="201" width="7" height="10">
<path fill-rule="evenodd" clip-rule="evenodd" d="M44.7378 210.648H50.1721V201.582H44.7378V210.648H44.7378Z" fill="white"/>
</mask>
<g mask="url(#mask2)">
<path fill-rule="evenodd" clip-rule="evenodd" d="M47.8931 202.877C47.8931 202.421 47.7453 202.193 47.4528 202.193C47.3284 202.193 47.2231 202.251 47.1368 202.362C47.049 202.475 47.0066 202.614 47.0066 202.778V209.375C47.0066 209.597 47.049 209.766 47.1368 209.88C47.2231 209.995 47.327 210.052 47.4469 210.052C47.5815 210.052 47.6883 209.989 47.7702 209.861C47.8521 209.733 47.8931 209.591 47.8931 209.435V202.877ZM47.463 201.582C47.9955 201.582 48.4577 201.761 48.8468 202.12C49.2374 202.478 49.5563 202.99 49.802 203.653C50.0493 204.315 50.1721 205.166 50.1721 206.205C50.1721 207.451 49.9322 208.503 49.451 209.362C48.9712 210.22 48.2939 210.649 47.4191 210.649C46.5882 210.649 45.9344 210.229 45.456 209.391C44.9762 208.553 44.7378 207.47 44.7378 206.145C44.7378 204.786 44.9835 203.685 45.475 202.844C45.9666 202.002 46.6292 201.582 47.463 201.582Z" fill="#040202"/>
</g>
<path fill-rule="evenodd" clip-rule="evenodd" d="M55.8569 202.335V206.916H56.2387C56.3689 206.916 56.4859 206.843 56.5883 206.7C56.6922 206.556 56.7434 206.315 56.7434 205.98V203.254C56.7434 202.641 56.5415 202.335 56.1348 202.335H55.8569ZM55.8569 207.544V209.364C55.8569 209.574 55.9476 209.714 56.129 209.779C56.2168 209.811 56.2767 209.857 56.3118 209.912C56.3455 209.97 56.363 210.074 56.363 210.227C56.363 210.372 56.344 210.463 56.3031 210.497C56.2636 210.533 56.1831 210.55 56.0646 210.55H53.5998C53.4696 210.55 53.4038 210.436 53.4038 210.205C53.4038 210.023 53.4125 209.911 53.4301 209.868C53.4491 209.827 53.5106 209.79 53.6159 209.757C53.7095 209.729 53.7695 209.696 53.7929 209.661C53.8163 209.627 53.828 209.567 53.828 209.483V202.882C53.828 202.725 53.7314 202.6 53.5398 202.504C53.4389 202.45 53.3862 202.366 53.3818 202.253L53.376 201.998C53.376 201.887 53.3891 201.815 53.4169 201.781C53.4447 201.746 53.5062 201.729 53.5998 201.729H56.385C57.1866 201.729 57.8258 201.987 58.3027 202.502C58.7796 203.017 59.018 203.732 59.018 204.641C59.018 205.156 58.9449 205.613 58.7972 206.014C58.6509 206.413 58.4666 206.71 58.2427 206.898C58.0204 207.088 57.7615 207.244 57.4704 207.363C57.1778 207.483 56.8677 207.544 56.5371 207.544H55.8569Z" fill="#040202"/>
<path fill-rule="evenodd" clip-rule="evenodd" d="M59.3935 202.188V201.898C59.3935 201.785 59.4535 201.729 59.5734 201.729H62.1787C62.2767 201.729 62.3411 201.741 62.3689 201.767C62.3981 201.792 62.4128 201.869 62.4128 201.997C62.4128 202.189 62.4025 202.31 62.382 202.357C62.363 202.404 62.3191 202.433 62.2504 202.445C62.0251 202.485 61.9125 202.629 61.9125 202.877V209.446C61.9125 209.584 61.9944 209.693 62.1568 209.773C62.2621 209.825 62.3265 209.87 62.3484 209.91C62.3689 209.95 62.3806 210.02 62.3806 210.117V210.332C62.3806 210.448 62.3689 210.514 62.3484 210.527C62.3265 210.542 62.2694 210.549 62.1787 210.549H59.5237C59.4228 210.549 59.3716 210.51 59.3716 210.429C59.3716 210.167 59.3804 210.007 59.3994 209.948C59.4169 209.891 59.4813 209.844 59.5895 209.812C59.7856 209.757 59.8836 209.653 59.8836 209.5V203.014C59.8836 202.861 59.8645 202.745 59.8294 202.667C59.7929 202.587 59.7124 202.523 59.5895 202.471C59.4988 202.432 59.4433 202.396 59.4242 202.365C59.4038 202.335 59.3935 202.276 59.3935 202.188Z" fill="#040202"/>
<mask id="mask3" mask-type="alpha" maskUnits="userSpaceOnUse" x="62" y="201" width="6" height="10">
<path fill-rule="evenodd" clip-rule="evenodd" d="M62.603 210.648H67.7711V201.728H62.603V210.648Z" fill="white"/>
</mask>
<g mask="url(#mask3)">
<path fill-rule="evenodd" clip-rule="evenodd" d="M65.7364 207.116L66.5731 202.894C66.5804 202.857 66.5848 202.819 66.5848 202.779C66.5848 202.634 66.4926 202.516 66.3069 202.428C66.1913 202.371 66.1328 202.315 66.1328 202.26C66.1328 202.235 66.1343 202.21 66.1372 202.184V202.097C66.1372 201.934 66.146 201.833 66.1635 201.792C66.1796 201.75 66.2235 201.728 66.2952 201.728H67.6409C67.7024 201.728 67.739 201.746 67.7521 201.781C67.7653 201.815 67.7711 201.905 67.7711 202.049C67.7711 202.218 67.7682 202.324 67.7594 202.363C67.7521 202.403 67.7273 202.435 67.6848 202.462C67.5751 202.534 67.5064 202.597 67.4771 202.65C67.4479 202.703 67.4127 202.836 67.3689 203.051L65.9514 210.156L65.8636 210.588C65.8578 210.628 65.8197 210.648 65.7495 210.648H64.6568C64.61 210.648 64.5749 210.626 64.5486 210.582C64.5237 210.538 64.4871 210.396 64.4403 210.156L63.0214 202.892C62.9892 202.71 62.9029 202.578 62.761 202.494C62.6879 202.45 62.644 202.418 62.6279 202.394C62.6103 202.371 62.603 202.319 62.603 202.244C62.603 202.218 62.6045 202.193 62.6089 202.169C62.6118 202.128 62.6133 202.09 62.6133 202.055C62.6133 202.03 62.6118 202.005 62.6089 201.984V201.909C62.6089 201.789 62.6528 201.728 62.7391 201.728H65.2127C65.2961 201.728 65.3385 201.805 65.3385 201.956C65.3385 201.961 65.3356 202.065 65.3282 202.271C65.3195 202.318 65.2814 202.357 65.2141 202.39C65.0532 202.466 64.9742 202.588 64.9742 202.756C64.9742 202.795 64.9786 202.841 64.9903 202.892L65.7364 207.116Z" fill="#040202"/>
</g>
<mask id="mask4" mask-type="alpha" maskUnits="userSpaceOnUse" x="68" y="201" width="6" height="10">
<path fill-rule="evenodd" clip-rule="evenodd" d="M68.1196 210.648H73.554V201.582H68.1196V210.648Z" fill="white"/>
</mask>
<g mask="url(#mask4)">
<path fill-rule="evenodd" clip-rule="evenodd" d="M71.2749 202.877C71.2749 202.421 71.1272 202.193 70.8346 202.193C70.7103 202.193 70.6049 202.251 70.5186 202.362C70.4309 202.475 70.3884 202.614 70.3884 202.778V209.375C70.3884 209.597 70.4309 209.766 70.5186 209.88C70.6049 209.995 70.7088 210.052 70.8288 210.052C70.9633 210.052 71.0701 209.989 71.152 209.861C71.234 209.733 71.2749 209.591 71.2749 209.435V202.877ZM70.8448 201.582C71.3773 201.582 71.8396 201.761 72.2287 202.12C72.6192 202.478 72.9381 202.99 73.1839 203.653C73.4311 204.315 73.554 205.166 73.554 206.205C73.554 207.451 73.3141 208.503 72.8328 209.362C72.353 210.22 71.6757 210.649 70.801 210.649C69.9701 210.649 69.3162 210.229 68.8379 209.391C68.3581 208.553 68.1196 207.47 68.1196 206.145C68.1196 204.786 68.3654 203.685 68.8569 202.844C69.3484 202.002 70.011 201.582 70.8448 201.582Z" fill="#040202"/>
</g>
<path fill-rule="evenodd" clip-rule="evenodd" d="M21.8946 104.906C23.0356 102.475 24.2936 100.068 25.6716 97.6863C27.0496 95.3041 28.4012 93.0881 29.7265 91.0396C30.7241 91.4731 31.5302 92.1314 32.1431 93.0117C32.7575 93.8934 33.1261 95.0308 33.2519 96.4254C33.3543 98.2065 33.1992 100.004 32.7852 101.817C32.3727 103.632 31.7686 105.457 30.9728 107.291C30.5398 108.295 29.981 109.406 29.295 110.623C28.6089 111.842 27.857 113.025 27.0423 114.174C26.2245 115.322 25.3717 116.37 24.4838 117.318C23.5944 118.266 22.7416 118.99 21.9224 119.49C21.1032 119.992 20.3528 120.189 19.6726 120.086C18.9909 119.982 18.4556 119.438 18.0665 118.454C18.0562 116.499 18.4058 114.36 19.1182 112.036C19.8291 109.714 20.7536 107.338 21.8946 104.906ZM1.70053 108.379C2.45681 109.178 3.48955 109.52 4.79584 109.403C5.25663 109.36 5.773 109.238 6.34642 109.035C6.91691 108.833 7.55324 108.506 8.25392 108.057C8.1369 107.682 8.03596 107.306 7.94527 106.927C7.8575 106.55 7.80045 106.211 7.77266 105.911C7.63223 104.326 7.89261 102.794 8.55672 101.315C9.21938 99.8362 10.1453 98.4666 11.3361 97.2013C12.5253 95.936 13.8989 94.8148 15.4568 93.8346C17.0132 92.853 18.6311 92.0682 20.306 91.476C19.677 92.4415 18.9675 93.6142 18.1718 94.9941C17.376 96.3754 16.5627 97.8611 15.7303 99.4497C14.8995 101.04 14.0876 102.69 13.2948 104.401C12.5005 106.111 11.7998 107.785 11.1927 109.425C10.5842 111.063 10.0941 112.623 9.71966 114.102C9.34372 115.582 9.15063 116.875 9.14039 117.976C9.25449 119.262 9.60556 120.36 10.1936 121.269C10.7831 122.182 11.5335 122.92 12.4478 123.484C13.3621 124.048 14.3977 124.438 15.5548 124.651C16.7119 124.862 17.9026 124.914 19.127 124.803C21.0564 124.63 22.9683 124.058 24.8554 123.089C26.7438 122.12 28.5314 120.886 30.2209 119.382C31.9105 117.882 33.4655 116.177 34.8858 114.273C36.3048 112.367 37.5218 110.392 38.5312 108.345C39.5405 106.298 40.3026 104.233 40.8175 102.148C41.3295 100.064 41.5299 98.1036 41.4217 96.2667C41.3207 94.2093 40.8088 92.4782 39.8886 91.0748C38.9671 89.67 37.772 88.559 36.3004 87.7405C34.8288 86.9234 33.1407 86.3724 31.2376 86.0902C29.3345 85.8066 27.3494 85.7581 25.281 85.9447C23.9206 86.0682 22.3437 86.3679 20.5503 86.847C18.7554 87.3261 16.9064 87.9594 15.0033 88.7515C13.0988 89.5436 11.2351 90.4885 9.41539 91.5892C7.5942 92.6899 5.98364 93.9301 4.5852 95.31C3.18529 96.6899 2.09549 98.2065 1.30996 99.8612C0.524435 101.516 0.217245 103.272 0.38108 105.129C0.503956 106.498 0.944262 107.579 1.70053 108.379Z" fill="#040202"/>
<path fill-rule="evenodd" clip-rule="evenodd" d="M64.7164 109.084C64.8919 108.132 65.1318 107.228 65.4405 106.375C65.7477 105.521 66.1002 104.786 66.4981 104.172C66.896 103.557 67.31 103.203 67.74 103.109C67.8336 103.239 67.9785 103.336 68.1774 103.4C68.3734 103.466 68.587 103.543 68.8152 103.632L69.0185 103.613C68.3427 104.034 67.841 104.546 67.5118 105.155C67.1827 105.763 66.9867 106.414 66.9252 107.108C66.8638 107.803 66.9399 108.511 67.1564 109.236C67.3699 109.96 67.7005 110.648 68.1423 111.296C67.9755 111.587 67.7985 111.906 67.6113 112.253C67.4211 112.601 67.2266 112.936 67.0218 113.256C66.817 113.578 66.6078 113.852 66.3957 114.076C66.1821 114.304 65.9949 114.423 65.8311 114.438C65.341 114.482 64.9841 114.245 64.7603 113.73C64.535 113.212 64.4282 112.547 64.4385 111.732C64.4472 110.921 64.5409 110.037 64.7164 109.084ZM95.7923 106.326C95.9913 106.114 96.1785 105.904 96.3526 105.696C96.5252 105.488 96.7183 105.278 96.9319 105.065C97.1469 104.854 97.4102 104.638 97.7188 104.416C98.0275 104.195 98.402 103.941 98.8438 103.653L98.1475 103.221C98.3713 102.98 98.5819 102.72 98.7765 102.441C98.9696 102.161 99.1729 101.97 99.3835 101.869C99.0939 103.244 98.835 104.64 98.6053 106.051C98.3742 107.462 97.988 108.812 97.4453 110.101C97.1864 110.594 96.9465 111.029 96.7183 111.408C96.4916 111.785 96.2663 112.026 96.0439 112.129C95.8172 112.232 95.6183 112.153 95.4456 111.894C95.2716 111.634 95.1077 111.111 94.9556 110.326C94.8371 109.619 94.8503 108.917 94.9936 108.214C95.1355 107.513 95.4149 106.882 95.8318 106.322L95.7923 106.326ZM41.1023 116.625C41.3275 117.928 41.9024 118.985 42.824 119.797C43.747 120.608 44.929 120.949 46.3698 120.82C47.268 120.739 48.1457 120.426 49.0014 119.881C49.8586 119.336 50.65 118.698 51.3814 117.972C52.1114 117.245 52.7565 116.478 53.3153 115.669C53.8726 114.863 54.3304 114.153 54.6874 113.541C55.8196 114.239 56.826 114.458 57.7066 114.198C57.8836 114.147 58.0533 114.078 58.2215 114.006C58.2347 114.129 58.2376 114.257 58.2566 114.378C58.4643 115.461 58.9134 116.419 59.6039 117.252C60.2958 118.085 61.3168 118.688 62.6655 119.062L62.6246 119.065C63.4715 119.346 64.3405 119.393 65.2284 119.204C66.1163 119.012 66.9633 118.674 67.7707 118.188C68.5767 117.703 69.3199 117.12 69.9986 116.438C70.6788 115.757 71.2464 115.052 71.7028 114.322C72.7779 114.694 73.8253 114.676 74.8449 114.266C75.863 113.859 76.6836 113.143 77.3068 112.123C77.5189 111.746 77.7178 111.371 77.9051 110.995C78.0909 110.62 78.2796 110.211 78.4741 109.766C78.6672 109.322 78.8822 108.82 79.1207 108.261C79.3591 107.703 79.6356 107.052 79.9545 106.305C79.9911 106.213 80.0145 106.128 80.0452 106.039C80.0803 105.973 80.1256 105.898 80.1593 105.834C80.2748 105.603 80.4489 105.256 80.683 104.795C81.0648 104.787 81.3822 104.724 81.6323 104.605C81.881 104.486 82.1926 104.37 82.5685 104.253C82.077 105.509 81.6323 106.768 81.2388 108.029C80.8424 109.292 80.7386 110.644 80.9214 112.087C81.0838 113.284 81.4158 114.316 81.9176 115.178C82.4208 116.041 83.278 116.516 84.4936 116.6C85.459 116.677 86.344 116.529 87.1457 116.154C87.9487 115.778 88.6918 115.256 89.3721 114.589C89.8416 114.125 90.2834 113.599 90.7076 113.037C90.9007 113.328 91.1084 113.61 91.3439 113.874C92.3942 115.048 93.7927 115.734 95.5393 115.935C96.7753 115.96 97.8973 115.784 98.9052 115.403C99.9145 115.024 100.81 114.475 101.597 113.756C102.382 113.039 103.048 112.192 103.592 111.221C104.135 110.248 104.575 109.184 104.91 108.023C105.163 107.174 105.295 106.116 105.306 104.848C105.314 103.579 105.315 102.285 105.309 100.964C105.299 99.6426 105.343 98.3715 105.44 97.1503C105.538 95.9291 105.81 94.9269 106.262 94.1422C104.74 93.7013 103.463 93.6705 102.429 94.054C101.393 94.4361 100.466 95.0357 99.6483 95.8542C98.8306 96.6712 98.0524 97.6308 97.3137 98.7301C96.5749 99.8293 95.7426 100.874 94.8181 101.867C93.9316 101.782 93.1388 101.957 92.4381 102.392C91.736 102.827 91.1508 103.411 90.6813 104.141C90.2117 104.873 89.8694 105.716 89.6529 106.671C89.5169 107.275 89.4628 107.879 89.4452 108.485C89.3004 108.727 89.1556 108.959 89.0122 109.168C88.8864 109.317 88.784 109.463 88.7021 109.609C88.6172 109.754 88.528 109.9 88.4315 110.047C88.3305 110.138 88.2398 110.201 88.1594 110.235C88.0819 110.27 87.9546 110.226 87.7791 110.104C87.4324 109.915 87.2758 109.537 87.3066 108.97C87.3387 108.402 87.4616 107.793 87.6781 107.139C87.8639 106.46 88.1082 105.812 88.411 105.193C88.7109 104.574 89.0268 103.954 89.353 103.331C89.6822 102.71 90.0025 102.075 90.3156 101.427C90.6271 100.779 90.9036 100.113 91.145 99.4295C91.1947 99.068 90.9095 98.7139 90.2892 98.3715C89.669 98.0276 88.9712 97.7455 88.1989 97.5265C87.4251 97.3061 86.6805 97.1885 85.9652 97.1709C85.2513 97.1503 84.8096 97.2737 84.6413 97.5368L83.8017 98.7286C83.9289 98.3039 84.0606 97.8028 84.201 97.2253C84.3429 96.6492 84.3956 96.0922 84.3619 95.5573C84.3268 95.0239 84.1615 94.5507 83.8646 94.1363C83.5676 93.7219 83.0571 93.4647 82.3345 93.3648C81.8064 93.2752 81.2696 93.406 80.7254 93.7572C80.1798 94.1099 79.6692 94.5904 79.1894 95.1973C78.7082 95.8057 78.2766 96.4993 77.8934 97.2782C77.5101 98.0555 77.2161 98.8461 77.0157 99.65C76.8124 100.452 76.7173 101.219 76.7261 101.948C76.7363 102.679 76.887 103.277 77.1766 103.747L77.2161 103.743L74.9151 108.826C74.8171 109.039 74.76 109.234 74.7206 109.422C74.6225 109.569 74.4807 109.721 74.289 109.875C74.0959 110.031 73.8926 109.993 73.6805 109.763C73.9438 109.327 74.2159 108.689 74.4982 107.851C74.7791 107.014 74.9575 106.164 75.0307 105.303C75.1053 104.444 75.0277 103.659 74.801 102.949C74.5728 102.239 74.0798 101.781 73.3206 101.574C73.0647 100.247 72.4386 99.2973 71.4424 98.7271C70.4448 98.1555 69.2921 97.9277 67.9887 98.0453C67.4167 98.0967 66.817 98.2334 66.1938 98.4567C65.5677 98.6771 64.9285 99.0313 64.2732 99.5177C63.6178 100.003 62.9493 100.655 62.2677 101.475C61.586 102.294 60.9043 103.312 60.2168 104.532C59.8672 105.224 59.5439 105.984 59.2484 106.808C59.0802 107.274 58.9368 107.749 58.8052 108.228C58.6662 108.485 58.5214 108.751 58.3941 108.993C57.73 110.154 57.2546 110.66 56.9664 110.505C56.6783 110.353 56.6373 109.744 56.845 108.679L56.8041 108.682C57.2224 107.846 57.6525 106.98 58.0943 106.087C58.5346 105.193 58.8622 104.254 59.0773 103.269C59.1489 102.851 59.2045 102.323 59.244 101.685C59.2821 101.047 59.2484 100.439 59.1416 99.8557C59.0348 99.2738 58.8037 98.7697 58.4512 98.348C58.0986 97.9248 57.5662 97.719 56.8538 97.7264C56.1941 97.7043 55.6104 97.8469 55.1028 98.154C54.5967 98.4611 54.1549 98.8932 53.779 99.4516C53.403 100.007 53.0988 100.655 52.8618 101.393C52.6263 102.131 52.4654 102.931 52.3761 103.791C52.3235 104.43 52.2825 105.04 52.2533 105.621C52.2225 106.203 52.2006 106.721 52.186 107.177C52.1713 107.632 52.1699 108.012 52.1845 108.313C52.1977 108.616 52.2211 108.805 52.2562 108.886C51.8832 109.608 51.5365 110.266 51.219 110.86C50.9031 111.452 50.6105 111.953 50.3458 112.361C49.7124 113.246 49.1843 113.865 48.763 114.22C48.3446 114.575 48.0257 114.714 47.8136 114.636C47.6001 114.56 47.4669 114.295 47.4128 113.846C47.3587 113.396 47.3704 112.823 47.4465 112.128C47.5591 111.264 47.7259 110.354 47.9424 109.397C48.1574 108.442 48.4148 107.483 48.7147 106.519C49.0117 105.556 49.3379 104.602 49.6919 103.662C50.0473 102.72 50.4204 101.832 50.8124 100.999C50.9908 100.542 50.7612 100.205 50.1249 99.9865C49.4885 99.769 48.725 99.672 47.837 99.697C46.9491 99.722 46.0963 99.8542 45.2815 100.092C44.4653 100.332 43.9664 100.665 43.7865 101.095C43.7704 101.236 43.747 101.327 43.709 101.371C43.6724 101.415 43.6592 101.506 43.6709 101.643C43.431 102.325 43.1312 103.275 42.7742 104.492C42.4159 105.709 42.0823 107.027 41.7693 108.445C41.4592 109.866 41.2222 111.297 41.0642 112.745C40.9048 114.192 40.9179 115.484 41.1023 116.625Z" fill="#040202"/>
<path fill-rule="evenodd" clip-rule="evenodd" d="M137.256 102.919C137.469 103.643 137.8 104.331 138.24 104.979C138.075 105.27 137.898 105.589 137.711 105.935C137.521 106.284 137.325 106.619 137.121 106.939C136.917 107.261 136.707 107.534 136.494 107.759C136.28 107.985 136.093 108.106 135.931 108.121C135.441 108.165 135.084 107.93 134.86 107.411C134.635 106.895 134.528 106.229 134.538 105.415C134.547 104.603 134.639 103.719 134.814 102.766C134.99 101.815 135.231 100.911 135.539 100.057C135.847 99.2035 136.198 98.4688 136.598 97.8545C136.995 97.2403 137.409 96.8876 137.84 96.792C137.933 96.9214 138.078 97.0184 138.275 97.083C138.474 97.1477 138.688 97.2256 138.915 97.3152L139.118 97.2961C138.444 97.7149 137.94 98.2292 137.611 98.8376C137.281 99.446 137.085 100.097 137.023 100.791C136.962 101.484 137.039 102.194 137.256 102.919ZM114.721 105.528C114.942 104.929 115.203 104.322 115.505 103.702C115.804 103.082 116.123 102.489 116.456 101.921C116.79 101.355 117.125 100.827 117.468 100.344C117.808 99.8575 118.128 99.4504 118.427 99.1198C118.925 98.5525 119.315 98.3101 119.597 98.3938C119.878 98.4791 120.099 98.9552 120.258 99.8222C120.324 100.259 120.286 100.749 120.142 101.299C120.001 101.85 119.714 102.398 119.282 102.948C118.851 103.498 118.267 103.996 117.525 104.45C116.782 104.902 115.849 105.261 114.721 105.528ZM157.269 98.1852C157.011 98 156.749 97.8266 156.482 97.6635C153.167 95.6635 148.609 95.5283 146.586 99.3711C145.756 100.948 145.461 103.176 143.761 103.687C144.62 101.985 145.095 100.09 145.142 98.1822C145.158 97.5386 145.114 96.8567 144.756 96.3233C144.542 96.0073 144.235 95.7693 143.983 95.4827C143.539 94.9816 143.274 94.3468 142.888 93.7986C141.356 91.6222 138.1 91.2328 135.699 92.3658C133.298 93.5003 131.642 95.8001 130.468 98.1925C129.464 100.244 128.731 102.434 127.55 104.39C126.368 106.344 124.619 108.103 122.4 108.609C120.515 109.036 118.435 108.46 117.037 107.121C120.612 106.719 123.934 104.479 125.66 101.309C126.74 99.327 127.138 96.6877 125.741 94.9155C124.625 93.5018 122.612 93.033 120.852 93.3901C119.092 93.7457 117.547 94.7979 116.19 95.9794L121.654 82.517C121.782 82.2011 121.911 81.844 121.778 81.531C121.664 81.2591 121.386 81.1019 121.124 80.9726C119.617 80.2349 117.638 79.8822 116.396 81.0108C115.96 81.4046 115.677 81.9351 115.404 82.4553C112.849 87.3415 110.699 92.4408 108.978 97.6826C107.814 101.237 106.84 104.896 106.707 108.636C106.644 110.37 106.797 112.209 107.782 113.634C109.1 115.542 111.566 116.241 113.861 116.518C113.042 114.002 112.941 111.252 113.573 108.681C115.662 110.494 118.062 111.944 120.637 112.945C121.427 113.252 122.252 113.52 123.099 113.512C125.529 113.492 127.323 111.321 128.754 109.348C129.642 111.936 132.742 113.296 135.42 112.8C138.098 112.303 140.31 110.325 141.789 108.027C143.588 108.616 145.72 107.984 146.912 106.507C147.551 105.715 147.92 104.741 148.48 103.893C149.241 102.739 151.101 101.545 152.45 102.532C154.021 103.683 153.512 108.074 151.177 110.57C150.948 110.814 150.712 111.023 150.477 111.214C149.337 111.94 147.883 112.691 146.017 113.443C130.814 119.517 102.766 128.04 82.2601 131.156C12.3217 141.88 7.67871 122.594 7.67871 122.594C0.857632 127.448 -0.890426 132.528 0.38807 136.897C2.28972 143.381 10.616 148.343 18.7405 149.175C31.1232 150.475 43.639 150.256 56.0187 149.021C68.0269 147.821 79.9342 145.66 91.6557 142.793C102.075 140.245 112.362 137.135 122.461 133.513C130.18 130.744 137.813 127.692 145.24 124.199C148.31 122.756 151.392 121.305 154.261 119.477C156.528 118.03 158.385 116.543 159.717 114.162C160.798 112.232 161.521 110.103 161.841 107.912C162.396 104.109 160.283 100.367 157.269 98.1852Z" fill="#040202"/>
<path fill-rule="evenodd" clip-rule="evenodd" d="M122.763 139.501C123.081 139.835 123.584 140.061 124.27 140.178C124.89 140.353 125.521 140.397 126.163 140.314C126.804 140.23 127.202 139.967 127.355 139.526L128.049 135.693C128.065 135.658 128.079 135.579 128.091 135.457C128.103 135.335 128.082 135.204 128.03 135.063C127.975 134.922 127.866 134.787 127.702 134.659C127.534 134.532 127.295 134.44 126.981 134.384L127.06 134.355C126.41 134.192 125.812 134.09 125.258 134.053C124.702 134.018 124.131 134.111 123.543 134.336C122.676 134.668 122.181 135.063 122.063 135.519C121.911 135.959 121.842 136.418 121.864 136.895C121.881 137.372 121.957 137.821 122.088 138.24C122.221 138.747 122.446 139.167 122.763 139.501Z" fill="#040202"/>
<path fill-rule="evenodd" clip-rule="evenodd" d="M107.371 158.498C107.382 158.142 107.414 157.704 107.465 157.184C107.518 156.667 107.602 156.12 107.721 155.546C107.839 154.973 107.996 154.405 108.192 153.845C108.389 153.286 108.651 152.782 108.977 152.333C109.165 152.057 109.372 151.831 109.598 151.656C109.823 151.481 110.067 151.388 110.326 151.377C110.584 151.366 110.832 151.462 111.071 151.665C111.308 151.867 111.532 152.207 111.741 152.685C112.06 153.444 112.257 154.272 112.333 155.167C112.411 156.063 112.395 156.965 112.285 157.872C112.178 158.78 111.992 159.679 111.732 160.573C111.472 161.465 111.169 162.301 110.819 163.08C110.491 163.91 110.124 164.425 109.718 164.624C109.312 164.824 108.834 164.429 108.281 163.436C107.804 162.563 107.521 161.685 107.437 160.807C107.351 159.931 107.329 159.161 107.371 158.498ZM155.372 144.962C155.283 145.347 155.188 145.723 155.075 146.088C154.965 146.454 154.838 146.774 154.695 147.047C154.55 147.324 154.402 147.49 154.249 147.549C153.791 147.725 153.384 147.596 153.029 147.159C152.672 146.723 152.389 146.111 152.179 145.327C151.969 144.54 151.819 143.665 151.73 142.701C151.642 141.737 151.63 140.802 151.696 139.895C151.762 138.99 151.902 138.186 152.12 137.487C152.337 136.787 152.639 136.335 153.029 136.126C153.154 136.226 153.32 136.279 153.527 136.286C153.735 136.295 153.96 136.311 154.203 136.336L154.395 136.263C153.858 136.85 153.513 137.481 153.359 138.157C153.206 138.833 153.197 139.513 153.324 140.196C153.451 140.881 153.718 141.544 154.12 142.182C154.522 142.821 155.025 143.393 155.626 143.895C155.545 144.222 155.461 144.576 155.372 144.962ZM169.209 147.787C169.084 147.945 168.96 148.103 168.833 148.255C167.917 149.358 166.861 150.342 165.715 151.202L165.743 151.212C157.025 156.613 141.436 164.516 129.574 168.414C121.678 171.021 115.101 172.695 109.615 173.702C109.425 173.043 109.247 172.382 109.097 171.712C108.884 170.766 108.707 169.835 108.564 168.92C108.913 168.993 109.229 168.996 109.511 168.933C109.794 168.867 110.12 168.823 110.491 168.799C111.337 168.798 112.206 168.407 113.094 167.627C113.982 166.846 114.811 165.816 115.581 164.538C116.353 163.258 117.024 161.804 117.591 160.179C118.155 158.552 118.534 156.909 118.724 155.252C118.911 153.594 118.869 151.981 118.595 150.413C118.322 148.843 117.734 147.484 116.828 146.332C116.249 145.732 115.57 145.427 114.794 145.416C114.015 145.406 113.224 145.562 112.427 145.882C111.63 146.202 110.865 146.62 110.139 147.133C109.413 147.646 108.814 148.123 108.34 148.57C108.341 148.423 108.335 148.211 108.319 147.938C108.305 147.666 108.302 147.469 108.315 147.347C107.218 147.621 106.249 147.917 105.408 148.239C104.567 148.561 103.918 148.855 103.461 149.117C103.109 149.575 102.816 150.48 102.585 151.831C102.351 153.183 102.184 154.804 102.082 156.692C101.979 158.58 101.962 160.63 102.025 162.836C102.088 165.043 102.216 167.211 102.411 169.339C102.582 171.223 102.819 172.979 103.103 174.647C85.5974 176.46 82.8122 170.101 82.8122 170.101C79.2327 173.903 78.7895 177.359 80.1133 180.063C82.0793 184.075 87.796 186.481 92.8763 186.231C99.8408 185.908 106.755 184.776 113.515 183.085C120.107 181.437 126.562 179.258 132.852 176.692C138.615 174.341 144.246 171.664 149.726 168.711C154.253 166.27 158.684 163.644 162.973 160.802C164.632 159.704 166.27 158.573 167.873 157.396C170.307 155.61 172.855 153.706 174.475 151.103C176.178 148.366 177.07 145.118 176.982 141.889C176.872 137.832 175.08 133.723 171.214 132.038C169.298 131.204 166.903 130.852 165.015 131.944C162.448 133.429 162.295 136.395 161.766 138.99C161.668 139.468 161.564 139.904 161.451 140.299C161.399 140.467 161.301 140.652 161.157 140.852C161.013 141.055 160.809 141.074 160.544 140.912C160.678 140.42 160.77 139.731 160.814 138.847C160.858 137.964 160.799 137.099 160.638 136.251C160.476 135.403 160.19 134.668 159.779 134.047C159.368 133.426 158.77 133.119 157.985 133.127C157.38 131.92 156.52 131.177 155.407 130.899C154.294 130.62 153.124 130.715 151.899 131.184C151.362 131.39 150.824 131.684 150.283 132.069C149.74 132.451 149.219 132.966 148.721 133.613C148.222 134.26 147.752 135.069 147.318 136.044C146.885 137.018 146.501 138.185 146.171 139.544C146.022 140.307 145.916 141.125 145.853 142C145.818 142.493 145.807 142.989 145.81 143.485C145.745 143.772 145.676 144.067 145.619 144.336C145.295 145.635 144.974 146.251 144.654 146.18C144.338 146.113 144.132 145.537 144.044 144.455L144.006 144.47C144.181 143.551 144.364 142.601 144.547 141.62C144.731 140.64 144.793 139.647 144.731 138.642C144.686 138.219 144.598 137.695 144.462 137.071C144.329 136.446 144.132 135.87 143.873 135.337C143.612 134.806 143.256 134.385 142.801 134.074C142.347 133.763 141.78 133.71 141.095 133.913C140.456 134.07 139.931 134.367 139.525 134.8C139.12 135.234 138.813 135.77 138.602 136.41C138.39 137.047 138.273 137.754 138.242 138.529C138.216 139.303 138.276 140.117 138.424 140.969C138.545 141.598 138.671 142.197 138.798 142.762C138.927 143.331 139.044 143.837 139.154 144.28C139.264 144.721 139.366 145.087 139.46 145.374C139.555 145.662 139.629 145.838 139.682 145.906C139.519 146.702 139.364 147.43 139.218 148.086C139.072 148.745 138.929 149.306 138.784 149.773C138.412 150.796 138.071 151.537 137.761 151.991C137.454 152.448 137.186 152.668 136.96 152.651C136.734 152.636 136.535 152.417 136.363 152C136.189 151.581 136.045 151.028 135.93 150.338C135.805 149.475 135.721 148.554 135.668 147.574C135.621 146.595 135.606 145.601 135.634 144.592C135.661 143.584 135.718 142.579 135.804 141.575C135.89 140.574 136.012 139.617 136.164 138.708C136.211 138.22 135.902 137.957 135.229 137.92C134.559 137.885 133.797 138 132.949 138.266C132.099 138.533 131.315 138.892 130.595 139.343C129.875 139.795 129.486 140.252 129.428 140.715C129.451 140.853 129.451 140.949 129.428 141.002C129.404 141.055 129.416 141.144 129.464 141.274C129.416 141.997 129.385 142.992 129.371 144.261C129.356 145.529 129.39 146.889 129.471 148.339C129.485 148.561 129.511 148.781 129.527 149.002C129.391 149.778 129.232 150.58 129.027 151.44C128.731 152.668 128.392 153.737 128.007 154.648C127.811 155.134 127.62 155.516 127.432 155.793C127.247 156.07 127.067 156.219 126.903 156.239C126.735 156.26 126.581 156.126 126.443 155.841C126.304 155.557 126.202 155.09 126.132 154.442C126.018 153.604 125.984 152.589 126.029 151.397C126.073 150.205 126.161 149.012 126.291 147.817C126.423 146.621 126.581 145.497 126.767 144.443C126.95 143.388 127.146 142.558 127.353 141.95C127.203 141.861 126.903 141.8 126.451 141.766C126 141.734 125.463 141.748 124.845 141.81C124.224 141.87 123.56 141.986 122.849 142.155C122.14 142.324 121.455 142.579 120.797 142.92C120.677 143.992 120.534 145.296 120.37 146.826C120.206 148.358 120.108 149.929 120.079 151.541C120.047 153.153 120.108 154.723 120.263 156.248C120.417 157.775 120.747 159.087 121.252 160.185C121.818 161.29 122.605 162.032 123.61 162.411C124.615 162.789 125.716 162.748 126.917 162.288C128.064 161.849 128.993 161.193 129.7 160.32C130.406 159.449 130.978 158.392 131.413 157.153C131.42 157.131 131.426 157.109 131.435 157.087C131.974 157.922 132.675 158.558 133.551 158.977C134.659 159.508 135.889 159.513 137.24 158.995C138.083 158.674 138.844 158.134 139.519 157.375C140.197 156.617 140.788 155.788 141.294 154.889C141.801 153.991 142.214 153.077 142.534 152.147C142.853 151.216 143.102 150.408 143.28 149.725C144.559 150.086 145.587 150.023 146.364 149.534C146.521 149.435 146.665 149.322 146.807 149.208C146.855 149.321 146.892 149.444 146.943 149.556C147.436 150.542 148.127 151.341 149.016 151.954C149.905 152.568 151.051 152.87 152.452 152.864L152.414 152.877C153.305 152.917 154.153 152.724 154.958 152.3C155.76 151.875 156.484 151.319 157.129 150.632C157.775 149.944 158.331 149.18 158.802 148.339C159.273 147.499 159.629 146.665 159.87 145.838C161.005 145.903 162.009 145.6 162.878 144.928C163.77 144.241 164.367 143.228 164.693 142.16C165 141.147 165.092 140 165.957 139.271C166.77 138.586 167.886 138.345 168.938 138.333C169.778 138.323 170.639 138.542 171.296 139.068C172.662 140.163 172.329 141.964 171.714 143.379C171.028 144.965 170.271 146.42 169.209 147.787Z" fill="#040202"/>
</g>
</svg>
