<svg width="233" height="144" viewBox="0 0 233 144" fill="none" xmlns="http://www.w3.org/2000/svg">
<g opacity="0.376302">
<path fill-rule="evenodd" clip-rule="evenodd" d="M1.00244 141.738H201.503V133.589H1.00244V141.738Z" fill="#040202"/>
<path fill-rule="evenodd" clip-rule="evenodd" d="M1.00244 141.74H201.505V133.591H1.00244V141.74Z" stroke="#040202"/>
<path fill-rule="evenodd" clip-rule="evenodd" d="M16.8875 135.632H79.6251V64.0363H16.8875V135.632Z" fill="#040202"/>
<path fill-rule="evenodd" clip-rule="evenodd" d="M16.8875 135.632H79.6251V64.0363H16.8875V135.632Z" stroke="#040202"/>
<path fill-rule="evenodd" clip-rule="evenodd" d="M80.518 54.8259C83.1464 54.8259 85.2756 56.9532 85.2756 59.5793C85.2756 62.2054 83.1464 64.3328 80.518 64.3328H14.5084C11.8799 64.3328 9.75073 62.2054 9.75073 59.5793C9.75073 56.9532 11.8799 54.8259 14.5084 54.8259H16.9464C25.0081 48.7864 36.0892 45.0226 48.257 45.0226C60.4228 45.0226 71.5019 48.7864 79.5637 54.8259H80.518Z" fill="#040202"/>
<path fill-rule="evenodd" clip-rule="evenodd" d="M80.518 54.8259H79.5637C71.5019 48.7864 60.4228 45.0226 48.257 45.0226C36.0892 45.0226 25.0081 48.7864 16.9464 54.8259H14.5084C11.8799 54.8259 9.75073 56.9532 9.75073 59.5793C9.75073 62.2054 11.8799 64.3328 14.5084 64.3328H80.518C83.1464 64.3328 85.2756 62.2054 85.2756 59.5793C85.2756 56.9532 83.1464 54.8259 80.518 54.8259Z" stroke="#040202"/>
<mask id="mask0" mask-type="alpha" maskUnits="userSpaceOnUse" x="0" y="0" width="233" height="144">
<path fill-rule="evenodd" clip-rule="evenodd" d="M0 143.763H232.866V0.77533H0V143.763Z" fill="white"/>
</mask>
<g mask="url(#mask0)">
<path fill-rule="evenodd" clip-rule="evenodd" d="M132.552 135.632H195.29V64.0363H132.552V135.632Z" fill="#040202"/>
<path fill-rule="evenodd" clip-rule="evenodd" d="M132.552 135.632H195.29V64.0363H132.552V135.632Z" stroke="#040202"/>
<path fill-rule="evenodd" clip-rule="evenodd" d="M196.183 54.8259H195.229C187.169 48.7864 176.088 45.0226 163.922 45.0226C151.754 45.0226 140.673 48.7864 132.613 54.8259H130.173C127.547 54.8259 125.416 56.9532 125.416 59.5793C125.416 62.2054 127.547 64.3328 130.173 64.3328H196.183C198.811 64.3328 200.941 62.2054 200.941 59.5793C200.941 56.9532 198.811 54.8259 196.183 54.8259Z" fill="#040202"/>
<path fill-rule="evenodd" clip-rule="evenodd" d="M196.183 54.8259H195.229C187.169 48.7864 176.088 45.0226 163.922 45.0226C151.754 45.0226 140.673 48.7864 132.613 54.8259H130.173C127.547 54.8259 125.416 56.9532 125.416 59.5793C125.416 62.2054 127.547 64.3328 130.173 64.3328H196.183C198.811 64.3328 200.941 62.2054 200.941 59.5793C200.941 56.9532 198.811 54.8259 196.183 54.8259Z" stroke="#040202"/>
<path fill-rule="evenodd" clip-rule="evenodd" d="M154.853 45.916H172.099V34.0314H154.853V45.916Z" fill="#040202"/>
<path fill-rule="evenodd" clip-rule="evenodd" d="M154.853 45.916H172.099V34.0314H154.853V45.916Z" stroke="#040202"/>
<path fill-rule="evenodd" clip-rule="evenodd" d="M43.0515 45.916H53.459V27.1987H43.0515V45.916Z" fill="#040202"/>
<path fill-rule="evenodd" clip-rule="evenodd" d="M43.0515 45.916H53.459V27.1987H43.0515V45.916Z" stroke="#040202"/>
<path fill-rule="evenodd" clip-rule="evenodd" d="M194.398 126.125H231.864V116.915H194.398V126.125Z" fill="#040202"/>
<path fill-rule="evenodd" clip-rule="evenodd" d="M194.398 126.125H231.864V116.915H194.398V126.125Z" stroke="#040202"/>
<path fill-rule="evenodd" clip-rule="evenodd" d="M18.0762 43.8347H25.8071V31.6537H18.0762V43.8347Z" fill="#040202"/>
<path fill-rule="evenodd" clip-rule="evenodd" d="M18.0762 43.8347H25.8071V31.6537H18.0762V43.8347Z" stroke="#040202"/>
<path fill-rule="evenodd" clip-rule="evenodd" d="M54.0544 19.7711H62.9743V12.6419H54.0544V19.7711Z" fill="#040202"/>
<path fill-rule="evenodd" clip-rule="evenodd" d="M54.0544 19.7711H62.9743V12.6419H54.0544V19.7711Z" stroke="#040202"/>
<path fill-rule="evenodd" clip-rule="evenodd" d="M83.4905 19.1781H93.0058V12.9384H83.4905V19.1781Z" fill="#040202"/>
<path fill-rule="evenodd" clip-rule="evenodd" d="M83.4905 19.1781H93.0058V12.9384H83.4905V19.1781Z" stroke="#040202"/>
<path fill-rule="evenodd" clip-rule="evenodd" d="M94.1946 126.422H101.926V117.212H94.1946V126.422Z" fill="#040202"/>
<path fill-rule="evenodd" clip-rule="evenodd" d="M94.1946 126.422H101.926V117.212H94.1946V126.422Z" stroke="#040202"/>
<path fill-rule="evenodd" clip-rule="evenodd" d="M95.2612 71.1655H100.859V61.955H95.2612V71.1655Z" fill="#040202"/>
<path fill-rule="evenodd" clip-rule="evenodd" d="M95.2612 71.1655H100.859V61.955H95.2612V71.1655Z" stroke="#040202"/>
<path fill-rule="evenodd" clip-rule="evenodd" d="M86.0627 94.9307H91.5121V85.7223H86.0627V94.9307Z" fill="#040202"/>
<path fill-rule="evenodd" clip-rule="evenodd" d="M86.0627 94.9307H91.5121V85.7223H86.0627V94.9307Z" stroke="#040202"/>
<path fill-rule="evenodd" clip-rule="evenodd" d="M94.1946 42.9433H101.926V33.7349H94.1946V42.9433Z" fill="#040202"/>
<path fill-rule="evenodd" clip-rule="evenodd" d="M94.1946 42.9433H101.926V33.7349H94.1946V42.9433Z" stroke="#040202"/>
<path fill-rule="evenodd" clip-rule="evenodd" d="M114.713 123.155H122.444V113.944H114.713V123.155Z" fill="#040202"/>
<path fill-rule="evenodd" clip-rule="evenodd" d="M114.713 123.155H122.444V113.944H114.713V123.155Z" stroke="#040202"/>
<path fill-rule="evenodd" clip-rule="evenodd" d="M106.653 92.2585H111.948V83.0481H106.653V92.2585Z" fill="#040202"/>
<path fill-rule="evenodd" clip-rule="evenodd" d="M106.653 92.2585H111.948V83.0481H106.653V92.2585Z" stroke="#040202"/>
<path fill-rule="evenodd" clip-rule="evenodd" d="M106.653 64.9257H111.948V55.7173H106.653V64.9257Z" fill="#040202"/>
<path fill-rule="evenodd" clip-rule="evenodd" d="M106.653 64.9257H111.948V55.7173H106.653V64.9257Z" stroke="#040202"/>
<path fill-rule="evenodd" clip-rule="evenodd" d="M115.739 96.7154H121.415V87.505H115.739V96.7154Z" fill="#040202"/>
<path fill-rule="evenodd" clip-rule="evenodd" d="M115.739 96.7154H121.415V87.505H115.739V96.7154Z" stroke="#040202"/>
<path fill-rule="evenodd" clip-rule="evenodd" d="M115.972 70.2741H120.73V61.0637H115.972V70.2741Z" fill="#040202"/>
<path fill-rule="evenodd" clip-rule="evenodd" d="M115.972 70.2741H120.73V61.0637H115.972V70.2741Z" stroke="#040202"/>
<path fill-rule="evenodd" clip-rule="evenodd" d="M114.713 43.5382H122.444V34.3278H114.713V43.5382Z" fill="#040202"/>
<path fill-rule="evenodd" clip-rule="evenodd" d="M114.713 43.5382H122.444V34.3278H114.713V43.5382Z" stroke="#040202"/>
<path fill-rule="evenodd" clip-rule="evenodd" d="M10.9387 27.1987H32.6459V24.228H10.9387V27.1987Z" fill="#040202"/>
<path fill-rule="evenodd" clip-rule="evenodd" d="M10.9387 27.1987H32.6459V24.228H10.9387V27.1987Z" stroke="#040202"/>
<path fill-rule="evenodd" clip-rule="evenodd" d="M20.1575 33.4364H23.7262V28.3865H20.1575V33.4364Z" fill="#040202"/>
<path fill-rule="evenodd" clip-rule="evenodd" d="M20.1575 33.4364H23.7262V28.3865H20.1575V33.4364Z" stroke="#040202"/>
<path fill-rule="evenodd" clip-rule="evenodd" d="M89.9052 133.85H87.78V41.9241H22.833V39.8008H89.9052V133.85Z" fill="#040202"/>
<path fill-rule="evenodd" clip-rule="evenodd" d="M89.9052 133.85H87.78V41.9241H22.833V39.8008H89.9052V133.85Z" stroke="#040202"/>
<path fill-rule="evenodd" clip-rule="evenodd" d="M99.124 134.74H96.9988V16.6752H48.875V35.2182H46.7478V14.5499H99.124V134.74Z" fill="#040202"/>
<path fill-rule="evenodd" clip-rule="evenodd" d="M99.124 134.74H96.9988V16.6752H48.875V35.2182H46.7478V14.5499H99.124V134.74Z" stroke="#040202"/>
<path fill-rule="evenodd" clip-rule="evenodd" d="M110.422 101.342H75.4626V99.2167H108.297V49.3087H145.338V51.432H110.422V101.342Z" fill="#040202"/>
<path fill-rule="evenodd" clip-rule="evenodd" d="M110.422 101.342H75.4626V99.2167H108.297V49.3087H145.338V51.432H110.422V101.342Z" stroke="#040202"/>
<path fill-rule="evenodd" clip-rule="evenodd" d="M119.342 135.037H117.215V25.5641C117.215 12.4476 127.897 1.77689 141.025 1.77689C154.156 1.77689 164.834 12.4476 164.834 25.5641V37.5949H162.708V25.5641C162.708 13.6174 152.983 3.90021 141.025 3.90021C129.07 3.90021 119.342 13.6174 119.342 25.5641V135.037Z" fill="#040202"/>
<path fill-rule="evenodd" clip-rule="evenodd" d="M119.342 135.037H117.215V25.5641C117.215 12.4476 127.897 1.77689 141.025 1.77689C154.156 1.77689 164.834 12.4476 164.834 25.5641V37.5949H162.708V25.5641C162.708 13.6174 152.983 3.90021 141.025 3.90021C129.07 3.90021 119.342 13.6174 119.342 25.5641V135.037Z" stroke="#040202"/>
<path fill-rule="evenodd" clip-rule="evenodd" d="M217.592 132.363H205.103V115.549C205.103 113.023 207.152 110.974 209.682 110.974H213.013C215.543 110.974 217.592 113.023 217.592 115.549V132.363Z" fill="#040202"/>
<path fill-rule="evenodd" clip-rule="evenodd" d="M217.592 132.363H205.103V115.549C205.103 113.023 207.152 110.974 209.682 110.974H213.013C215.543 110.974 217.592 113.023 217.592 115.549V132.363Z" stroke="#040202"/>
<path fill-rule="evenodd" clip-rule="evenodd" d="M208.968 142.761H213.428V124.343H208.968V142.761Z" fill="#040202"/>
<path fill-rule="evenodd" clip-rule="evenodd" d="M208.968 142.761H213.428V124.343H208.968V142.761Z" stroke="#040202"/>
<path fill-rule="evenodd" clip-rule="evenodd" d="M208.97 111.867H213.431V104.736H208.97V111.867Z" fill="#040202"/>
<path fill-rule="evenodd" clip-rule="evenodd" d="M208.97 111.867H213.431V104.736H208.97V111.867Z" stroke="#040202"/>
<path fill-rule="evenodd" clip-rule="evenodd" d="M205.65 100.366L208.969 104.735H213.429L208.6 90.9452L208.519 90.9733C204.608 92.3074 203.152 97.0748 205.65 100.366Z" fill="#040202"/>
<path fill-rule="evenodd" clip-rule="evenodd" d="M205.65 100.366L208.969 104.735H213.429L208.6 90.9452L208.519 90.9733C204.608 92.3074 203.152 97.0748 205.65 100.366Z" stroke="#040202"/>
<path fill-rule="evenodd" clip-rule="evenodd" d="M183.818 69.2547C183.818 69.2547 184.958 120.132 183.818 119.752V69.2547Z" fill="white"/>
<path d="M183.818 69.2547C183.818 69.2547 184.958 120.132 183.818 119.752" stroke="#040201" stroke-width="2" stroke-linecap="round" stroke-linejoin="round"/>
<path fill-rule="evenodd" clip-rule="evenodd" d="M71.6709 69.2547C71.6709 69.2547 72.8117 120.132 71.6709 119.752V69.2547Z" fill="white"/>
<path d="M71.6709 69.2547C71.6709 69.2547 72.8117 120.132 71.6709 119.752" stroke="#040201" stroke-width="2" stroke-linecap="round" stroke-linejoin="round"/>
<path d="M21.0991 59.9247C21.0991 59.9247 28.7839 50.5761 44.1556 51.9122" stroke="#040201" stroke-width="1.5" stroke-linecap="round" stroke-linejoin="round"/>
<path d="M136.29 60.3189C136.29 60.3189 143.975 50.9703 159.347 52.3064" stroke="#040201" stroke-width="1.5" stroke-linecap="round" stroke-linejoin="round"/>
</g>
</g>
</svg>
